<svg width="61" height="59" viewBox="0 0 61 59" fill="none" xmlns="http://www.w3.org/2000/svg">
<path d="M43.5371 40.8836C43.4463 42.035 43.5976 43.2167 43.9911 44.3075C44.2483 45.0499 44.6266 45.7468 44.9142 46.4892C45.2168 47.2164 45.4287 48.0042 45.3833 48.792C45.3227 49.8373 44.778 50.7918 44.2483 51.7008" fill="#963636"/>
<path d="M43.5371 40.8836C43.4463 42.035 43.5976 43.2167 43.9911 44.3075C44.2483 45.0499 44.6266 45.7468 44.9142 46.4892C45.2168 47.2164 45.4287 48.0042 45.3833 48.792C45.3227 49.8373 44.778 50.7918 44.2483 51.7008" stroke="#963636" stroke-width="2" stroke-miterlimit="10" stroke-linecap="round" stroke-linejoin="round"/>
<path d="M34.8962 38.3383C35.0172 40.1108 35.1534 41.8834 35.2745 43.6711C35.3653 44.9134 35.4561 46.186 35.9403 47.3223C36.591 48.8827 37.9833 50.1099 39.6327 50.6098C40.8434 50.9734 42.0994 51.1401 43.3706 51.2613C43.3554 50.2765 43.2646 49.3069 42.9014 48.3979C42.6139 47.6859 42.1751 47.0496 41.9632 46.3224C41.7967 45.7921 41.7513 45.2316 41.5698 44.7165C41.3882 44.2014 40.9947 43.7014 40.4197 43.5348C41.7513 43.0348 42.9922 42.2318 43.7792 41.0501C44.5509 39.8684 44.7779 38.2625 43.9002 36.9293C45.2319 36.4445 46.5787 35.9597 47.744 35.1568C48.8941 34.3387 49.8626 33.157 50.0896 31.7632C50.2409 30.839 50.0593 29.8846 50.1047 28.9452C50.1804 27.3999 50.8916 25.9607 51.4061 24.4911C51.9206 23.0216 52.2687 21.3702 51.6331 19.9461C51.2094 19.022 50.4225 18.3099 50.029 17.3706C49.4086 15.901 49.8777 14.2194 50.2258 12.9468C50.4073 12.265 50.3014 11.5075 49.9534 10.9015C49.5902 10.2955 48.9849 9.84103 48.3039 9.65923C47.7137 9.50773 47.0479 9.53803 46.5787 9.14412C46.2307 8.84112 46.0945 8.35632 45.8826 7.94727C45.5194 7.25037 44.8839 6.68982 44.1575 6.41711C42.281 6.94737 40.4499 7.58367 38.634 8.28057C39.9051 9.09867 40.8888 10.341 41.5849 11.6893C42.3113 13.068 42.7804 14.583 43.2041 16.0829C43.4765 17.0373 43.7338 18.0069 43.764 18.9917C43.7943 19.9916 43.5522 21.0218 42.8106 21.7944C43.4008 23.7942 43.5673 26.0061 43.0376 28.0211C42.6745 29.43 41.827 30.6421 41.3125 32.0056C40.6315 33.7933 39.7235 35.4749 38.7248 37.1414C38.1649 38.0656 37.1207 38.611 36.0463 38.5201C35.6679 38.4898 35.2745 38.4292 34.8962 38.3383Z" fill="#963636"/>
<path d="M-8.39233e-05 61.9421H15.5716C16.1164 61.7603 16.6309 61.4724 16.9185 61.1543C17.433 60.6089 17.6297 59.8362 17.9929 59.1848C18.5528 58.2152 19.4759 57.5183 20.3082 56.7608C21.534 55.6245 22.6084 54.2458 23.0321 52.6248C23.471 51.0037 23.1683 49.1251 21.988 47.9434C23.3045 46.08 23.6526 43.8681 23.9855 41.7168C24.4698 38.611 24.9389 35.4295 24.7573 32.2934C24.6816 30.8087 24.4546 29.3392 24.0158 27.8696C24.5 27.5666 24.5908 26.9303 24.8178 26.4C25.1205 25.7183 25.6955 25.2032 26.2403 24.6881C26.8002 24.1578 27.3299 23.5821 27.8595 23.0216C28.1016 22.764 28.3438 22.5065 28.5254 22.2035C28.7372 21.855 28.8734 21.4763 28.9945 21.0824C29.2971 20.2037 29.509 19.2947 29.8117 18.4311C30.4321 16.5677 31.3855 14.8254 32.2027 13.0377C32.6264 12.0832 33.0804 11.1136 33.7159 10.3107C31.6881 11.1894 29.6906 12.1135 27.7082 13.0377C22.8657 15.2799 18.0232 17.5221 13.1806 19.7643C12.5905 21.4157 13.4076 23.5518 12.651 25.2335C12.0457 26.5818 10.5475 27.309 9.77575 28.5665C9.18556 29.521 9.0645 30.7027 9.21583 31.8238C9.36716 32.9449 9.76061 34.0054 10.3054 35.3386C9.32176 36.2173 8.32299 37.096 7.52095 38.1262C6.70377 39.1715 6.08333 40.3835 5.932 41.7016C5.68987 43.8529 6.73404 46.0648 6.11359 48.1404C5.7958 49.1857 5.09969 50.0644 4.38845 50.8977C3.6772 51.7309 2.92056 52.549 2.49684 53.5489C2.05799 54.5488 1.99745 55.7911 2.7087 56.5184C1.30134 57.7304 0.272308 60.0483 -8.39233e-05 61.9421Z" fill="#963636"/>
<path d="M22.9263 26.8545C23.1684 26.9908 23.3803 27.1878 23.5619 27.4151C23.8494 27.112 24.0461 26.7787 24.0159 26.4151C23.6981 26.703 23.2592 26.8545 22.9263 26.8545Z" fill="#FFB49A"/>
<path d="M22.1092 28.0969C21.8519 28.2484 21.6552 28.506 21.6401 28.809C21.6249 29.0514 21.7308 29.2938 21.8822 29.4907C22.0335 29.6877 22.2302 29.8392 22.427 29.9907C22.6237 29.521 22.8809 29.1574 23.229 28.8847C22.7902 28.5969 22.3967 28.2939 22.1092 28.0969Z" fill="#FFB49A"/>
<path d="M23.4255 29.4907C23.4255 30.0967 23.3953 30.7178 23.3347 31.3238C23.2137 31.2481 23.138 31.0966 23.1077 30.9451C23.0775 30.7936 23.1077 30.6421 23.1229 30.4906C23.138 30.3391 23.1531 30.1876 23.1834 30.0361C23.1985 29.93 23.2137 29.8088 23.2591 29.7028C23.2893 29.6119 23.365 29.521 23.4255 29.4907Z" fill="#FFB49A"/>
<path d="M24.0461 27.8545C24.485 29.3089 24.712 30.7936 24.7876 32.2783C26.195 34.1115 28.2833 35.3386 30.3414 36.4446C31.5218 37.0809 32.7172 37.702 33.9884 38.1111C34.6543 38.3232 35.3504 38.4747 36.0616 38.5353C37.136 38.6262 38.1802 38.0808 38.7401 37.1566C39.7389 35.4901 40.6469 33.8085 41.3279 32.0208C41.8424 30.6573 42.6898 29.4453 43.053 28.0363C43.5675 26.0213 43.4011 23.7943 42.826 21.8096C43.5675 21.037 43.8096 19.9916 43.7794 19.0069C43.7491 18.007 43.4919 17.0525 43.2195 16.0981C42.7957 14.5982 42.3266 13.0832 41.6002 11.7045C40.889 10.3562 39.9205 9.11388 38.6493 8.29578C36.9999 8.93208 35.3504 9.61383 33.7312 10.3259C33.0956 11.1288 32.6416 12.1136 32.2179 13.0529C31.4158 14.8406 30.4625 16.5829 29.8269 18.4463C29.5393 19.3099 29.3124 20.2189 29.0097 21.0976C28.8735 21.4763 28.7524 21.8702 28.5406 22.2187C28.359 22.5217 28.1169 22.7792 27.8747 23.0368C27.3451 23.6125 26.8154 24.173 26.2555 24.7033C25.7259 25.2184 25.1357 25.7183 24.833 26.4152C24.606 26.9152 24.5304 27.5667 24.0461 27.8545Z" fill="#FFC1AB"/>
<path d="M24.0459 27.8548C24.4847 29.3092 24.7117 30.7939 24.7874 32.2786C26.1947 34.1118 28.2831 35.3389 30.3411 36.4449C31.5215 37.0812 32.717 37.7023 33.9882 38.1114C34.654 38.3235 35.3501 38.475 36.0614 38.5356C37.0299 38.6113 37.9681 38.1871 38.5583 37.4145C37.8622 37.9296 36.9391 38.172 36.0614 38.1568C34.8507 38.1417 33.7006 37.7023 32.5808 37.2478C31.0373 36.6115 29.5088 35.9146 28.2074 34.8693C26.906 33.8391 25.8315 32.4453 25.4532 30.8242C26.3309 30.5212 26.906 29.6425 27.1632 28.779C27.4205 27.9154 27.4508 26.9761 27.7232 26.1126C28.0107 25.249 28.6463 24.4006 29.5391 24.2945C30.1141 24.4157 30.6741 24.5521 31.2491 24.5672C31.8242 24.5975 32.3992 24.5066 32.8986 24.2339C33.398 23.9612 33.7914 23.4613 33.8671 22.9007C34.2908 22.219 34.7902 21.5978 35.2745 20.9767C35.3955 20.8252 35.5166 20.6737 35.6982 20.5979C35.9706 20.4919 36.3035 20.6131 36.5002 20.8403C36.6969 21.0524 36.8029 21.3403 36.9088 21.6281C37.2417 22.5371 37.5747 23.4613 37.9076 24.3703C38.0286 24.9005 38.2405 25.4005 38.5734 25.8095C38.8004 26.0974 39.0879 26.3398 39.3301 26.6277C39.5722 25.7944 39.5722 24.8854 39.3149 24.0521C40.5558 24.643 42.0086 24.7793 43.31 24.4157C43.2343 23.537 43.0679 22.6583 42.8106 21.8251C43.5521 21.0524 43.7943 20.0071 43.764 19.0223C43.7337 18.0224 43.4765 17.068 43.2041 16.1135C42.7804 14.6137 42.3112 13.0987 41.5849 11.72C40.8736 10.3716 39.9051 9.12934 38.634 8.31123C36.9845 8.94754 35.335 9.62929 33.7158 10.3413C33.0802 11.1443 32.6262 12.129 32.2025 13.0684C31.4004 14.8561 30.4471 16.5983 29.8115 18.4618C29.524 19.3253 29.297 20.2343 28.9943 21.113C28.8581 21.4918 28.7371 21.8857 28.5252 22.2341C28.3436 22.5371 28.1015 22.7947 27.8594 23.0522C27.3297 23.6279 26.8001 24.1885 26.2401 24.7187C25.7105 25.2338 25.1203 25.7338 24.8176 26.4307C24.6058 26.9155 24.5301 27.567 24.0459 27.8548Z" fill="#FFB49A"/>
<path d="M36.5307 34.6872C35.8346 34.5811 35.1385 34.5963 34.4424 34.7326C34.624 35.2175 35.0931 35.5356 35.5925 35.7023C36.0918 35.8689 36.6064 35.9144 37.1057 36.0507C37.4387 36.1416 37.7867 36.2931 38.1348 36.278C38.5736 36.2628 38.9671 35.9901 39.1941 35.6113C39.4059 35.2326 39.4513 34.7629 39.3454 34.3539L36.5307 34.6872Z" fill="#FFB49A"/>
<path d="M37.4388 28.7635C37.4539 28.7635 37.469 28.7786 37.4842 28.7786C37.6658 28.8241 37.8474 28.7786 37.9987 28.7029C37.9835 29.4755 38.1803 30.2634 38.5737 30.9451C38.5737 30.9451 38.3467 31.339 37.7868 31.5057C37.242 31.6572 37.015 30.8391 37.015 30.8391C37.3328 30.1876 37.469 29.4755 37.4388 28.7635Z" fill="#FFB49A"/>
<path d="M39.1334 22.7793C39.663 22.8247 40.1927 22.9308 40.7072 23.0974C41.1763 23.2489 41.6606 23.4307 42.1297 23.2944C42.5231 23.1732 42.8106 22.855 43.0074 22.4914C42.9771 22.3854 42.962 22.2945 42.9317 22.1884C42.6896 22.7338 42.3264 23.0065 41.9027 23.0974C41.6454 23.158 41.373 23.1429 41.1158 23.0823C41.0098 23.052 40.9039 23.0217 40.8131 22.9914C40.4651 22.8702 40.1473 22.6732 39.8295 22.4763C40.4348 22.0672 41.1612 21.84 41.8875 21.8097C42.2053 21.7945 42.5383 21.8248 42.856 21.9006C42.8409 21.8551 42.8409 21.8097 42.8258 21.7794C42.9771 21.6279 43.0982 21.4612 43.2192 21.2794C43.1133 21.2491 43.0074 21.2188 42.8863 21.1885C43.0225 21.0673 43.1284 20.9007 43.189 20.7189C43.0679 20.8855 42.9166 21.037 42.7501 21.1582C42.6442 21.1431 42.5231 21.1279 42.4172 21.1128C42.4777 20.931 42.4929 20.734 42.4777 20.5522C42.4323 20.7492 42.3567 20.931 42.2659 21.0976C42.1751 21.0976 42.0691 21.0976 41.9783 21.0976C42.0086 20.931 42.0086 20.7492 41.9783 20.5825C41.9481 20.7643 41.9027 20.931 41.8573 21.1128C41.7665 21.1128 41.6757 21.1279 41.5698 21.1431C41.5849 20.9461 41.5546 20.734 41.4941 20.5371C41.5092 20.7492 41.4941 20.9613 41.4487 21.1582C41.2822 21.1885 41.1309 21.234 40.9796 21.2794C40.1927 21.5673 39.5268 22.0975 39.1334 22.7793Z" fill="#292924"/>
<path d="M41.1311 23.0973C41.3883 23.1579 41.6607 23.173 41.918 23.1124C42.3266 23.0215 42.6898 22.7337 42.947 22.2034C42.9168 22.1125 42.9016 22.0216 42.8714 21.9307C42.5536 21.855 42.2358 21.8247 41.9029 21.8398C41.9483 21.961 41.9785 22.0974 41.9634 22.2186C41.9483 22.3852 41.8877 22.5367 41.8121 22.6731C41.7061 22.8549 41.5548 23.0064 41.3581 23.067C41.2673 23.0821 41.2067 23.0973 41.1311 23.0973Z" fill="#FFF6ED"/>
<path d="M41.8876 21.8248C41.933 21.946 41.9632 22.0823 41.9481 22.2035C41.933 22.3702 41.8724 22.5217 41.7968 22.658C41.6908 22.8398 41.5395 22.9913 41.3428 23.0519C41.2671 23.0671 41.2066 23.0822 41.1309 23.0822C41.025 23.0519 40.9191 23.0216 40.8283 22.9913C40.4802 22.8701 40.1624 22.6732 39.8446 22.4762C40.4499 22.0823 41.1612 21.8551 41.8876 21.8248ZM41.3125 22.249C41.373 22.3096 41.479 22.3247 41.5395 22.2793C41.6 22.2187 41.6152 22.1126 41.5698 22.052C41.5244 21.9763 41.4033 21.9611 41.3428 22.0217C41.252 22.0672 41.252 22.1884 41.3125 22.249Z" fill="#292924"/>
<path d="M42.7955 20.537C41.9481 20.3249 41.025 20.4613 40.2683 20.8855C40.0414 21.0218 39.8295 21.1733 39.663 21.3854" stroke="#E19B82" stroke-width="0.5" stroke-miterlimit="10" stroke-linecap="round" stroke-linejoin="round"/>
<path d="M28.5405 22.2035C28.6918 21.9459 28.8129 21.6732 28.9188 21.3854C29.1004 21.3551 29.282 21.3248 29.4636 21.2945C29.3879 21.0672 29.3123 20.8248 29.3577 20.5824C29.4182 20.8248 29.5241 21.0521 29.63 21.2642C29.7511 21.249 29.8873 21.2339 30.0235 21.2339C29.9478 20.9915 29.9176 20.7339 29.9176 20.4764C29.9932 20.7339 30.084 20.9915 30.19 21.2339C30.311 21.2339 30.4321 21.2339 30.5532 21.2339C30.7045 21.0066 30.8255 20.7491 30.8861 20.4764C30.9163 20.7339 30.8861 21.0066 30.7801 21.249C30.992 21.2642 31.2039 21.2945 31.4157 21.3399C31.4763 21.0824 31.5519 20.8097 31.7184 20.5976C31.6276 20.84 31.5822 21.1127 31.5519 21.3702C32.4145 21.6126 33.1711 22.1732 33.6403 22.9156C33.0803 22.8398 32.5507 23.1125 32.0059 23.264C30.765 23.5973 29.3728 23.264 28.4194 22.4005C28.4648 22.3247 28.4951 22.2641 28.5405 22.2035ZM29.857 23.0065C30.2505 23.1428 30.6742 23.1883 31.0979 23.1731C31.794 23.158 32.475 22.9762 33.1106 22.6732C32.6718 22.2187 31.9756 21.8702 31.2493 21.749C31.1887 21.7338 31.1433 21.7338 31.0828 21.7338C30.4775 21.6581 29.8722 21.749 29.3123 21.9762C29.1307 22.052 28.9642 22.1278 28.7977 22.2338C29.1004 22.6277 29.4636 22.8701 29.857 23.0065Z" fill="#292924"/>
<path d="M28.7977 22.2339C29.1004 22.6278 29.4636 22.8702 29.857 23.0065C30.2505 23.1429 30.6742 23.1883 31.0979 23.1732C31.794 23.158 32.475 22.9762 33.1106 22.6732C32.6717 22.2187 31.9756 21.8703 31.2493 21.7491C31.3098 22.0975 31.1736 22.4611 30.9012 22.6884C30.5985 22.9308 30.1597 22.9611 29.8268 22.7793C29.5392 22.6278 29.3425 22.2945 29.3122 21.9612C29.1307 22.0521 28.9491 22.1278 28.7977 22.2339Z" fill="#FFF6ED"/>
<path d="M31.0676 21.7339C31.1282 21.7339 31.1736 21.749 31.2341 21.749C31.2946 22.0975 31.1584 22.4611 30.886 22.6883C30.5834 22.9307 30.1445 22.961 29.8116 22.7792C29.5241 22.6277 29.3274 22.2944 29.2971 21.9611C29.857 21.749 30.4774 21.6581 31.0676 21.7339ZM30.4623 22.2035C30.5228 22.2641 30.6288 22.2793 30.6893 22.2338C30.7498 22.1884 30.765 22.0672 30.7196 22.0066C30.6742 21.9308 30.5531 21.9157 30.4926 21.9763C30.4169 22.0217 30.4169 22.1278 30.4623 22.2035Z" fill="#292924"/>
<path d="M30.4623 22.2036C30.5228 22.2642 30.6288 22.2793 30.6893 22.2339C30.7498 22.1884 30.765 22.0672 30.7196 22.0066C30.6742 21.9309 30.5531 21.9157 30.4926 21.9763C30.4169 22.0218 30.4169 22.1278 30.4623 22.2036Z" fill="#FFF6ED"/>
<path d="M41.3125 22.249C41.3731 22.3096 41.479 22.3247 41.5395 22.2793C41.6001 22.2187 41.6152 22.1126 41.5698 22.052C41.5244 21.9763 41.4033 21.9611 41.3428 22.0217C41.252 22.0672 41.252 22.1884 41.3125 22.249Z" fill="#FFF6ED"/>
<path d="M33.2317 21.3097C32.3086 20.4916 31.0072 20.1129 29.7814 20.3098" stroke="#E19B82" stroke-width="0.5" stroke-miterlimit="10" stroke-linecap="round" stroke-linejoin="round"/>
<path d="M29.8569 18.3403C30.2352 18.31 30.6287 18.3857 30.9919 18.4918C31.4912 18.6433 31.9604 18.8857 32.4446 19.0523C33.2013 19.3099 34.0033 19.4311 34.8659 19.3402C34.9869 19.0826 35.0172 18.7796 34.9415 18.4918C34.8961 18.31 34.7902 18.1282 34.6237 18.0524C34.5027 17.9918 34.3665 18.007 34.2454 17.9918C33.9428 17.9615 33.6552 17.8555 33.398 17.7797C33.4585 17.9312 33.4736 18.0979 33.398 18.2494C33.398 18.0827 33.2769 17.9161 33.1256 17.8403C32.9743 17.7494 32.7927 17.7343 32.6262 17.7191C32.4446 17.704 32.2781 17.7191 32.1117 17.6888C31.8544 17.6434 31.6274 17.5222 31.3853 17.4313C31.0373 17.2949 30.6589 17.2343 30.2806 17.2495C30.1142 17.6131 29.978 17.9767 29.8569 18.3403Z" fill="#963636"/>
<path d="M39.3301 19.4614C39.542 19.5523 40.2078 19.3856 40.4197 19.3099C41.0553 19.0978 41.2974 19.2038 41.9481 19.0372C42.281 18.9463 42.5837 18.8099 42.9166 18.719C43.189 18.6433 43.4917 18.5978 43.7792 18.6433C43.7489 18.2948 43.7035 17.9312 43.6278 17.5828C43.3101 17.3858 42.9015 17.3555 42.5685 17.4919C42.3264 17.5828 42.1146 17.7646 41.8724 17.8706C41.5698 18.007 41.2217 18.0221 40.8888 18.0676C40.4045 18.1433 40.0565 18.2191 39.996 18.4918C39.9506 18.4766 39.9203 18.2191 39.9203 18.2191C39.4966 18.4918 39.2998 18.9766 39.3301 19.4614Z" fill="#963636"/>
<path d="M38.4675 28.3089C38.5432 28.415 38.6491 28.4908 38.7702 28.5211C38.9064 28.5514 39.0728 28.521 39.1788 28.415C39.2847 28.3089 39.315 28.1423 39.2544 28.0059C39.1939 27.8696 39.0274 27.7938 38.8912 27.8544C38.8004 27.8847 38.7248 27.9756 38.6794 28.0514C38.6188 28.1271 38.5432 28.218 38.4675 28.3089Z" fill="#292924"/>
<path d="M38.2102 20.5976C37.9984 21.4763 37.7865 22.355 37.7865 23.264C37.7865 24.1579 38.0135 25.0972 38.5734 25.7941C38.9669 26.2789 39.5117 26.6728 39.7386 27.2485C39.8597 27.5515 39.8748 27.9151 39.7386 28.2181C39.6025 28.5211 39.3149 28.7635 38.982 28.7938C38.7247 28.8241 38.4524 28.7181 38.2708 28.5211" stroke="#E19B82" stroke-width="0.5" stroke-miterlimit="10" stroke-linecap="round" stroke-linejoin="round"/>
<path d="M35.2745 26.8244C34.987 27.0214 34.76 27.3092 34.6843 27.6425C34.5935 27.9758 34.654 28.3546 34.8356 28.6424C35.0323 28.9303 35.3653 29.1272 35.7133 29.1272C35.9857 29.1272 36.243 29.0212 36.47 28.8848C36.6516 28.7788 36.8332 28.6273 37.0602 28.6424C37.2115 28.6576 37.3477 28.7485 37.499 28.7788C37.7411 28.8394 37.9984 28.7485 38.1951 28.597C38.2708 28.5515 38.3313 28.4909 38.3918 28.4152" stroke="#E19B82" stroke-width="0.5" stroke-miterlimit="10" stroke-linecap="round" stroke-linejoin="round"/>
<path d="M37.1359 28.309C36.9997 28.2333 36.8332 28.2636 36.697 28.3393C36.5608 28.4151 36.4398 28.5211 36.3187 28.5969C36.1825 28.6726 36.016 28.7181 35.8798 28.6575C35.6982 28.5817 35.6226 28.3696 35.6831 28.1878C35.7285 28.006 35.895 27.8697 36.0614 27.7939C36.2582 27.7182 36.5003 27.7182 36.697 27.7939C36.8937 27.8848 37.0602 28.0515 37.1359 28.309Z" fill="#292924"/>
<path d="M33.4585 32.7631C33.9428 33.0358 34.427 33.1267 34.9869 33.0206C35.3804 32.9449 35.7284 32.7631 36.1068 32.6267C36.4851 32.5055 36.8937 32.4146 37.272 32.551C37.5746 32.657 37.847 32.8691 38.1648 32.8388C38.3767 32.8085 38.5583 32.657 38.7853 32.6419C39.0123 32.6267 39.209 32.7479 39.4057 32.854C39.6025 32.96 39.7538 33.0358 39.9505 32.9146C40.1624 32.5358 40.1624 32.0965 40.011 31.7329C39.8597 31.3541 39.5873 31.0511 39.2544 30.8239C39.0123 30.6421 38.6945 30.5057 38.407 30.6269C38.2405 30.7027 38.1043 30.8693 37.9227 30.8996C37.6352 30.9451 37.3931 30.6421 37.1055 30.5663C36.8483 30.4906 36.5607 30.6269 36.3338 30.7633C35.6679 31.142 35.0626 31.5814 34.5027 32.0965C34.1849 32.3692 33.8671 32.6873 33.4585 32.7631Z" fill="#DD3B75"/>
<path d="M33.4584 32.7629C33.8065 33.475 34.3815 34.0658 35.0625 34.4597C35.7435 34.8536 36.5304 35.0657 37.3325 35.0657C37.968 35.0657 38.6188 34.9294 39.1333 34.5506C39.6478 34.1719 39.9958 33.5507 39.9353 32.9144C39.7386 33.0356 39.5873 32.9599 39.3905 32.8538C39.1938 32.7478 38.9971 32.6266 38.7701 32.6417C38.5582 32.6569 38.3615 32.8084 38.1496 32.8387C37.8318 32.8841 37.5594 32.6569 37.2568 32.5508C36.8785 32.4296 36.4699 32.5054 36.0916 32.6266C35.7132 32.7478 35.3501 32.9296 34.9717 33.0205C34.4269 33.1265 33.9427 33.0356 33.4584 32.7629Z" fill="#FF5894"/>
<path d="M15.5716 61.9421H55.8251C55.6586 60.4271 54.8112 58.3061 54.2815 57.0638C53.7216 55.7609 52.9347 54.5338 51.8451 53.6399C50.2108 52.2915 48.0468 51.7916 45.9282 51.534C43.8247 51.2916 41.6758 51.2462 39.6329 50.6402C37.9683 50.1402 36.5912 48.9131 35.9405 47.3526C35.4562 46.2012 35.3654 44.9438 35.2746 43.7015C35.1536 41.9289 35.0174 40.1564 34.8963 38.3686C34.5937 38.308 34.291 38.2171 33.9883 38.1262C32.7172 37.7172 31.5217 37.096 30.3413 36.4597C28.2984 35.3538 26.1949 34.1266 24.7876 32.2935C24.9692 35.4447 24.4849 38.611 24.0158 41.7168C23.6829 43.8681 23.3348 46.08 22.0182 47.9435C23.1986 49.1403 23.4861 51.0038 23.0624 52.6249C22.6236 54.2459 21.5643 55.6246 20.3385 56.7608C19.5062 57.5183 18.5831 58.2152 18.0232 59.1848C17.6448 59.8363 17.4481 60.5938 16.9487 61.1543C16.6309 61.4725 16.1164 61.7603 15.5716 61.9421Z" fill="#FFC1AB"/>
<path d="M34.0641 51.1704C32.4297 48.3828 32.4297 44.9134 30.9618 42.0501C30.0841 40.3381 28.7222 38.9443 27.4661 37.4899C26.4371 36.3082 25.4232 35.0356 24.8179 33.5963C24.8179 33.157 24.8027 32.7176 24.7876 32.2934C26.195 34.1266 28.2833 35.3537 30.3414 36.4597C31.5217 37.096 32.7172 37.7171 33.9884 38.1262C34.2911 38.2171 34.5937 38.308 34.8964 38.3686C35.0174 40.1412 35.1536 41.9137 35.2747 43.7014C35.3655 44.9437 35.4563 46.2163 35.9405 47.3526C36.2583 48.0949 36.7274 48.7615 37.3328 49.3069L34.0641 51.1704Z" fill="#FFB49A"/>
<path d="M35.6076 55.473C36.3643 54.4125 37.696 53.958 38.9671 53.6702C40.2383 53.3823 41.57 53.2005 42.6595 52.4885C41.8726 53.549 40.7074 54.2762 39.4665 54.7307C38.2407 55.17 36.9242 55.3821 35.6076 55.473Z" fill="#FFB49A"/>
<path d="M24.3186 55.0336C25.5746 55.579 27.0122 55.3669 28.3742 55.2305C29.7361 55.0942 31.2494 55.1093 32.3239 55.9274C30.9316 55.9577 29.5848 56.3668 28.2077 56.4577C26.8306 56.5486 25.3022 56.2456 24.3186 55.0336Z" fill="#FFB49A"/>
<path d="M43.0378 61.942H55.8251C55.6586 60.427 54.8112 58.306 54.2815 57.0637C53.7216 55.7608 52.9347 54.5337 51.8451 53.6398C50.2108 52.2915 48.0468 51.7915 45.9282 51.534C45.0807 51.4279 44.2333 51.3673 43.3859 51.2915C43.3859 51.7158 43.3859 52.1551 43.3707 52.5793C43.2799 55.0185 43.1135 59.3059 43.0378 61.942Z" fill="#FFF6ED"/>
<path d="M45.9282 61.9421H55.8251C55.6586 60.4271 54.8112 58.3061 54.2815 57.0638C53.7216 55.7609 52.9347 54.5338 51.8451 53.6399C51.603 53.443 51.3609 53.2612 51.0885 53.0945C50.922 54.2005 50.347 55.2155 49.6811 56.1245C48.9548 57.1093 48.0922 57.988 47.3507 58.9727C46.7 59.8514 46.1249 60.8513 45.9282 61.9421Z" fill="#F5F5F5"/>
<path d="M45.0808 61.942C45.4289 60.6542 46.1401 59.5634 46.9271 58.609C47.7291 57.6545 48.6371 56.791 49.3483 55.7759C49.9688 54.8821 50.453 53.8367 50.4984 52.7611C49.1062 52.049 47.487 51.7157 45.9132 51.5339C45.6862 51.5036 45.444 51.4884 45.217 51.4581C45.0354 54.9427 44.99 58.4423 45.0808 61.942Z" fill="#F5F5F5"/>
<path d="M15.5715 61.9421H26.6034C25.302 59.2454 23.5768 56.1851 22.4116 54.1702C21.8819 55.1398 21.1404 56.0033 20.3081 56.7608C19.4758 57.5183 18.5527 58.2152 17.9928 59.1848C17.6145 59.8363 17.4177 60.5938 16.9184 61.1543C16.6308 61.4725 16.1163 61.7603 15.5715 61.9421Z" fill="#FFF6ED"/>
<path d="M16.8126 61.2604C17.2817 61.5634 17.8113 61.7906 18.3713 61.9421H23.7737C23.1835 59.7454 22.3209 57.7152 21.2465 55.8215C20.959 56.1548 20.6412 56.4578 20.3234 56.7608C19.4911 57.5183 18.568 58.2152 18.0081 59.1848C17.6297 59.8363 17.433 60.5938 16.9336 61.1543C16.8882 61.1846 16.858 61.2149 16.8126 61.2604Z" fill="#F5F5F5"/>
<path d="M35.417 0.115636C40.8947 -0.797316 43.7857 3.9196 44.5465 6.39218C43.2151 6.77258 40.3241 7.64749 39.4112 8.10396C38.27 8.67456 34.2758 10.9569 33.1346 11.5275C31.9934 12.0981 13.1638 21.7982 13.1638 21.2276C13.1638 20.6571 13.1638 19.5159 12.5932 17.8041C12.0226 16.0923 14.8756 10.3863 16.5873 9.81575C18.2991 9.24515 18.2991 8.67456 20.5815 3.5392C22.8639 -1.59615 28.5698 1.25683 35.417 0.115636Z" fill="#963636"/>
<path d="M23.1531 47.0921C27.5524 47.092 32.7728 48.4754 37.3362 47.0921C37.7708 47.0921 38.9008 47.3687 39.9438 48.4754C41.2476 49.8587 48.4187 49.167 53.634 51.242C57.8062 52.9019 59.7185 59.7723 60.1531 63H13.8674L15.1712 60.2334L21.0384 54.0085C24.2979 50.5503 20.1531 47.0921 23.1531 47.0921Z" fill="#2C2C2C"/>
</svg>
