<svg width="59" height="62" viewBox="0 0 59 62" fill="none" xmlns="http://www.w3.org/2000/svg">
<path d="M58.8049 67.0289V77.073H0V51.4474C0.354246 51.035 0.708493 50.5932 1.03322 50.1808C1.35794 49.7685 1.71219 49.1205 1.32842 48.767C1.21034 48.6492 1.06274 48.5903 0.974178 48.4725C0.826575 48.2663 0.944657 47.9423 1.1513 47.795C1.35794 47.6477 1.62363 47.6183 1.88931 47.5594C5.63842 46.9703 8.7676 44.4077 11.6606 41.963C13.9042 40.0778 16.1773 40.4019 19.0998 40.7553C26.5094 41.639 33.3287 45.1735 39.469 49.415C45.5797 53.6565 52.4285 57.1027 57.1222 62.9053C58.0374 64.0835 58.5097 65.5562 58.8049 67.0289Z" fill="#AD8F6B"/>
<path d="M56.5909 59.5768C55.1148 58.4281 54.8196 56.543 54.1997 54.8935C53.875 54.0688 53.4912 53.2441 52.8417 52.655C52.1923 52.007 51.3362 51.7713 50.4801 51.5651C49.624 51.3589 48.7974 51.0644 48.3251 50.2691C47.8823 49.5328 47.7937 48.6197 47.5871 47.7949C47.2033 46.2044 46.1701 44.9673 45.0188 43.8185C44.0446 42.8465 42.9228 41.8451 42.2734 40.608C41.9487 39.6949 41.742 38.7229 41.7125 37.7509C41.683 36.3665 41.9487 34.9821 41.8601 33.5977C41.7715 32.3312 41.3583 31.153 40.7678 30.0337C40.1479 28.8261 39.3509 27.6184 38.9671 26.293C38.9376 26.1751 38.7309 26.2046 38.7604 26.3519C39.0557 27.5595 39.587 28.6493 40.1184 29.7686C40.6498 30.8879 41.1811 32.0661 41.2992 33.3032C41.4468 34.717 41.1811 36.1308 41.2402 37.5447C41.2697 38.8112 41.5649 40.0778 42.0372 41.256C42.5686 42.5814 43.3656 43.7891 44.2513 44.9084C44.3693 45.0556 44.6055 44.8494 44.4874 44.7316C43.897 43.9364 43.3656 43.0527 42.9228 42.1691C43.3066 42.6993 43.7494 43.1705 44.1922 43.6418C45.255 44.7905 46.4653 45.9393 46.9967 47.4415C47.2919 48.2662 47.3804 49.1793 47.7052 50.004C47.8528 50.3869 48.0594 50.7699 48.3546 51.0644C48.6793 51.3884 49.0631 51.5946 49.4764 51.7419C50.303 52.0659 51.2476 52.1248 52.0152 52.596C52.7827 53.0673 53.255 53.8331 53.6093 54.6284C54.4063 56.3957 54.5835 58.8405 56.4137 59.9303C56.5318 60.0186 56.768 59.7241 56.5909 59.5768Z" fill="#554D44"/>
<path d="M39.1147 64.8787C39.6461 65.3499 40.0298 65.9685 40.7974 66.1158C41.3878 66.2336 42.0372 66.1158 42.6276 66.1452C43.3361 66.1747 44.0151 66.3514 44.5465 66.8816C44.7826 67.1172 45.0188 67.4118 45.255 67.6474C45.5502 67.942 45.9339 68.1481 46.3177 68.266C46.7605 68.4132 47.2033 68.4721 47.6461 68.5016C48.0889 68.531 48.5022 68.59 48.945 68.5605C49.8011 68.531 50.5982 68.2954 51.4543 68.1776C52.3694 68.0598 53.2846 68.1481 54.1997 68.1776C55.0853 68.207 56.0005 68.207 56.8861 68.0009C56.9156 67.942 56.9746 67.883 57.0632 67.883C57.506 67.9125 57.6831 67.2939 57.9488 67.0289C58.244 66.7638 58.5983 66.587 58.982 66.4398C59.0411 65.0848 58.9525 63.7299 58.7459 62.4045C58.6278 61.6681 58.4802 60.9023 58.0964 60.2543C57.0927 58.4575 54.8492 57.7212 53.3731 56.2779C53.1665 55.4826 52.9303 54.6873 52.517 53.951C52.1037 53.244 51.4543 52.6255 50.6572 52.4193C50.2439 52.3015 49.8307 52.3015 49.4174 52.2426C48.0594 51.948 46.8491 50.7698 46.9672 49.3855C47.0852 48.3545 46.5244 47.3825 45.993 46.4989C43.7789 42.9054 40.0298 39.4592 40.7383 35.3061C41.004 33.8334 40.8859 32.2723 40.4431 30.829C40.0594 29.6213 39.4099 28.4431 39.3804 27.1471C39.3509 25.5271 38.9966 22.9646 38.849 21.3445C35.0409 29.4151 31.1737 37.8392 31.2622 46.7345C31.3213 51.8008 32.6497 56.8081 34.7752 61.403C35.1589 62.2572 35.6018 63.1114 36.1626 63.8772C36.1922 63.9067 36.2217 63.9656 36.2512 63.995C36.6645 63.995 37.0778 63.995 37.4615 64.0539C38.1405 64.2012 38.6719 64.4663 39.1147 64.8787Z" fill="#554D44"/>
<path d="M39.4985 24.8792C39.469 25.3799 39.469 25.9101 39.4395 26.4108C39.4395 26.6759 39.41 26.9705 39.41 27.2356C39.3805 27.7657 39.3805 28.2959 39.1148 28.7672C38.8786 29.2385 38.3472 29.5919 37.8454 29.4447C37.5207 30.5345 36.9598 31.6832 36.2513 32.5669C36.0151 32.8614 35.6313 33.0676 35.1885 33.3032L35.0705 33.3916C35.0409 33.4211 35.0409 33.48 35.0114 33.5094C33.9487 35.5418 33.5944 37.7509 32.7974 39.9306C32.4726 40.8436 32.1184 41.7862 31.9118 42.7288C31.0557 46.2339 31.528 49.9746 32.7088 53.3914C32.7679 53.5681 32.8269 53.7448 32.8269 53.951C32.7974 54.0983 32.7383 54.2161 32.7088 54.3339C32.4726 54.8346 32.2365 55.3354 32.0298 55.8067C29.6387 52.2132 27.3656 48.5313 25.1811 44.7906C23.7346 42.2869 22.3176 39.6949 21.6386 36.8967C21.491 36.2193 21.3729 35.5123 21.3139 34.8054C21.2253 33.7156 21.2844 32.6258 21.3729 31.5654C21.4024 31.153 21.4615 30.7407 21.5205 30.3283C21.6386 29.3268 21.1368 28.3548 20.9301 27.3534C20.7235 26.4108 20.5463 25.4977 20.4578 24.5257C20.3102 22.9352 20.4873 21.3152 20.7235 19.754C21.0482 17.4271 21.5205 15.1002 22.2881 12.8911C22.4947 12.2725 22.7604 11.8013 23.3213 11.4478C24.7383 10.5347 26.3619 9.79834 28.0446 9.68053C29.0483 9.62162 30.0224 9.76889 30.9671 10.0634C32.1184 10.3874 33.2402 10.8882 34.3324 11.3889C35.6018 11.978 36.8712 12.5671 37.8454 13.5686C38.9967 14.7467 39.5871 16.3373 39.8823 17.9279C40.3546 20.2842 39.5871 22.4933 39.4985 24.8792Z" fill="#FFD5B5"/>
<path d="M37.9929 13.6863C37.5206 12.9794 36.7235 12.626 35.956 12.2725C35.277 11.9485 34.598 11.6834 33.8896 11.4183C32.5021 10.947 31.0261 10.6525 29.5796 10.5052C26.7751 10.2401 23.705 10.947 21.3433 12.5081C20.9596 12.7732 21.2548 13.3329 21.668 13.1267C24.1478 12.0074 26.8932 12.2136 29.5205 12.5965C30.7899 12.7732 32.0593 13.1267 33.2696 13.5685C33.86 13.7747 34.3324 13.9809 34.8932 14.2754C35.6017 14.6289 36.2217 15.1002 37.0187 15.218C37.8158 15.3063 38.4357 14.3049 37.9929 13.6863Z" fill="#F1C19D"/>
<path d="M35.218 33.2737C35.159 33.3326 35.0999 33.421 35.0409 33.4799C33.8896 34.7759 31.2327 36.4548 29.6681 36.7788C29.3139 36.8378 28.9301 36.8967 28.5759 36.985C28.1626 37.1029 27.7788 37.309 27.3951 37.4563C25.9486 38.0159 24.2659 38.0159 22.8194 37.3974C22.4356 37.2207 22.0518 37.0145 21.6386 36.8672C21.491 36.1898 21.3729 35.4828 21.3138 34.7759C21.2253 33.6861 21.2843 32.5963 21.3729 31.5359C22.0814 32.2723 22.9375 32.8614 23.7936 33.421C24.4135 33.8334 25.0629 34.2752 25.7714 34.5403C26.3618 34.7759 27.0113 34.9232 27.6607 35.0705C28.3692 35.2177 29.0777 35.365 29.8157 35.3945C30.6718 35.3945 31.5279 35.1883 32.325 34.8643C32.9154 34.5992 34.5686 33.6861 35.218 33.2737Z" fill="#F1C19D"/>
<path d="M35.8675 19.8719C35.4247 19.6951 34.9523 19.6068 34.5095 19.6068C33.5944 19.6068 32.5907 20.0486 31.8822 20.6377C31.7641 20.7555 32.1774 20.8733 32.2955 20.8439C32.6793 20.785 33.1811 20.785 33.5649 20.785C33.5649 20.785 33.5649 20.785 33.5649 20.8144C33.5649 20.8733 33.5944 20.9028 33.5944 20.9617C33.6239 20.9911 33.6534 21.05 33.683 21.0795C33.801 21.1973 33.9486 21.2562 34.1258 21.2857C34.3029 21.2857 34.5095 21.1973 34.5981 21.0206C34.6276 20.9617 34.6276 20.9028 34.6571 20.8439C35.2475 20.8733 35.838 20.9322 36.3988 21.109C36.5464 21.1679 36.694 21.05 36.7236 20.9028C36.9302 20.3726 36.2512 20.0191 35.8675 19.8719Z" fill="#303030"/>
<path d="M27.0113 20.4609C26.3619 19.7835 25.4763 19.106 24.4726 18.9882C23.9707 18.9293 23.5279 19.0765 23.1146 19.3416C22.7604 19.5478 22.3176 19.8424 22.2585 20.2547C22.229 20.3725 22.3176 20.4315 22.4357 20.4609C23.0556 20.4904 23.6755 20.402 24.2659 20.402C24.2659 20.4609 24.2954 20.5493 24.3545 20.6082C24.443 20.6965 24.5316 20.7849 24.6202 20.8438C24.8563 20.9616 25.1811 20.9616 25.4172 20.7849C25.4763 20.726 25.5353 20.6671 25.5353 20.6082C25.5648 20.6082 25.6239 20.6376 25.6534 20.6376C26.0076 20.6965 26.3914 20.7555 26.7457 20.7555C26.8342 20.7555 26.8637 20.726 26.8933 20.6671C27.0113 20.6376 27.0999 20.5493 27.0113 20.4609Z" fill="#303030"/>
<path d="M37.2845 17.3682C36.9598 16.9264 36.6055 16.4846 36.2217 16.1311C35.6608 15.9249 35.0409 15.8955 34.421 16.0133C33.7715 16.1311 33.0926 16.3078 32.4726 16.5729C32.4136 16.6024 32.3841 16.6318 32.325 16.6318C32.1184 16.8675 31.9413 17.1326 31.7641 17.3977C31.8527 17.2209 31.9413 17.0147 32.0593 16.838C32.0889 16.7791 32.0003 16.6907 31.9413 16.7496C31.7937 16.9853 31.6165 17.1915 31.4985 17.4271C31.4394 17.5449 31.3804 17.6627 31.3213 17.7806C31.2623 17.8984 31.2032 18.0457 31.2032 18.1635C31.2032 18.2224 31.2918 18.2813 31.3213 18.2224C31.3213 18.2224 31.3213 18.1929 31.3508 18.1929C31.8822 17.9278 32.5022 17.8689 33.0926 17.7806C33.742 17.6922 34.3915 17.6038 35.0704 17.6333C35.7494 17.6627 36.4284 17.7511 37.0778 17.9278C37.373 18.0162 37.6682 18.134 37.9339 18.2813C37.9339 18.2813 37.9635 18.2813 37.9635 18.3107C37.7273 18.0162 37.5206 17.6922 37.2845 17.3682Z" fill="#303030"/>
<path d="M37.993 17.7511C37.8158 17.4565 37.6092 17.1914 37.373 16.9264C37.1369 16.6613 36.9007 16.4256 36.635 16.2194C36.576 16.1605 36.4874 16.2783 36.5464 16.3373C36.7826 16.5729 37.0188 16.8085 37.2254 17.0736C37.4321 17.3387 37.6092 17.6038 37.8158 17.8984C37.8749 18.0162 38.052 17.8984 37.993 17.7511Z" fill="#303030"/>
<path d="M21.4319 17.162C21.7566 16.7201 22.1109 16.2783 22.5242 15.9249C23.0851 15.7187 23.7345 15.7187 24.3249 15.8071C24.9744 15.9249 25.6534 16.1016 26.2733 16.3667C26.3323 16.3961 26.3619 16.4256 26.4209 16.4256C26.6275 16.6612 26.8047 16.9263 26.9818 17.1914C26.8932 17.0147 26.8047 16.8085 26.6866 16.6318C26.6571 16.5729 26.7456 16.4845 26.8047 16.5729C26.9523 16.8085 27.0999 17.0147 27.2475 17.2503C27.3065 17.3682 27.3656 17.486 27.4246 17.6038C27.4836 17.7216 27.5132 17.8689 27.5427 17.9867C27.5427 18.0456 27.4541 18.1045 27.4246 18.0456C27.4246 18.0456 27.4246 18.0162 27.3951 18.0162C26.8637 17.7511 26.2438 17.6922 25.6534 17.6038C25.0039 17.5154 24.3545 17.4271 23.6755 17.4565C22.9965 17.486 22.3175 17.5743 21.6681 17.7511C21.3729 17.8394 21.0777 17.9572 20.812 18.1045C20.812 18.1045 20.7825 18.1045 20.7825 18.134C20.9596 17.81 21.1662 17.486 21.4319 17.162Z" fill="#303030"/>
<path d="M20.7234 17.5449C20.9005 17.2503 21.1072 16.9852 21.3433 16.7201C21.5795 16.4551 21.8157 16.2194 22.0814 16.0132C22.1404 15.9543 22.229 16.0721 22.1699 16.1311C21.9338 16.3667 21.6976 16.6023 21.4909 16.8674C21.2843 17.1325 21.1072 17.3976 20.9005 17.6627C20.8415 17.81 20.6348 17.6627 20.7234 17.5449Z" fill="#303030"/>
<path d="M28.6054 23.0824C28.5169 23.2591 28.4283 23.4064 28.4283 23.5831C28.3988 23.9366 28.6645 24.2017 28.9006 24.4373C28.9892 24.5257 29.0778 24.6141 29.1663 24.673C29.6387 24.9086 30.1996 24.4373 30.7309 24.5552C30.9671 24.6141 31.1147 24.7908 31.3213 24.9086C31.4985 25.0559 31.7641 25.1442 31.9708 25.0559C31.9117 25.321 31.8527 25.6155 31.6461 25.7628C31.4099 25.9395 31.0556 25.8806 30.7604 25.8806C30.1996 25.8512 29.6387 25.9101 29.1073 25.9395C28.5464 25.9395 27.956 25.8806 27.5132 25.5566C27.3065 25.4093 27.1294 25.2032 27.0704 24.9675C26.9818 24.5552 27.2475 24.1428 27.4541 23.7893C28.0446 22.729 28.1331 21.4624 28.1922 20.2253C28.2512 19.2533 28.2807 18.2518 28.0741 17.2798C28.1036 17.3682 28.5169 17.6333 28.6054 17.7511C28.7235 17.9278 28.8121 18.1046 28.8711 18.3107C29.0483 18.8115 29.1368 19.3417 29.1959 19.9013C29.2549 21.0206 29.0483 22.1104 28.6054 23.0824Z" fill="#F1C19D"/>
<path d="M33.122 29.3857C32.8563 29.1795 32.6202 28.9439 32.384 28.7083C32.0888 28.3843 31.7936 28.0897 31.4984 27.7657C31.2032 27.4712 30.8489 27.1177 30.4356 27.1766C30.2585 27.2061 30.1109 27.2944 29.9338 27.3533C29.3434 27.5595 29.0777 26.8232 28.4283 27.0293C28.1035 27.1177 27.8378 27.3533 27.5722 27.589C26.9817 28.0897 26.4209 28.5904 25.8304 29.0912C26.0371 29.5919 26.3028 30.2105 26.8046 30.4461C27.3065 30.6817 27.8969 30.505 28.4578 30.4461C28.7235 30.4166 28.9891 30.3872 29.2548 30.4166C29.7272 30.4461 30.2585 30.5934 30.7604 30.6228C31.2327 30.6817 31.7346 30.6523 32.1774 30.505C32.6792 30.3283 33.0039 29.857 33.122 29.3857Z" fill="#8F2C21"/>
<path d="M27.1295 29.0617C27.4247 28.9145 27.6903 28.7377 28.0151 28.6199C28.2217 28.561 28.4284 28.561 28.6055 28.5905C28.8712 28.6199 29.1073 28.7377 29.373 28.7377C29.5206 28.7377 29.6387 28.7083 29.7863 28.6788C30.1405 28.5905 30.4948 28.5316 30.849 28.6199C31.2033 28.7083 31.528 28.9439 31.8232 29.1796C32.1184 29.3857 32.5022 29.5919 32.8564 29.5625C32.7679 29.6508 32.6498 29.6803 32.5317 29.6803C32.4136 29.6803 32.2955 29.6214 32.207 29.5919C32.0594 29.533 31.9118 29.4741 31.7642 29.3857C31.5575 29.2679 31.3804 29.1501 31.1738 29.0912C30.6719 28.9145 30.1405 28.9734 29.6092 29.0912C29.314 29.1501 29.0188 29.209 28.7236 29.1501C28.4579 29.0912 28.1922 28.885 27.9265 28.9439C27.7494 28.9734 27.6018 29.0912 27.4247 29.209C27.218 29.3268 26.9818 29.4152 26.7457 29.3857C26.539 29.3857 26.2734 29.2974 26.1553 29.1207C26.5095 29.2385 26.8342 29.1796 27.1295 29.0617Z" fill="#303030"/>
<path d="M28.753 29.2679C28.7234 29.2385 28.6644 29.209 28.6054 29.209C28.5463 29.209 28.5168 29.209 28.4578 29.209C28.3987 29.209 28.3692 29.209 28.3102 29.209C28.2806 29.209 28.2511 29.209 28.2216 29.209C28.1921 29.209 28.1626 29.209 28.1626 29.2385C28.133 29.2385 28.074 29.2679 28.0445 29.2679C27.9854 29.2974 27.9264 29.3563 27.9264 29.4152C27.9264 29.4447 27.9264 29.4741 27.9559 29.5036C27.9854 29.533 28.015 29.5625 28.0445 29.5625C28.133 29.5919 28.2511 29.5919 28.3397 29.5919C28.3987 29.5919 28.4282 29.5919 28.4873 29.5919C28.5463 29.5919 28.6054 29.5919 28.6644 29.5625C28.7234 29.5625 28.753 29.5036 28.7825 29.4741C28.812 29.4447 28.812 29.3857 28.812 29.3563C28.7825 29.3563 28.7825 29.2974 28.753 29.2679Z" fill="#A63E30"/>
<path d="M31.2623 29.3858C31.1147 29.2974 30.908 29.2385 30.7604 29.209C30.5833 29.1796 30.4062 29.1501 30.1995 29.1501C30.0224 29.1501 29.8158 29.1796 29.6386 29.209C29.5501 29.2385 29.4615 29.2385 29.3729 29.268C29.2844 29.2974 29.1958 29.3269 29.1073 29.3563C28.9892 29.3858 29.0482 29.533 29.1368 29.533C29.2253 29.533 29.3139 29.592 29.4025 29.592C29.491 29.592 29.5796 29.6214 29.6386 29.6214C29.8158 29.6509 29.9929 29.6509 30.17 29.6509C30.3471 29.6509 30.5243 29.6214 30.6719 29.592C30.849 29.5625 30.9966 29.592 31.1737 29.5625C31.3213 29.6214 31.3508 29.4447 31.2623 29.3858Z" fill="#A63E30"/>
<path d="M29.7567 27.5596C29.6977 27.5301 29.6091 27.5007 29.55 27.5007C29.491 27.5007 29.432 27.5007 29.3729 27.5007C29.3434 27.5007 29.3139 27.5007 29.3139 27.5007H29.2844C29.2844 27.5007 29.2844 27.5007 29.2548 27.5007C29.2253 27.5007 29.2253 27.5007 29.1958 27.5007C29.1663 27.5007 29.1368 27.5007 29.1072 27.5007H29.0777C29.0482 27.5007 29.0482 27.5007 29.0187 27.4712C28.9301 27.4123 28.8416 27.5596 28.9301 27.6185L28.9596 27.6479L28.9892 27.6774C29.0187 27.7068 29.0187 27.7363 29.0482 27.7363C29.0777 27.7657 29.1072 27.7657 29.1072 27.7952C29.1663 27.8247 29.2253 27.8541 29.2548 27.8836C29.3434 27.913 29.4024 27.9425 29.491 27.9425C29.5796 27.9425 29.6681 27.913 29.7567 27.8836C29.8157 27.8541 29.8453 27.7657 29.8453 27.7068C29.8748 27.6185 29.8157 27.5596 29.7567 27.5596Z" fill="#A63E30"/>
<path d="M30.7013 27.5007C30.6718 27.4712 30.6422 27.4712 30.6127 27.4712C30.5832 27.4712 30.5537 27.4712 30.5242 27.4712C30.4946 27.4712 30.4946 27.4712 30.4651 27.4712L30.347 27.5007C30.3175 27.5007 30.288 27.5301 30.2585 27.5596C30.2585 27.5891 30.229 27.6185 30.2585 27.648C30.2585 27.6774 30.2585 27.7069 30.288 27.7069C30.3175 27.7363 30.347 27.7363 30.3766 27.7363C30.4061 27.7363 30.4651 27.7363 30.4946 27.7363C30.5242 27.7363 30.5242 27.7363 30.5537 27.7363C30.5832 27.7363 30.6127 27.7363 30.6422 27.7069C30.6718 27.7069 30.7013 27.6774 30.7308 27.648C30.7308 27.6185 30.7603 27.5891 30.7603 27.5596C30.7308 27.5596 30.7308 27.5301 30.7013 27.5007Z" fill="#A63E30"/>
<path d="M38.4062 24.2311C38.1996 25.1148 37.9634 25.9984 37.8453 26.9115C37.7568 27.589 37.8748 28.3842 37.8748 29.0617C38.2881 27.7952 38.9081 26.2046 39.0261 24.7024C39.0852 24.1133 38.9966 23.5242 38.9376 22.9351C38.849 22.2282 38.8195 21.4329 38.6424 20.726C38.6128 21.1089 38.6719 21.5213 38.6719 21.9042C38.6719 22.6995 38.5538 23.4653 38.4062 24.2311Z" fill="#554D44"/>
<path d="M39.7347 24.6141C39.6166 23.8777 39.4099 23.1708 39.1443 22.4933C39.0557 22.2577 38.731 22.3461 38.79 22.5817C38.9671 23.3475 39.0852 24.1722 39.1738 24.9675C39.2623 25.7628 39.3214 26.5581 39.2328 27.3534C39.0852 28.8556 38.2586 30.1221 37.6092 31.4476C37.4321 31.801 37.9339 32.0661 38.111 31.7421C38.7605 30.7407 39.3214 29.5919 39.6461 28.4137C40.0003 27.1472 39.9413 25.8512 39.7347 24.6141Z" fill="#554D44"/>
<path d="M39.4985 24.8792C39.469 25.3799 39.469 25.9101 39.4395 26.4108C39.0557 24.673 38.7014 22.9646 38.3177 21.2268C38.1996 20.6671 38.052 20.078 37.8749 19.5479C37.6682 18.9293 37.3435 18.3697 37.0188 17.81C36.4874 16.8675 35.956 15.9544 35.3656 15.0413C34.3324 13.4213 33.1221 11.9191 31.6756 10.6525C31.528 10.5347 31.1737 10.3285 30.9966 10.0929C32.1479 10.4169 33.2697 10.9176 34.3619 11.4183C35.6313 12.0074 36.9007 12.5965 37.8749 13.598C39.0262 14.7762 39.6166 16.3667 39.9118 17.9573C40.3546 20.2842 39.5871 22.4933 39.4985 24.8792Z" fill="#554D44"/>
<path d="M33.0039 56.8965C33.0039 56.4252 32.9744 55.954 32.9154 55.4827C32.8268 54.6285 32.6792 53.7743 32.3545 52.979C32.0297 52.1837 31.5574 51.4474 30.967 50.8288C30.3766 50.2103 29.6681 49.6801 29.0187 49.1205C28.3987 48.5608 27.8673 47.9423 27.6312 47.1175C27.395 46.2928 27.395 45.4092 27.3065 44.555C27.2474 43.7891 27.0998 43.0233 26.716 42.3164C26.3913 41.6979 25.9485 41.1677 25.5057 40.6375C24.9743 40.0484 24.4134 39.4888 23.8526 38.8997C23.3212 38.3106 22.8193 37.6626 22.5536 36.9262C22.5241 36.8967 22.4946 36.8673 22.4651 36.8673C21.8747 35.3945 21.609 33.8334 21.609 32.2723C22.0813 31.6538 22.5536 31.0058 22.9669 30.3283C23.4393 29.5625 23.9116 28.7672 24.2954 27.9425C24.7087 27.0883 25.0629 26.2047 25.1515 25.2621C25.24 24.1134 24.9743 23.0235 24.7382 21.9043C24.6496 21.2268 24.502 20.5199 24.4134 19.8424C24.3544 19.2828 24.3544 18.6937 24.4134 18.1341C24.6201 16.8675 25.1219 15.6599 25.8304 14.57C26.9817 12.7438 28.6349 11.3595 30.1109 9.82782C30.229 9.71 30.0519 9.53327 29.9338 9.65109C28.3397 10.9176 26.716 12.4493 25.5352 14.2166V14.1871C26.4208 12.4493 27.7197 10.9176 29.1958 9.62164C27.5426 9.23873 25.8009 9.32709 24.2658 10.0635C22.9079 10.7115 21.7861 11.7718 21.0186 13.0678C18.7455 15.1886 17.1219 18.1046 16.0591 21.0795C15.8525 21.6686 15.6458 22.2577 15.4687 22.8763C15.4392 22.8763 15.3802 22.8763 15.3802 22.9352C15.0259 24.349 14.4945 25.7039 13.9337 27.0588C13.4023 28.4138 12.8119 29.7392 12.2805 31.0941C11.7491 32.4196 11.2473 33.7745 10.8635 35.1589C10.4502 36.6316 10.2141 38.1633 10.0074 39.6949C9.88934 40.608 9.77125 41.4917 9.65317 42.4048C9.62365 42.6404 9.59413 42.876 9.53509 43.1411C9.41701 43.4357 9.32844 43.7597 9.21036 44.0542C9.00372 44.6433 8.73803 45.203 8.44283 45.7626C8.14762 46.3223 7.79338 46.8819 7.49817 47.4415C6.9668 48.5314 6.64208 49.739 6.52399 50.9466C6.34687 51.4474 6.22879 51.9481 6.22879 52.4783C6.19927 53.4503 6.46495 54.4223 6.93728 55.247C7.26201 55.8361 7.70481 56.3958 8.26571 56.8376C7.67529 57.7507 7.23249 58.7522 7.02584 59.8125C6.58303 61.8744 6.9668 64.1424 8.20666 65.8507C8.59043 66.3809 9.03324 66.8228 9.50557 67.2351C10.4502 67.2351 11.3654 67.2646 12.31 67.294C13.5204 67.3529 14.7307 67.4708 15.941 67.4708C16.7381 67.4708 17.4761 67.294 18.2436 67.0584C18.5979 66.97 18.9521 66.8228 19.3359 66.8817C19.6016 66.9406 19.8378 67.0878 20.0444 67.2646C21.55 68.2955 23.6164 68.0304 25.3286 67.8242C26.2437 67.7064 27.1884 67.7948 28.1035 67.7064C28.5758 67.6769 29.0187 67.5886 29.4615 67.4119C29.8747 67.2351 30.2585 66.9995 30.6423 66.8228C31.4689 66.4398 32.384 66.3809 33.2696 66.3515C33.801 65.3795 34.0962 64.2602 34.1552 63.1704C34.3323 61.0496 33.7124 58.9289 33.0039 56.8965ZM8.44283 49.8568C8.67899 48.9732 9.21036 48.2663 9.85982 47.6183C10.1255 47.3532 10.3912 47.0881 10.6569 46.823C10.8635 47.2943 11.1292 47.7361 11.4539 48.1484C11.1587 48.3841 10.834 48.6197 10.5093 48.8259C9.71221 49.3561 8.91516 49.8863 8.29523 50.5932C8.32475 50.3576 8.38379 50.1219 8.44283 49.8568ZM7.40961 51.4474C7.46865 50.8877 7.64577 50.3576 7.85242 49.8568C7.73434 50.387 7.67529 50.9172 7.73434 51.4474C7.64577 51.6241 7.55721 51.8008 7.49817 51.9776C7.43913 51.8008 7.40961 51.6241 7.40961 51.4474ZM8.85612 56.0423C8.67899 55.954 8.53139 55.8656 8.38379 55.7183C8.32475 55.6594 8.2657 55.6005 8.20666 55.5121C8.08858 55.3059 7.9705 55.0998 7.88194 54.8641C7.76386 54.5401 7.70481 54.1867 7.70481 53.8332C7.73434 53.8921 7.76386 53.951 7.79338 54.0099C8.14762 54.6285 8.61995 55.1587 9.15132 55.6005C9.06276 55.7772 8.94468 55.895 8.85612 56.0423ZM9.35797 55.4532C8.67899 54.7758 8.1181 53.951 7.79338 53.0379C7.8229 52.8612 7.88194 52.6845 7.94098 52.5077C8.14762 53.2441 8.56091 53.951 9.06276 54.5696C9.23988 54.7758 9.44653 54.9819 9.65317 55.1587C9.53509 55.247 9.44653 55.3354 9.35797 55.4532ZM12.3986 52.6845C11.8082 53.4208 11.0111 53.951 10.2731 54.5401C10.1845 54.6285 10.0665 54.7169 9.9779 54.8052C9.83029 54.6874 9.71221 54.5696 9.59413 54.4223C9.03324 53.8332 8.61995 53.0968 8.44283 52.3016C8.38379 52.0954 8.35427 51.8597 8.32475 51.6241C8.38379 51.5357 8.41331 51.4768 8.47235 51.3885C9.1218 50.4459 10.1255 49.8274 11.0406 49.1794C11.3358 48.9732 11.6015 48.767 11.8672 48.5608C12.31 49.0321 12.7823 49.4445 13.0185 50.0336C13.3432 50.9466 12.989 51.9776 12.3986 52.6845ZM12.5167 33.8629C11.8377 35.8364 11.0111 37.7509 10.4797 39.7538C10.6569 38.4284 10.834 37.1029 11.1882 35.8069C11.9263 33.0087 13.1366 30.3578 14.1698 27.6479C14.2584 27.4123 14.3174 27.2061 14.406 26.9705C13.8156 29.2974 13.2842 31.5949 12.5167 33.8629ZM24.2658 26.941C23.9411 27.7952 23.4688 28.6199 23.026 29.4152C22.6127 30.1221 22.1404 30.8291 21.6385 31.4771C21.6385 31.3298 21.668 31.1531 21.6976 31.0058C21.8452 30.7996 22.0223 30.5934 22.1699 30.3872C22.6717 29.6509 23.0555 28.8261 23.4393 28.0014C23.9706 26.8232 24.4725 25.5567 24.7086 24.2901C24.7382 25.2327 24.5906 26.1163 24.2658 26.941ZM26.0076 43.4357C25.3876 41.8451 24.3544 40.4608 23.4688 38.988C23.8526 39.4888 24.2954 39.96 24.7086 40.4018C25.7123 41.4622 26.6275 42.5815 26.8636 44.0542C27.0113 44.9084 26.9227 45.7921 27.0408 46.6463C27.0703 46.7641 27.0703 46.8819 27.0998 46.9997C26.716 45.8215 26.4799 44.5844 26.0076 43.4357ZM30.0814 51.1823C29.4024 50.387 28.5758 49.6801 27.9854 48.7965C27.9559 48.7375 27.9264 48.7081 27.8969 48.6492C27.9559 48.7375 28.0149 48.7964 28.074 48.8848C28.6054 49.5034 29.2843 49.9746 29.9043 50.5048C30.5832 51.0939 31.2032 51.7125 31.6165 52.5077C32.0593 53.3325 32.2954 54.275 32.4135 55.1881C32.4135 55.247 32.4135 55.2765 32.4135 55.3354C31.8231 53.8332 31.1146 52.3899 30.0814 51.1823Z" fill="#554D44"/>
<path d="M33.683 3.31825C33.8601 2.6997 33.9486 2.02224 33.9191 1.37424C33.8896 0.84405 33.742 0.2255 33.2697 0.0487717C32.9449 -0.0690473 32.5907 0.0487717 32.266 0.166591C32.1479 0.2255 32.0593 0.254955 31.9708 0.343319C31.8232 0.549502 31.9708 0.814595 32.0888 1.05023C32.5907 2.02224 32.5021 3.25934 31.8822 4.17244C31.8822 4.17244 32.8564 4.40807 33.0335 4.31971C33.4173 4.17244 33.5944 3.64225 33.683 3.31825Z" fill="#554D44"/>
<path d="M44.6351 22.1104C44.7236 21.9631 44.7827 21.7864 44.8712 21.6391C45.1369 21.0205 45.314 20.3431 45.4321 19.6656C45.6388 18.3991 45.5207 17.1325 45.3436 15.866C45.1664 14.6878 44.9303 13.5096 44.5465 12.3903C44.4284 12.0368 44.2808 11.6834 44.1332 11.3594C43.838 10.8881 43.5428 10.4168 43.2181 9.97501C42.3029 8.76737 41.2402 7.73645 40.148 6.67608C39.6166 6.17535 39.0557 5.61571 38.3472 5.40952C35.956 4.70261 33.6534 3.28878 31.2032 3.17096C28.7235 3.02369 26.2733 3.34769 23.8231 3.78951C23.1146 3.90733 22.4061 4.02515 21.7271 4.26079C19.6312 4.90879 17.9485 6.38153 16.502 8.031C15.6164 9.03246 14.8193 10.1517 14.1108 11.3005C13.8156 12.3608 13.668 13.4801 13.6385 14.5994C13.5795 16.2783 13.7861 18.0162 14.347 19.6656C14.7898 20.5198 15.2621 21.374 15.6754 22.2282C16.2068 20.4314 17.2105 18.8409 18.1847 17.2798C18.6275 16.5729 19.0408 15.8954 19.5721 15.2769C21.1367 13.3623 23.3803 12.0368 25.8305 11.595C28.2512 11.1827 30.8195 11.6245 33.0335 12.8027C33.7715 13.215 34.4505 13.6863 35.159 14.1281C35.6313 14.4227 36.1332 14.7467 36.5169 15.159C36.9597 15.6303 37.2254 16.2194 37.4616 16.8085C38.79 19.9602 39.7347 23.4947 39.7642 26.9115C39.7642 27.4711 39.469 28.2959 39.9118 28.6493C40.0003 28.0897 40.5022 27.4122 40.945 27.1177C41.3878 26.8231 41.8601 26.5875 42.2439 26.234C43.2476 25.2915 43.3952 23.7009 44.1923 22.5816C44.3694 22.4049 44.517 22.2576 44.6351 22.1104Z" fill="#DCCCB4"/>
<path fill-rule="evenodd" clip-rule="evenodd" d="M15.5573 11.3889C15.5573 11.33 15.5868 11.2711 15.5868 11.1827C15.6164 11.0649 15.5573 10.9471 15.4392 10.9176C15.3507 10.8882 15.2326 10.9471 15.1736 11.0354C15.085 11.0354 14.9964 11.0943 14.9669 11.1827C14.9374 11.33 14.9079 11.5067 14.8488 11.654C14.8193 11.6834 14.8193 11.7129 14.7898 11.7424C14.7603 11.8602 14.7307 12.0074 14.6717 12.1253C14.6422 12.2431 14.7012 12.3609 14.8193 12.3904C14.9374 12.4198 14.9964 12.3609 15.0555 12.2725C15.085 12.3314 15.144 12.3609 15.2031 12.3904C15.3212 12.3904 15.4097 12.3314 15.4392 12.2431C15.4983 12.0369 15.5573 11.8602 15.5868 11.654C15.7049 11.5362 15.6459 11.4184 15.5573 11.3889Z" fill="#F0EAE3"/>
<path fill-rule="evenodd" clip-rule="evenodd" d="M19.0112 7.91322C19.0112 7.82485 18.9227 7.73649 18.8636 7.70704C18.8341 7.70704 18.8046 7.70704 18.7751 7.70704C18.7455 7.64813 18.716 7.61867 18.657 7.58922C18.5389 7.55976 18.4208 7.61867 18.4208 7.73649C18.4208 7.76595 18.4208 7.76595 18.4208 7.7954C18.3618 7.7954 18.3027 7.85431 18.2732 7.94267C18.1847 8.17831 18.1551 8.4434 18.1847 8.67904C18.1847 8.76741 18.2437 8.82632 18.3027 8.85577C18.3323 8.88523 18.3618 8.94413 18.4208 8.94413C18.5094 8.97359 18.5979 8.97359 18.657 8.91468C18.716 8.85577 18.7455 8.79686 18.8046 8.73795C18.8931 8.7085 18.9817 8.62013 18.9817 8.53177C18.9817 8.50231 18.9817 8.47286 18.9817 8.47286C18.9522 8.29613 18.9817 8.08995 19.0112 7.91322Z" fill="#F0EAE3"/>
<path fill-rule="evenodd" clip-rule="evenodd" d="M18.2731 11.5362C18.2731 11.4478 18.2731 11.3595 18.2731 11.2711C18.2731 11.1533 18.1846 11.0649 18.096 11.0649C17.9779 11.0649 17.8894 11.1238 17.8598 11.2122C17.8598 11.2416 17.8303 11.2711 17.8303 11.3005C17.8303 11.3005 17.8303 11.3005 17.8008 11.3005C17.7122 11.2711 17.5942 11.33 17.5646 11.4478C17.5056 11.8013 17.4761 12.1253 17.5351 12.4787C17.5646 12.626 17.7713 12.6849 17.8894 12.5671C17.9484 12.5082 18.0074 12.4198 18.037 12.3609C18.0665 12.3315 18.096 12.302 18.1255 12.2726C18.2141 12.2431 18.3026 12.1547 18.3026 12.0664C18.3026 11.9191 18.3026 11.7718 18.3026 11.6246C18.2731 11.5656 18.2731 11.5656 18.2731 11.5362Z" fill="#F0EAE3"/>
<path fill-rule="evenodd" clip-rule="evenodd" d="M16.3248 15.9544C16.3248 15.8366 16.2363 15.7482 16.1182 15.7188C16.0887 15.7188 16.0887 15.7188 16.0591 15.7188V15.6893C16.0296 15.6599 16.0001 15.601 15.9411 15.601C15.8525 15.5715 15.7049 15.601 15.6754 15.6893C15.6754 15.7188 15.6458 15.7482 15.6458 15.7777C15.6163 15.8071 15.5868 15.8366 15.5573 15.8955C15.4687 16.1311 15.4392 16.3962 15.4982 16.6613C15.4982 16.7497 15.5868 16.8086 15.6754 16.8086C15.7639 16.8086 15.8525 16.7791 15.882 16.7202C15.9115 16.6613 15.9411 16.6024 15.9411 16.573C16.0001 16.573 16.0296 16.5435 16.0591 16.514C16.2067 16.3373 16.2953 16.1606 16.3248 15.9544Z" fill="#F0EAE3"/>
<path fill-rule="evenodd" clip-rule="evenodd" d="M22.1699 11.2711C22.1699 11.2416 22.1994 11.1827 22.1994 11.1533C22.1994 11.0649 22.1108 10.9471 22.0223 10.9176C21.9928 10.9176 21.9632 10.9176 21.9337 10.9176C21.9042 10.8882 21.8747 10.8882 21.8452 10.8882C21.7271 10.8587 21.609 10.9176 21.5499 11.0649C21.4614 11.3889 21.4319 11.7129 21.4614 12.0369C21.4614 12.1253 21.5204 12.2431 21.6385 12.2725C21.7271 12.302 21.8452 12.2431 21.9042 12.1547C21.9632 12.1253 22.0223 12.0958 22.0518 12.0369C22.1404 11.8896 22.2289 11.7424 22.2584 11.5656C22.288 11.4184 22.2289 11.33 22.1699 11.2711Z" fill="#F0EAE3"/>
<path fill-rule="evenodd" clip-rule="evenodd" d="M22.7603 6.4405C22.7307 6.4405 22.7307 6.4405 22.7603 6.4405C22.7307 6.38159 22.7012 6.35213 22.6422 6.32268C22.6127 6.29322 22.5831 6.29322 22.5241 6.29322C22.5241 6.23431 22.4651 6.1754 22.4355 6.1754C22.347 6.1165 22.1994 6.14595 22.1403 6.26377C21.9927 6.58777 21.9632 6.94123 22.0518 7.26523C22.0813 7.3536 22.1403 7.4125 22.1994 7.4125C22.2879 7.44196 22.347 7.4125 22.406 7.35359C22.5536 7.23578 22.6422 7.0885 22.7012 6.91177C22.7307 6.85286 22.7603 6.82341 22.7898 6.7645C22.8783 6.64668 22.8488 6.49941 22.7603 6.4405Z" fill="#F0EAE3"/>
<path fill-rule="evenodd" clip-rule="evenodd" d="M27.6016 5.05612C27.5721 5.05612 27.5425 5.05612 27.5425 5.05612C27.5425 5.02666 27.5425 5.02666 27.5425 4.99721C27.5721 4.87939 27.513 4.79102 27.4245 4.73211C27.3359 4.70266 27.2178 4.73211 27.1588 4.82048C27.0702 4.82048 26.9816 4.87939 26.9521 4.96775C26.834 5.2623 26.775 5.5863 26.7455 5.9103C26.7455 5.99867 26.834 6.08703 26.8931 6.11649C26.9816 6.14594 27.0702 6.08703 27.1293 6.02812C27.1588 5.99867 27.1588 5.96921 27.1883 5.93976C27.2178 5.93976 27.2769 5.93976 27.3064 5.9103C27.3949 5.8514 27.513 5.79249 27.5721 5.70412C27.6606 5.5863 27.7492 5.46848 27.7492 5.32121C27.7787 5.17394 27.6901 5.05612 27.6016 5.05612Z" fill="#F0EAE3"/>
<path fill-rule="evenodd" clip-rule="evenodd" d="M26.0076 8.47286C25.9781 8.41395 25.9485 8.38449 25.919 8.35504C25.8895 8.32558 25.86 8.32558 25.8305 8.32558C25.8305 8.29613 25.8305 8.26667 25.8305 8.23722V8.20776C25.86 8.08994 25.8009 8.00158 25.6828 7.94267C25.5943 7.91322 25.4467 7.94267 25.4172 8.03104C25.3876 8.08994 25.3581 8.17831 25.3581 8.23722C25.3286 8.26667 25.2696 8.26667 25.2696 8.32558C25.181 8.53177 25.122 8.73795 25.1515 8.97359C25.1515 9.06195 25.2105 9.15032 25.2991 9.17977C25.3876 9.20923 25.4762 9.15032 25.5352 9.09141C25.5352 9.06195 25.5648 9.06195 25.5648 9.0325C25.6238 9.0325 25.6828 9.00304 25.7419 8.97359C25.8305 8.88522 25.919 8.7674 26.0076 8.64958C26.0076 8.59068 26.0076 8.50231 26.0076 8.47286Z" fill="#F0EAE3"/>
<path fill-rule="evenodd" clip-rule="evenodd" d="M28.8415 9.41541C28.8415 9.3565 28.812 9.32704 28.812 9.26813C28.7825 9.15032 28.6939 9.06195 28.5758 9.09141C28.5758 8.97359 28.4873 8.88522 28.3692 8.88522C28.2511 8.88522 28.1625 8.94413 28.133 9.06195C28.133 9.09141 28.1035 9.12086 28.1035 9.17977C28.0445 9.20923 27.9854 9.23868 27.9559 9.32704C27.9264 9.53323 27.8969 9.70996 27.8969 9.91614C27.8969 10.0045 27.9854 10.0929 28.074 10.1223C28.1035 10.1518 28.133 10.1812 28.1625 10.1812C28.2511 10.2107 28.3692 10.2107 28.4282 10.1223C28.5463 10.0045 28.6349 9.88668 28.6939 9.73941C28.812 9.6805 28.9005 9.53323 28.8415 9.41541Z" fill="#F0EAE3"/>
<path fill-rule="evenodd" clip-rule="evenodd" d="M31.2622 7.35357C31.2326 7.29466 31.2031 7.2652 31.1441 7.23575V7.20629C31.1736 7.14739 31.1441 7.08848 31.1146 7.02957C31.085 6.97066 31.0555 6.9412 30.9965 6.9412H30.967C30.9374 6.88229 30.9079 6.85284 30.8489 6.85284C30.7308 6.82338 30.5832 6.88229 30.5537 7.02957C30.4946 7.29466 30.4946 7.5303 30.5242 7.79539C30.5242 7.82484 30.5537 7.82484 30.5537 7.8543C30.5832 7.88375 30.5832 7.91321 30.6127 7.91321C30.6422 7.94266 30.7013 7.97212 30.7603 7.97212C30.8784 7.97212 30.967 7.91321 30.9965 7.79539V7.76593C31.0555 7.73648 31.1146 7.73648 31.1441 7.70703C31.2031 7.67757 31.2326 7.61866 31.2622 7.55975C31.2917 7.44193 31.2917 7.38302 31.2622 7.35357Z" fill="#F0EAE3"/>
<path fill-rule="evenodd" clip-rule="evenodd" d="M35.336 6.2638C35.3065 6.20489 35.277 6.14598 35.218 6.11652C35.1884 6.08707 35.1294 6.08707 35.0999 6.08707C35.0704 6.05761 35.0408 6.05761 34.9818 6.05761C34.9523 6.05761 34.9227 6.05761 34.8932 6.08707C34.8637 6.05761 34.8637 6.05761 34.8342 6.02816C34.7751 5.9987 34.7161 5.9987 34.6571 5.9987C34.598 6.02816 34.539 6.05761 34.5095 6.11652C34.3323 6.35216 34.2438 6.64671 34.2438 6.94126C34.2438 7.11798 34.4504 7.2358 34.598 7.14744C34.6866 7.08853 34.7456 7.02962 34.8047 6.97071C34.8047 6.97071 34.8342 6.97071 34.8342 7.00016C34.9227 7.02962 35.0703 7.00016 35.1294 6.9118C35.1884 6.76453 35.277 6.61725 35.336 6.46998C35.336 6.38161 35.3656 6.35216 35.336 6.2638Z" fill="#F0EAE3"/>
<path fill-rule="evenodd" clip-rule="evenodd" d="M34.6275 9.85723C34.598 9.79832 34.5685 9.73941 34.5094 9.70996V9.6805C34.5094 9.65105 34.5094 9.65105 34.5094 9.62159C34.5094 9.56268 34.4799 9.53323 34.4209 9.50377C34.3914 9.47432 34.3618 9.47432 34.3323 9.47432C34.3028 9.47432 34.2438 9.47432 34.1847 9.50377C34.1552 9.53323 34.1257 9.53323 34.1257 9.53323C34.0961 9.56268 34.0666 9.59214 34.0076 9.62159C33.9781 9.65105 33.9485 9.6805 33.919 9.73941H33.8895C33.8305 9.73941 33.7714 9.76887 33.7419 9.79832C33.7124 9.82778 33.6829 9.88669 33.6829 9.9456C33.6829 10.034 33.6829 10.1223 33.7124 10.1812C33.7124 10.2401 33.7419 10.2696 33.7714 10.2991V10.3285C33.8305 10.3874 33.8895 10.4169 33.9781 10.4169C34.0371 10.4169 34.0962 10.4169 34.1847 10.3874C34.2142 10.3874 34.2438 10.3874 34.2438 10.358C34.2733 10.3285 34.3323 10.3285 34.3618 10.2991C34.3914 10.2696 34.4209 10.2401 34.4504 10.2107C34.4799 10.2107 34.4799 10.1812 34.5094 10.1518C34.539 10.0929 34.598 10.034 34.6275 9.97505C34.657 10.0045 34.657 9.9456 34.6275 9.85723Z" fill="#F0EAE3"/>
<path fill-rule="evenodd" clip-rule="evenodd" d="M38.6718 11.595C38.6423 11.5656 38.6128 11.5656 38.6128 11.5656C38.7013 11.4772 38.7013 11.3594 38.6423 11.271C38.5832 11.1827 38.4356 11.1238 38.3471 11.2121C38.3176 11.2121 38.3176 11.2416 38.288 11.2416C38.2585 11.271 38.229 11.271 38.1995 11.3005C38.17 11.33 38.1404 11.3594 38.1109 11.3889C38.0814 11.4183 38.0519 11.4478 38.0224 11.5067L37.9928 11.5361C37.9338 11.5067 37.8748 11.5067 37.8157 11.5361C37.6681 11.595 37.55 11.7129 37.4615 11.8601C37.3729 11.978 37.4319 12.1547 37.55 12.2136C37.55 12.302 37.55 12.3903 37.6091 12.4198C37.6976 12.5081 37.8157 12.5081 37.9338 12.4492C38.229 12.3314 38.4652 12.1252 38.7013 11.9191C38.7604 11.8601 38.7604 11.6834 38.6718 11.595Z" fill="#F0EAE3"/>
<path fill-rule="evenodd" clip-rule="evenodd" d="M40.325 7.97217C40.2954 7.91326 40.2659 7.85435 40.2069 7.82489C40.1774 7.79544 40.1478 7.79544 40.1183 7.79544C40.0593 7.70707 39.9707 7.67762 39.8526 7.70707C39.8231 7.67762 39.7936 7.64816 39.7346 7.64816C39.6755 7.64816 39.6165 7.64816 39.5574 7.67762C39.4689 7.73653 39.3508 7.82489 39.2917 7.94271C39.2622 8.03107 39.2327 8.11944 39.2622 8.2078C39.2622 8.26671 39.3213 8.35508 39.3508 8.38453C39.4098 8.44344 39.4984 8.4729 39.587 8.50235C39.705 8.50235 39.7936 8.44344 39.8526 8.38453L39.8822 8.35508C39.9707 8.35508 40.0298 8.35508 40.1183 8.32562C40.1774 8.29617 40.2364 8.26671 40.2659 8.2078C40.325 8.08998 40.3545 8.03107 40.325 7.97217Z" fill="#F0EAE3"/>
<path fill-rule="evenodd" clip-rule="evenodd" d="M42.8638 12.3904C42.8343 12.3315 42.8048 12.2726 42.7753 12.2431C42.7753 12.2136 42.7753 12.1547 42.7457 12.1253C42.7162 12.0664 42.6572 12.0369 42.5981 12.0075C42.5391 12.0075 42.4801 12.0075 42.421 12.0369C42.2144 12.1842 42.0373 12.3609 41.9192 12.5671C41.8897 12.626 41.8896 12.6555 41.8896 12.7144C41.8896 12.7733 41.9192 12.8322 41.9487 12.8616C42.0077 12.9206 42.0668 12.95 42.1258 12.95C42.1849 12.9795 42.2439 12.95 42.3325 12.95C42.3915 12.95 42.421 12.9206 42.4801 12.8911C42.5096 12.8911 42.5391 12.8616 42.5686 12.8322C42.6572 12.7733 42.7457 12.7144 42.8048 12.626C42.8638 12.5671 42.8933 12.4787 42.8638 12.3904Z" fill="#F0EAE3"/>
<path fill-rule="evenodd" clip-rule="evenodd" d="M39.469 15.1002C39.4985 15.0708 39.4985 15.0413 39.4985 14.9824C39.4985 14.9235 39.469 14.8646 39.4395 14.8057C39.3509 14.7173 39.2033 14.7173 39.1147 14.8057C39.0557 14.8646 38.9966 14.9235 38.9376 14.9824C38.849 14.9529 38.7605 14.9824 38.7014 15.0413C38.6129 15.1297 38.5538 15.218 38.4948 15.3064C38.4357 15.4242 38.4062 15.542 38.3767 15.6599C38.3767 15.7482 38.4357 15.8071 38.4948 15.8366C38.5538 15.866 38.6424 15.866 38.7014 15.8366C38.7605 15.7777 38.8195 15.7188 38.8786 15.6893C38.9966 15.7482 39.1442 15.7482 39.2328 15.6304C39.3214 15.542 39.3214 15.4242 39.2623 15.3064C39.3214 15.2769 39.4099 15.1886 39.469 15.1002Z" fill="#F0EAE3"/>
<path fill-rule="evenodd" clip-rule="evenodd" d="M42.6277 16.4551C42.5686 16.4256 42.5096 16.3962 42.421 16.3962C42.3915 16.3667 42.362 16.3667 42.3325 16.3667C42.3029 16.3667 42.3029 16.3667 42.2734 16.3667C42.2439 16.3373 42.1849 16.3078 42.1258 16.3078C41.9782 16.3078 41.8306 16.3667 41.7125 16.4845C41.5944 16.6024 41.5354 16.7202 41.5354 16.8969C41.5354 16.9558 41.5649 17.0147 41.5944 17.0736C41.6535 17.1031 41.683 17.1325 41.7716 17.1325H41.8011C41.8306 17.162 41.8896 17.1915 41.9487 17.1915C42.0077 17.1915 42.0668 17.162 42.0963 17.162C42.1258 17.1915 42.1553 17.2209 42.1849 17.2209C42.2734 17.2798 42.362 17.2798 42.4505 17.2209C42.5391 17.162 42.5981 17.0736 42.5981 16.9853C42.6277 16.9264 42.6867 16.8675 42.7162 16.7791C42.7457 16.6907 42.7162 16.5435 42.6277 16.4551Z" fill="#F0EAE3"/>
<path fill-rule="evenodd" clip-rule="evenodd" d="M44.8712 18.5758C44.8417 18.5169 44.8417 18.4875 44.7826 18.458C44.7531 18.4286 44.7531 18.3991 44.694 18.3696C44.6645 18.3402 44.6055 18.3107 44.5464 18.3107C44.5169 18.3107 44.5169 18.3107 44.4874 18.3107C44.4579 18.2813 44.4284 18.2518 44.3988 18.2224C44.3398 18.1929 44.2808 18.1929 44.2217 18.1929C44.1627 18.2224 44.1036 18.2518 44.0741 18.3107C44.0151 18.4286 43.9265 18.5464 43.8675 18.6936C43.838 18.7526 43.838 18.8409 43.8675 18.8998C43.897 18.9587 43.956 19.0471 44.0446 19.0471C44.0741 19.0471 44.1332 19.0471 44.1627 19.0471C44.1922 19.0471 44.2512 19.0471 44.2808 19.0471C44.3398 19.0471 44.3693 19.0177 44.4284 18.9882C44.4284 18.9882 44.4284 18.9882 44.4579 18.9882C44.5464 18.9882 44.576 18.9587 44.6645 18.9293C44.6941 18.8998 44.7531 18.8704 44.7826 18.8409C44.8121 18.8115 44.8417 18.782 44.8712 18.7231C44.8712 18.7231 44.8712 18.6347 44.8712 18.5758Z" fill="#F0EAE3"/>
<path fill-rule="evenodd" clip-rule="evenodd" d="M40.9449 20.4315C40.8859 20.3431 40.7383 20.3137 40.6497 20.3726C40.5612 20.3431 40.4726 20.3431 40.3841 20.402C40.1774 20.5788 40.0298 20.7849 39.9117 21.0206C39.8822 21.109 39.8822 21.2268 39.9412 21.3151C40.0298 21.374 40.1184 21.4035 40.2365 21.3446C40.325 21.2857 40.4431 21.2268 40.5317 21.1679C40.5612 21.1679 40.5907 21.1679 40.6202 21.1679C40.7088 21.1679 40.7973 21.0795 40.8269 20.9911C40.8269 20.9617 40.8269 20.9028 40.8564 20.8733V20.9028C40.8564 20.8733 40.8564 20.8733 40.8564 20.8439C40.8859 20.8144 40.9154 20.7849 40.9449 20.7555C40.9449 20.7849 40.9154 20.7849 40.9154 20.8144C40.9449 20.7849 40.9449 20.7849 40.9745 20.7555C41.004 20.6966 41.063 20.6377 41.0335 20.5788C40.9745 20.5199 40.9745 20.4609 40.9449 20.4315Z" fill="#F0EAE3"/>
<path fill-rule="evenodd" clip-rule="evenodd" d="M43.1294 22.0515C43.1294 22.022 43.0999 21.9926 43.0999 21.9631L43.0704 21.9337C43.0704 21.9042 43.0408 21.8453 43.0113 21.8159C42.9818 21.7864 42.9523 21.757 42.8932 21.757C42.8637 21.757 42.8637 21.757 42.8342 21.757C42.8047 21.7275 42.7456 21.698 42.6866 21.698C42.6276 21.698 42.5685 21.7275 42.539 21.757C42.48 21.8159 42.4504 21.8748 42.3914 21.9337C42.3619 21.9631 42.3619 21.9631 42.3324 21.9926C42.3028 22.022 42.2733 22.0515 42.2733 22.1104C42.2733 22.1399 42.2733 22.1693 42.2733 22.1988C42.2733 22.2577 42.2733 22.2871 42.3028 22.3166C42.3324 22.3755 42.3914 22.405 42.4504 22.4344C42.48 22.4639 42.539 22.4639 42.5685 22.4639C42.6276 22.4933 42.6866 22.5228 42.7456 22.5228C42.8342 22.5228 42.8637 22.4933 42.9523 22.4639C42.9818 22.4344 43.0408 22.405 43.0704 22.3755C43.0999 22.346 43.0999 22.3166 43.1294 22.2871C43.1294 22.2871 43.1294 22.2577 43.1589 22.2577C43.1589 22.2282 43.1885 22.1988 43.1885 22.1693C43.1885 22.1399 43.1885 22.1104 43.218 22.081C43.1294 22.081 43.1294 22.0515 43.1294 22.0515Z" fill="#F0EAE3"/>
<path fill-rule="evenodd" clip-rule="evenodd" d="M41.4173 25.2326C41.3877 25.2032 41.3287 25.1737 41.2697 25.1737C41.2106 25.0854 41.0925 25.0264 40.9745 25.0854C40.9154 25.1148 40.8564 25.2032 40.7973 25.2621C40.7973 25.2915 40.7678 25.2915 40.7678 25.321C40.7088 25.3799 40.6497 25.4683 40.5907 25.5272C40.5316 25.5861 40.5021 25.7334 40.5907 25.7923C40.6202 25.8217 40.6792 25.8512 40.7383 25.8512C40.7973 25.8512 40.8268 25.8217 40.8859 25.7923C40.9154 25.7628 40.9154 25.7628 40.9449 25.7334C41.004 25.7334 41.0925 25.7334 41.1516 25.7039C41.1811 25.7039 41.2401 25.6745 41.2697 25.645C41.2992 25.6155 41.3582 25.5861 41.3877 25.5566C41.4468 25.5272 41.4468 25.4388 41.4468 25.3799C41.4763 25.3505 41.4468 25.2915 41.4173 25.2326Z" fill="#F0EAE3"/>
<path fill-rule="evenodd" clip-rule="evenodd" d="M16.2063 19.6362V19.6653C16.1773 19.6653 16.1773 19.6653 16.2063 19.6362C16.1773 19.6653 16.1773 19.6362 16.2063 19.6362Z" fill="#F0EAE3"/>
<path fill-rule="evenodd" clip-rule="evenodd" d="M16.2362 19.4889C16.2658 19.43 16.2658 19.3711 16.2658 19.3122C16.2658 19.2827 16.2362 19.2827 16.2362 19.2533C16.2067 19.2238 16.2067 19.1944 16.1772 19.1944C16.1477 19.1649 16.0886 19.1355 16.0296 19.1355C15.9706 19.1355 15.9115 19.1649 15.8525 19.1944C15.7934 19.2533 15.7639 19.3122 15.7344 19.4006C15.7049 19.4006 15.6754 19.43 15.6754 19.4595C15.6754 19.4889 15.6458 19.4889 15.6458 19.5184C15.6163 19.5478 15.6163 19.6067 15.6163 19.6362C15.6163 19.6951 15.5868 19.754 15.5868 19.8424C15.5868 19.8718 15.5868 19.8718 15.5868 19.9013C15.5868 19.9307 15.6163 19.9602 15.6163 19.9897C15.6458 20.0191 15.7049 20.078 15.7344 20.078C15.7639 20.078 15.823 20.078 15.8525 20.078C15.9115 20.078 15.9706 20.0191 16.0001 19.9602C16.0001 19.9602 16.0001 19.9307 16.0296 19.9307C16.0591 19.9307 16.0886 19.9013 16.1182 19.8718C16.1477 19.8424 16.1772 19.7835 16.1772 19.7246C16.1772 19.6951 16.1772 19.6657 16.1772 19.6362V19.6067C16.2067 19.5184 16.2362 19.4889 16.2362 19.4889Z" fill="#F0EAE3"/>
<path d="M36.7235 31.9189C36.7826 31.9189 36.8416 31.9189 36.9006 31.9189C37.373 31.8305 37.8453 31.5654 38.1995 31.2414C38.17 31.6243 38.2881 31.9778 38.4947 32.3018C38.5538 32.3901 38.6423 32.4785 38.7309 32.5374C38.8195 32.5963 38.9671 32.5963 39.0556 32.508C39.1147 32.449 39.1442 32.3607 39.1442 32.3018C39.2328 31.9189 39.2328 31.5359 39.1442 31.153C39.1147 31.0647 39.0852 31.0058 39.0556 30.9174C39.0852 30.9469 39.1442 30.9468 39.1737 30.9763C39.4099 31.0941 39.6756 31.1825 39.9708 31.2119C40.1479 31.2414 40.3545 31.2709 40.5317 31.1825C40.6202 31.153 40.6793 31.0941 40.7088 31.0058C40.7383 30.9468 40.7088 30.8879 40.6793 30.829C40.4726 30.2105 39.9117 29.7392 39.2918 29.6214C39.4099 29.533 39.528 29.4152 39.6165 29.2974C39.8232 29.0028 39.9117 28.5905 39.8527 28.237C39.8232 28.0897 39.7641 27.9425 39.6165 27.913C39.5575 27.913 39.4984 27.913 39.4394 27.9425C39.1737 28.0014 38.9376 28.1486 38.7604 28.3254C38.6423 28.4432 38.5538 28.5905 38.4652 28.7672C38.4357 28.7083 38.4357 28.6199 38.4062 28.561C38.3471 28.4137 38.2586 28.237 38.1405 28.1486C37.7862 29.4447 37.2844 30.6818 36.7235 31.9189Z" fill="#FF8905"/>
</svg>
