<svg width="64" height="60" viewBox="0 0 64 60" fill="none" xmlns="http://www.w3.org/2000/svg">
<path d="M39.3883 45.1471H22.9419V50.468H39.3883V45.1471Z" fill="#FF8D08"/>
<path d="M15.4443 17.6558C15.4443 17.0108 16.2908 16.4465 16.3715 15.8419C16.4521 15.2372 15.7265 14.4713 15.8474 13.8667C15.9684 13.262 16.9358 12.8589 17.097 12.2543C17.2986 11.6496 16.7343 10.8031 16.9761 10.2388C17.218 9.67444 18.2257 9.47289 18.5482 8.94886C18.8707 8.42484 18.4676 7.4574 18.8304 6.93337C19.1932 6.40934 20.2009 6.44965 20.6443 6.00624C21.0474 5.52252 20.8862 4.51478 21.3699 4.11168C21.8133 3.70858 22.821 3.95044 23.3451 3.58765C23.8691 3.22486 23.9497 2.21711 24.4738 1.89463C24.9978 1.61246 25.9249 2.09618 26.4892 1.85432C27.0536 1.61246 27.3761 0.645027 27.9807 0.483787C28.5854 0.322548 29.3512 1.00782 29.9559 0.927196C30.5605 0.846576 31.1249 6.86646e-05 31.7698 6.86646e-05C32.4148 6.86646e-05 32.9791 0.846576 33.5838 0.927196C34.1884 1.00782 34.9543 0.322548 35.559 0.483787C36.1636 0.645027 36.4861 1.61246 37.0504 1.85432C37.6148 2.09618 38.5419 1.61246 39.0659 1.89463C39.59 2.1768 39.7109 3.22486 40.1946 3.58765C40.6783 3.95044 41.6861 3.70858 42.1698 4.11168C42.6132 4.51478 42.4923 5.56283 42.8954 6.00624C43.2985 6.44965 44.3465 6.44965 44.7093 6.93337C45.0721 7.41709 44.7093 8.38453 44.9915 8.94886C45.2736 9.47289 46.3217 9.67444 46.5636 10.2388C46.8054 10.8031 46.2411 11.6496 46.4426 12.2543C46.6039 12.8589 47.5713 13.2217 47.6922 13.8667C47.8132 14.4713 47.0876 15.1969 47.1682 15.8419C47.2085 16.4465 48.0953 17.0108 48.0953 17.6558C48.0953 18.3008 47.2488 18.8651 47.1682 19.4697C47.0876 20.0744 47.8132 20.8403 47.6922 21.4449C47.5713 22.0496 46.6039 22.4527 46.4426 23.0573C46.2411 23.662 46.8054 24.5085 46.5636 25.0728C46.3217 25.6372 45.314 25.8387 44.9915 26.3627C44.669 26.8868 45.0721 27.8542 44.7093 28.3782C44.3465 28.9023 43.3388 28.8619 42.8954 29.3054C42.4923 29.7891 42.6535 30.7968 42.1698 31.1999C41.7264 31.603 40.7186 31.3612 40.1946 31.7239C39.6706 32.0867 39.59 33.0945 39.0659 33.417C38.5419 33.6991 37.6148 33.2154 37.0504 33.4573C36.4861 33.6991 36.1636 34.6666 35.559 34.8278C34.9543 34.9891 34.1884 34.3038 33.5838 34.3844C32.9791 34.465 32.4148 35.3115 31.7698 35.3115C31.1249 35.3115 30.5605 34.465 29.9559 34.3844C29.3512 34.3038 28.5854 34.9891 27.9807 34.8278C27.3761 34.6666 27.0536 33.6991 26.4892 33.4573C25.9249 33.2154 24.9978 33.6991 24.4738 33.417C23.9497 33.1348 23.8288 32.0867 23.3451 31.7239C22.8614 31.3612 21.8536 31.603 21.3699 31.1999C20.9265 30.7968 21.0474 29.7488 20.6443 29.3054C20.2412 28.8619 19.1932 28.8619 18.8304 28.3782C18.4676 27.8945 18.8304 26.9271 18.5482 26.3627C18.266 25.8387 17.218 25.6372 16.9761 25.0728C16.7343 24.5085 17.2986 23.662 17.097 23.0573C16.9358 22.4527 15.9684 22.0899 15.8474 21.4449C15.7265 20.8403 16.4521 20.1147 16.3715 19.4697C16.2908 18.8651 15.4443 18.3008 15.4443 17.6558Z" fill="#222434"/>
<path d="M39.5091 53.1283C39.6704 57.5221 36.1231 61.1903 31.689 61.1903C27.3759 61.1903 23.8689 57.6834 23.8689 53.3702C23.8689 53.2896 23.8689 53.209 23.8689 53.1283L24.7557 41.4788L24.917 39.2214L25.4007 32.7315H37.937L38.4611 39.5036L38.6223 41.8416L39.5091 53.1283Z" fill="#BA5643"/>
<path d="M38.4611 39.5842C37.4534 42.0431 34.8333 43.7764 31.7294 43.7764C28.5449 43.7764 25.8038 41.8819 24.8767 39.2617L25.3604 32.7718H37.8968L38.4611 39.5842Z" fill="#AC4734"/>
<path d="M46.4022 19.0264C46.7247 19.5504 46.9262 21.7271 45.9991 24.0651C45.7169 24.7504 45.8782 26.2015 44.8704 27.2093C42.2503 29.7891 41.8875 24.1054 42.2503 22.6946C42.734 20.9209 44.8301 16.5675 46.4022 19.0264Z" fill="#AA3D3D"/>
<path d="M44.5481 19.3488C44.8303 19.2682 45.1527 19.3085 45.4349 19.4697C45.7171 19.631 45.9589 19.8728 46.0799 20.155C46.2008 20.4372 46.2411 20.8 46.2008 21.1224C46.1202 21.4449 45.9589 21.7271 45.7171 21.8883C45.7574 21.6062 45.7574 21.324 45.7171 21.0821C45.6768 20.8403 45.6365 20.5984 45.5558 20.3969C45.4752 20.1953 45.314 19.9938 45.1527 19.8325C45.0318 19.6713 44.8303 19.51 44.5481 19.3488Z" fill="#BA5643"/>
<path d="M43.8628 21.5661C44.145 21.7676 44.3869 22.0901 44.4675 22.4529C44.5884 22.8157 44.5884 23.2188 44.5078 23.5816C44.4272 23.9444 44.2256 24.3071 43.9838 24.5893C43.7419 24.8715 43.4194 25.073 43.0566 25.1537C43.2985 24.8715 43.4597 24.5893 43.621 24.3475C43.7822 24.0653 43.8628 23.7831 43.9435 23.501C44.0241 23.2188 44.0241 22.8963 44.0241 22.5738C44.0241 22.2513 43.9435 21.9289 43.8628 21.5661Z" fill="#BA5643"/>
<path d="M16.9357 19.0264C16.6132 19.5504 16.4117 21.7271 17.3388 24.0651C17.621 24.7504 17.4597 26.2015 18.4675 27.2093C21.0876 29.7891 21.4504 24.1054 21.0876 22.6946C20.6442 20.9209 18.5481 16.5675 16.9357 19.0264Z" fill="#AA3D3D"/>
<path d="M18.7899 19.3488C18.5077 19.2682 18.1852 19.3085 17.9031 19.4697C17.6209 19.631 17.379 19.8728 17.2581 20.155C17.1372 20.4372 17.0969 20.8 17.1372 21.1224C17.2178 21.4449 17.379 21.7271 17.6209 21.8883C17.5806 21.6062 17.5806 21.324 17.6209 21.0821C17.6612 20.8403 17.7015 20.5984 17.7821 20.3969C17.8628 20.1953 18.024 19.9938 18.1852 19.8325C18.3465 19.6713 18.548 19.51 18.7899 19.3488Z" fill="#BA5643"/>
<path d="M19.5156 21.5661C19.2334 21.7676 18.9916 22.0901 18.9109 22.4529C18.79 22.8157 18.79 23.2188 18.8706 23.5816C18.9513 23.9444 19.1528 24.3071 19.3947 24.5893C19.6365 24.8715 19.959 25.073 20.3218 25.1537C20.0799 24.8715 19.9187 24.5893 19.7575 24.3475C19.5962 24.0653 19.5156 23.7831 19.435 23.501C19.3544 23.2188 19.3544 22.8963 19.3544 22.5738C19.3544 22.2513 19.3947 21.9289 19.5156 21.5661Z" fill="#BA5643"/>
<path d="M19.717 25.6774C20.2007 25.6774 20.5635 28.0153 20.5635 30.9177C20.5635 33.82 20.2007 36.1579 19.717 36.1579C19.2332 36.1579 18.8705 33.82 18.8705 30.9177C18.8705 29.9502 18.8301 28.8215 18.8705 28.0557" stroke="#FFCE00" stroke-width="0.9546" stroke-miterlimit="10" stroke-linecap="round" stroke-linejoin="round"/>
<path d="M19.7575 25.8388C20.0396 25.9194 19.7978 27.8946 19.2738 30.2326C18.7094 32.6109 18.0241 34.4651 17.742 34.4248C17.4598 34.3442 17.7017 32.369 18.2257 30.031C18.3869 29.3458 18.7094 28.6202 18.8707 28.0558" stroke="#FFCE00" stroke-width="0.8803" stroke-miterlimit="10" stroke-linecap="round" stroke-linejoin="round"/>
<path d="M19.7171 25.6774C19.9993 25.8386 19.2737 27.4107 18.266 29.144C17.2582 30.8773 16.2505 32.1269 16.0086 31.9657C15.7265 31.8045 16.3311 30.313 17.3389 28.5797C17.621 28.0557 17.9435 27.5719 18.2257 27.1688" stroke="#FFCE00" stroke-miterlimit="10" stroke-linecap="round" stroke-linejoin="round"/>
<path d="M43.6612 25.6374C43.1775 25.6374 42.8147 27.9753 42.8147 30.8776C42.8147 33.78 43.1775 36.1179 43.6612 36.1179C44.1449 36.1179 44.5077 33.78 44.5077 30.8776C44.5077 29.9102 44.548 28.7815 44.5077 28.0156" stroke="#FFCE00" stroke-width="0.9546" stroke-miterlimit="10" stroke-linecap="round" stroke-linejoin="round"/>
<path d="M43.6211 25.7984C43.339 25.879 43.5808 27.8542 44.1048 30.1922C44.6692 32.5705 45.3545 34.4247 45.6366 34.3844C45.9188 34.3038 45.6769 32.3286 45.1529 29.9906C44.9917 29.3054 44.6692 28.5798 44.5079 28.0154" stroke="#FFCE00" stroke-width="0.8803" stroke-miterlimit="10" stroke-linecap="round" stroke-linejoin="round"/>
<path d="M43.6613 25.6374C43.3791 25.7986 44.1047 27.3707 45.1124 29.104C46.1202 30.8374 47.1279 32.087 47.3698 31.9257C47.652 31.7645 47.0473 30.273 46.0396 28.5397C45.7574 28.0157 45.4349 27.532 45.1527 27.1289" stroke="#FFCE00" stroke-miterlimit="10" stroke-linecap="round" stroke-linejoin="round"/>
<path d="M44.0239 20.6386C44.0239 20.6789 44.0239 20.6789 44.0239 20.6386L43.9433 21.5254L43.903 21.9688L43.8627 22.6138C43.8224 23.0169 43.8224 23.42 43.7821 23.8231C43.7821 24.0649 43.7418 24.3068 43.7418 24.589C43.7015 25.5967 43.6208 26.5642 43.4999 27.5719V27.6122C43.4596 27.8138 43.4596 27.975 43.4193 28.1765C43.379 28.3781 43.3387 28.5796 43.2983 28.7812C43.258 29.0634 43.1774 29.3858 43.0565 29.668C43.0162 29.7889 43.0162 29.8696 42.9759 29.9905C42.8952 30.192 42.8146 30.4339 42.734 30.6758C42.4922 31.2401 42.2503 31.8044 41.9278 32.3688C40.6379 34.7067 38.6627 36.8432 36.6875 38.2943L36.6472 38.3346C36.4054 38.4959 36.1635 38.6974 35.9216 38.8184C33.503 40.3501 30.6814 40.4307 28.1821 39.1005C27.6581 38.8184 27.1744 38.4959 26.6907 38.1331C26.6907 38.1331 26.6907 38.1331 26.6504 38.1331C24.7558 36.7222 23.1031 34.6261 21.8535 32.3688C21.7729 32.2075 21.6922 32.0463 21.6116 31.8851C21.5713 31.8044 21.531 31.7238 21.4907 31.6432C21.4101 31.482 21.3698 31.361 21.2891 31.1998C21.0876 30.7967 20.9264 30.3936 20.7651 29.9905C20.7248 29.8696 20.6845 29.7889 20.6442 29.668C20.0799 28.0556 19.838 26.282 19.7171 24.5487C19.6768 24.2665 19.6768 23.9843 19.6364 23.7425C19.5961 23.42 19.5961 23.1378 19.5558 22.8153L19.4752 22.0091C19.4752 21.9285 19.4349 21.8479 19.4349 21.727C19.3946 21.6463 19.3946 21.5254 19.3946 21.4448C19.3543 21.2029 19.314 21.0014 19.314 20.7595C19.314 20.6789 19.314 20.6386 19.3543 20.558C19.6364 18.4619 20.2814 16.527 21.2085 14.834C21.4504 14.3906 21.6922 13.9875 21.9341 13.5844C22.8209 12.2541 23.9093 11.1255 25.1186 10.2386C25.1992 10.158 25.2798 10.1177 25.4008 10.0371C25.5217 9.95648 25.6023 9.87586 25.7232 9.79524C26.1666 9.51307 26.6101 9.27121 27.0535 9.02935C28.3837 8.38439 29.8348 8.0216 31.3263 7.98129C31.3263 7.98129 31.3263 7.98129 31.3666 7.98129C31.4472 7.98129 31.5279 7.98129 31.6085 7.98129H31.6891C31.8906 7.98129 32.0922 7.98129 32.2937 8.0216C32.5356 8.0216 32.7775 8.06191 33.0193 8.10222C33.1403 8.10222 33.3015 8.14253 33.4224 8.14253C33.5434 8.14253 33.624 8.18284 33.7449 8.18284C34.6317 8.34408 35.4379 8.62625 36.2441 8.98904C36.8488 9.27121 37.4534 9.59369 38.0178 9.99679C38.0581 9.99679 38.0581 10.0371 38.0984 10.0774C38.4612 10.3193 38.7836 10.6014 39.1061 10.8836C40.3557 11.972 41.4038 13.3425 42.21 14.8743C42.2503 14.9549 42.2906 15.0355 42.3712 15.1565C43.1774 16.7688 43.7418 18.5425 44.0239 20.4774V20.5177C44.0239 20.558 44.0239 20.5983 44.0239 20.6386Z" fill="#BA5643"/>
<path opacity="0.66" d="M20.8055 25.4759C20.8861 24.2666 21.7326 23.2185 23.0225 23.541C23.4659 23.6619 23.869 23.8635 24.2721 24.0247C25.4008 24.4278 26.6907 24.3472 27.7791 23.8232C28.5853 23.4201 29.2705 22.7751 30.1171 22.4123C31.2054 21.9689 32.455 22.0898 33.4225 22.7348C35.317 23.9441 37.3325 24.2263 39.4689 23.7425C40.5976 23.5007 41.9279 23.6619 42.21 24.9922C42.3309 25.6371 42.1697 26.3224 41.9682 26.9673C41.6457 27.9348 41.2023 28.8619 40.5976 29.6681C40.1542 30.2324 39.5496 30.7565 38.824 30.8774C36.2038 31.2402 35.2767 28.0557 33.7046 26.6449C32.8581 25.879 31.5682 25.3953 30.5202 25.879C29.1093 26.5239 29.0287 28.2573 28.1016 29.3456C27.0132 30.6758 24.9171 30.958 23.3853 30.1518C21.8132 29.3053 20.7248 27.2898 20.8055 25.4759Z" fill="#AF4B3E"/>
<path d="M34.8735 17.7365C35.3169 17.2125 35.7604 16.7691 36.2844 16.366C36.8084 16.0032 37.4131 15.6807 38.1386 15.5195C38.5014 15.4388 38.8642 15.4388 39.2673 15.4792C39.6301 15.5195 40.0735 15.6404 40.396 15.8823C40.7185 16.0838 41.0006 16.366 41.2022 16.7288C41.4037 17.0512 41.4844 17.4543 41.3634 17.8171C41.2022 17.6962 41.0813 17.6156 40.9603 17.535C40.8394 17.4543 40.7185 17.414 40.5572 17.3737C40.3154 17.2931 40.0735 17.2528 39.8317 17.2125C39.3882 17.1722 38.9448 17.2125 38.4611 17.3334C37.9774 17.414 37.4534 17.5753 36.8487 17.6962C36.2844 17.7768 35.5991 17.8978 34.8735 17.7365Z" fill="#222434"/>
<path d="M28.4644 17.7364C27.7388 17.8976 27.0939 17.7767 26.4892 17.6558C25.8846 17.5348 25.3605 17.3736 24.8768 17.293C24.3931 17.2123 23.9497 17.1317 23.5063 17.172C23.2644 17.2123 23.0226 17.2527 22.7807 17.3333C22.6598 17.3736 22.5388 17.4542 22.3776 17.4945C22.2567 17.5751 22.1357 17.6558 21.9745 17.7767C21.8939 17.4139 21.9745 17.0108 22.1357 16.6883C22.3373 16.3658 22.6195 16.0837 22.9419 15.8418C23.2644 15.6403 23.6675 15.5193 24.0706 15.4387C24.4737 15.3984 24.8365 15.3984 25.1993 15.479C25.9249 15.5999 26.5295 15.9224 27.0535 16.3255C27.5776 16.7689 28.021 17.172 28.4644 17.7364Z" fill="#222434"/>
<path d="M34.5913 35.4324C35.0347 35.11 36.1231 33.4169 36.1231 33.4169C36.1231 33.4169 34.1076 32.8929 32.7774 32.6107C31.9309 32.4092 31.044 32.4092 30.1572 32.651L27.2146 33.4169C27.2146 33.4169 28.2627 35.0293 28.3836 35.1503C28.827 35.5937 29.3913 35.7952 29.9154 35.8758C31.165 36.1177 32.4146 36.1177 33.6642 35.8355C34.027 35.7549 34.3495 35.634 34.5913 35.4324Z" fill="#771C19"/>
<path d="M34.7527 32.5302C34.269 32.0868 33.8659 31.4015 33.3015 31.1999C32.7775 30.9984 32.1728 31.0387 31.6891 31.4821C31.2457 31.0387 30.6008 30.9581 30.0767 31.1999C29.5124 31.4418 29.1093 32.1271 28.6256 32.5302C28.0209 33.0542 27.376 33.2557 26.6504 33.2557C27.8597 33.9813 29.2705 33.4573 30.238 33.5782C30.3992 33.6185 30.6008 33.7395 30.8426 33.9007C31.1248 34.1023 31.407 34.2232 31.6891 34.2232C31.9713 34.2232 32.2938 34.1023 32.5356 33.9007C32.7372 33.7395 32.979 33.6185 33.1403 33.5782C34.1077 33.417 35.5186 33.9813 36.7279 33.2557C36.0023 33.2557 35.3573 33.0542 34.7527 32.5302Z" fill="#5B100A"/>
<path d="M29.9961 37.0449C30.238 36.8434 30.5201 36.6821 30.8023 36.6015C31.0845 36.5209 31.4069 36.4806 31.6891 36.4806C32.0116 36.4806 32.2938 36.5209 32.5759 36.6418C32.8581 36.7628 33.1403 36.8837 33.3821 37.0852C33.0596 37.0852 32.7775 37.0852 32.4953 37.0852H31.6891H30.8829C30.5604 37.0449 30.2783 37.0449 29.9961 37.0449Z" fill="#C1675B"/>
<path d="M28.8673 20.9611C28.7464 20.7999 28.6255 20.6386 28.5045 20.5177L28.1821 20.0743L27.8596 19.6309C27.7387 19.4696 27.6177 19.3487 27.5371 19.1472C27.7387 19.1875 27.9402 19.2681 28.1014 19.389C28.2627 19.5099 28.4239 19.6309 28.5449 19.8324C28.6658 19.9937 28.7464 20.1952 28.827 20.3968C28.9076 20.558 28.9076 20.7596 28.8673 20.9611Z" fill="#C1675B"/>
<path d="M28.948 22.1303C28.948 22.614 28.5449 23.0171 28.0611 23.0171C27.5774 23.0171 27.1743 22.614 27.1743 22.1303C27.1743 21.6466 27.5774 21.2435 28.0611 21.2435C28.5449 21.2435 28.948 21.6466 28.948 22.1303Z" fill="#C1675B"/>
<path d="M26.6907 18.9459C26.4892 18.9056 26.3279 18.8653 26.1667 18.8249C26.0054 18.7846 25.8442 18.7443 25.6427 18.7443C25.3202 18.704 24.9574 18.704 24.6349 18.704C23.9496 18.704 23.3047 18.8249 22.5791 19.0265C22.821 18.704 23.1434 18.5025 23.4659 18.3412C23.8287 18.18 24.1915 18.0994 24.5946 18.0994C24.9977 18.0994 25.3605 18.1397 25.7233 18.3009C25.8845 18.3815 26.0861 18.4622 26.2473 18.5831C26.4085 18.6637 26.5698 18.7846 26.6907 18.9459Z" fill="#BA5643"/>
<path d="M28.4241 22.3722C28.4241 22.3722 28.0613 19.8326 26.328 19.3489C23.8288 18.6233 22.4583 21.1629 22.4583 21.1629C22.4583 21.1629 23.6675 22.6543 25.3606 22.8559C26.973 23.0574 28.4241 22.3722 28.4241 22.3722Z" fill="#FFCE00"/>
<path d="M28.3836 22.3722C28.3836 22.3722 26.9727 23.0574 25.32 22.8559C23.6673 22.6543 22.4177 21.1629 22.4177 21.1629L23.1836 20.6791C24.7557 19.6714 26.8115 20.1148 27.8596 21.6466L28.3836 22.3722Z" fill="#FBFBFB"/>
<path d="M28.3836 22.372C27.8999 22.6542 27.3759 22.8557 26.8115 22.9767C26.2472 23.0976 25.6829 23.0976 25.1185 23.017C24.5542 22.9364 24.0301 22.6542 23.5464 22.3317C23.103 22.0092 22.6999 21.6061 22.3774 21.1627C22.7805 21.5255 23.224 21.848 23.7077 22.1302C24.1914 22.372 24.6751 22.6139 25.1588 22.6945C25.6829 22.7751 26.2069 22.7751 26.7309 22.7348C27.3356 22.6139 27.8596 22.5333 28.3836 22.372Z" fill="#BA5643"/>
<path d="M24.2721 21.1629C24.3124 20.518 24.8767 20.0343 25.5217 20.1149C26.1666 20.1552 26.6504 20.7195 26.5697 21.3645C26.5294 22.0094 25.9651 22.4932 25.3201 22.4125C24.6752 22.3722 24.2318 21.8079 24.2721 21.1629Z" fill="#006390"/>
<path d="M24.8767 21.2433C24.917 20.9612 25.1589 20.7193 25.4814 20.7596C25.7635 20.7999 26.0054 21.0418 25.9651 21.3643C25.9248 21.6464 25.6829 21.8883 25.3604 21.848C25.0783 21.8077 24.8767 21.5255 24.8767 21.2433Z" fill="#141414"/>
<path d="M21.3701 20.8001C21.1282 20.7194 20.8863 20.5179 20.7251 20.3163C20.967 20.4373 21.2088 20.4776 21.4104 20.5179C21.6522 20.5582 21.8941 20.5582 22.1359 20.5582C22.3778 20.5582 22.6197 20.5179 22.9018 20.4776C23.184 20.4373 23.4662 20.3566 23.7483 20.1954C23.829 20.1551 23.8693 20.1551 23.9499 20.1148C24.5142 19.8729 25.1592 19.8729 25.7638 19.9535C26.3685 20.0745 26.9328 20.3566 27.3762 20.8001C27.6181 21.0016 27.7793 21.2435 27.9406 21.5256C28.1018 21.8078 28.263 22.0497 28.384 22.3318C27.9809 21.8884 27.6584 21.3644 27.215 21.0016C26.7716 20.6388 26.2476 20.397 25.6832 20.276C25.1189 20.1551 24.5545 20.1954 23.9902 20.3566C23.6274 20.4373 23.3049 20.5985 22.9825 20.8001C22.8212 20.921 22.6197 21.0822 22.4181 21.1628C22.2166 21.2032 22.015 21.2838 21.8135 21.2435C21.6119 21.2435 21.4104 21.1628 21.2491 21.0419C21.6522 21.0822 21.9747 21.0419 22.3375 20.8807H22.3778C22.2972 20.8807 22.2166 20.921 22.1359 20.921C21.8941 20.9613 21.6119 20.921 21.3701 20.8001Z" fill="#141414"/>
<path d="M21.3295 20.921C21.0474 20.8001 20.8458 20.5985 20.6846 20.3567C20.6846 20.3164 20.6846 20.276 20.7249 20.276H20.7652C21.3295 20.5582 22.0148 20.5582 22.6598 20.4776C22.9822 20.4776 23.3047 20.397 23.5869 20.2357C23.8691 20.1148 24.1915 19.9536 24.5543 19.9133C25.1993 19.7923 25.9249 19.9133 26.5295 20.1954C27.1342 20.4776 27.6582 20.9613 28.021 21.5256L28.4644 22.3318C28.4644 22.3722 28.4644 22.4125 28.4241 22.4125C28.3838 22.4125 28.3434 22.4125 28.3434 22.4125C27.9807 22.0094 27.6985 21.566 27.3357 21.2435C26.9729 20.921 26.4892 20.6388 26.0055 20.4776C25.5218 20.3164 24.9977 20.276 24.4737 20.3567C24.2318 20.397 23.99 20.4373 23.7481 20.5582C23.5063 20.6388 23.2644 20.7598 23.0629 20.8807C22.9016 21.0419 22.7001 21.1629 22.4582 21.2435C22.0954 21.3644 21.6117 21.4047 21.2489 21.1226C21.2086 21.0822 21.2086 21.0419 21.2489 21.0419L21.2892 21.0016C21.652 21.0016 21.9745 20.8807 22.2567 20.7195L22.3776 21.1629C22.176 21.1629 21.9745 21.1629 21.8132 21.1629C21.6923 21.0822 21.4908 21.0016 21.3295 20.921ZM21.4101 20.6791C21.5714 20.7195 21.7326 20.7598 21.8939 20.7195C22.0551 20.7195 22.2163 20.6791 22.3776 20.6388C22.4985 20.5985 22.6194 20.6791 22.6598 20.8001C22.7001 20.921 22.6194 21.0419 22.4985 21.0822H22.4582C22.0551 21.2032 21.652 21.2032 21.2892 21.0822L21.3295 20.9613C21.4908 21.0822 21.652 21.1226 21.8536 21.1226C22.0551 21.1226 22.2163 21.0822 22.4179 21.0419C22.6194 20.9613 22.7807 20.8404 22.9822 20.7195C23.2241 20.5985 23.4256 20.4776 23.7078 20.3567C23.9497 20.276 24.2318 20.1954 24.4737 20.1551C24.9977 20.0745 25.5218 20.1148 26.0458 20.276C26.5698 20.4373 27.0132 20.7195 27.4163 21.0419C27.8194 21.4047 28.1016 21.8481 28.4241 22.2109L28.3031 22.2915L27.8597 21.5256C27.4969 20.9613 27.0132 20.5179 26.4489 20.2357C25.8442 19.9536 25.1993 19.8729 24.5543 19.9536C24.2318 19.9939 23.9497 20.1148 23.6272 20.2357C23.3047 20.3567 22.9822 20.4373 22.6598 20.4776C22.0148 20.5582 21.2892 20.5985 20.6846 20.276L20.7652 20.1954C20.9264 20.4776 21.1683 20.6388 21.4101 20.6791Z" fill="#141414"/>
<path d="M34.39 20.9615C34.3497 20.7599 34.39 20.5584 34.4303 20.3568C34.4706 20.1553 34.5915 19.9537 34.7125 19.7925C34.8334 19.6313 34.9946 19.47 35.1559 19.3491C35.3171 19.2282 35.5187 19.1475 35.7202 19.1072C35.5993 19.2685 35.4784 19.4297 35.3977 19.5909L35.0753 20.0344L34.7528 20.4778C34.6318 20.639 34.5512 20.8002 34.39 20.9615Z" fill="#C1675B"/>
<path d="M35.9621 22.1302C35.9621 22.6139 35.559 23.017 35.0753 23.017C34.5916 23.017 34.1885 22.6139 34.1885 22.1302C34.1885 21.6465 34.5916 21.2434 35.0753 21.2434C35.559 21.2434 35.9621 21.6465 35.9621 22.1302Z" fill="#C1675B"/>
<path d="M36.2844 18.9459C36.4054 18.825 36.5666 18.704 36.6875 18.5428C36.8488 18.4219 37.01 18.3412 37.2116 18.2606C37.5743 18.1397 37.9774 18.0591 38.3402 18.0591C38.7433 18.0591 39.1061 18.1397 39.4689 18.3009C39.8317 18.4622 40.1542 18.6637 40.3557 18.9862C39.6301 18.7847 38.9852 18.6637 38.2999 18.6637C37.9774 18.6637 37.655 18.6637 37.2922 18.704C37.1309 18.7443 36.9697 18.7443 36.7681 18.7847C36.6472 18.8653 36.486 18.9056 36.2844 18.9459Z" fill="#BA5643"/>
<path d="M34.9543 22.3722C34.9543 22.3722 35.3171 19.8326 37.0505 19.3489C39.5497 18.6233 40.9202 21.1629 40.9202 21.1629C40.9202 21.1629 39.7109 22.6543 38.0179 22.8559C36.4055 23.0574 34.9543 22.3722 34.9543 22.3722Z" fill="#FFCE00"/>
<path d="M34.9543 22.3722C34.9543 22.3722 36.3652 23.0574 38.0179 22.8559C39.6706 22.6543 40.9202 21.1629 40.9202 21.1629L40.1543 20.6791C38.5822 19.6714 36.5264 20.1148 35.4784 21.6466L34.9543 22.3722Z" fill="#FBFBFB"/>
<path d="M34.9543 22.372C35.4784 22.5333 36.0024 22.6139 36.5667 22.6945C37.0908 22.7348 37.6551 22.7348 38.1388 22.6542C38.6629 22.5736 39.1466 22.372 39.59 22.0899C40.0334 21.8077 40.4768 21.5255 40.9202 21.1224C40.5977 21.5658 40.1946 21.9689 39.7512 22.2914C39.3078 22.6139 38.7838 22.8558 38.1791 22.9767C37.6148 23.0573 37.0505 23.0573 36.4861 22.9364C35.9621 22.8558 35.4381 22.6542 34.9543 22.372Z" fill="#BA5643"/>
<path d="M39.106 21.1629C39.0657 20.518 38.5014 20.0342 37.8564 20.1149C37.2114 20.1552 36.7277 20.7195 36.8084 21.3645C36.8487 22.0094 37.413 22.4931 38.058 22.4125C38.6626 22.3722 39.1463 21.8079 39.106 21.1629Z" fill="#006390"/>
<path d="M38.5015 21.2433C38.4612 20.9612 38.2193 20.7193 37.8968 20.7596C37.6147 20.7999 37.3728 21.0418 37.4131 21.3643C37.4534 21.6464 37.6953 21.8883 38.0178 21.848C38.2999 21.8077 38.5015 21.5255 38.5015 21.2433Z" fill="#141414"/>
<path d="M42.0086 20.8C42.2504 20.7194 42.4923 20.5179 42.6535 20.3163C42.4116 20.4373 42.1698 20.4776 41.9682 20.5179C41.7264 20.5582 41.4845 20.5582 41.2427 20.5582C41.0008 20.5582 40.7589 20.5179 40.4768 20.4776C40.1946 20.4373 39.9124 20.3566 39.6303 20.1954C39.5496 20.1551 39.5093 20.1551 39.4287 20.1148C38.8644 19.8729 38.2194 19.8729 37.6148 19.9535C37.0101 20.0745 36.4458 20.3566 36.0024 20.8C35.7605 21.0016 35.5993 21.2435 35.438 21.5256C35.2768 21.8078 35.1156 22.0496 34.9946 22.3318C35.3977 21.8884 35.7202 21.3644 36.1636 21.0016C36.607 20.6388 37.1311 20.3969 37.6954 20.276C38.2597 20.1551 38.8241 20.1954 39.3884 20.3566C39.7512 20.4373 40.0737 20.5985 40.3962 20.8C40.5574 20.921 40.7589 21.0822 40.9605 21.1628C41.162 21.2031 41.3636 21.2838 41.5651 21.2435C41.7667 21.2435 41.9682 21.1628 42.1295 21.0419C41.7264 21.0822 41.4039 21.0419 41.0411 20.8807H41.0008C41.0814 20.8807 41.162 20.921 41.2427 20.921C41.4845 20.9613 41.7667 20.921 42.0086 20.8Z" fill="#141414"/>
<path d="M41.9683 20.6792C42.2101 20.5986 42.452 20.4776 42.5729 20.2761L42.6535 20.3567C42.0489 20.6792 41.3233 20.6389 40.6784 20.5583C40.3559 20.5583 39.9931 20.4776 39.7109 20.3164C39.3884 20.1955 39.1063 20.0745 38.7838 20.0342C38.1388 19.9133 37.4536 20.0342 36.8892 20.3164C36.2846 20.5986 35.8009 21.042 35.4784 21.6063L35.035 22.3722L34.914 22.2916C35.2365 21.8885 35.559 21.4451 35.9218 21.1226C36.3249 20.7598 36.7683 20.4776 37.2923 20.3567C37.8164 20.1955 38.3404 20.1552 38.8644 20.2358C39.1466 20.2761 39.3884 20.3567 39.6303 20.4373C39.8722 20.5179 40.114 20.6389 40.3559 20.8001C40.5171 20.921 40.7187 21.042 40.9202 21.1226C41.1218 21.1629 41.283 21.2032 41.4846 21.2032C41.6861 21.2032 41.8474 21.1226 42.0086 21.042L42.0489 21.1629C41.6861 21.2435 41.283 21.2435 40.8799 21.1629H40.8396C40.7187 21.1226 40.6381 21.0017 40.6784 20.8807C40.7187 20.7598 40.8396 20.6792 40.9605 20.7195C41.1218 20.7598 41.283 20.8001 41.4442 20.8001C41.6458 20.7598 41.807 20.7195 41.9683 20.6792ZM42.0489 20.921C41.8877 21.0017 41.6861 21.042 41.4846 21.0823C41.283 21.1226 41.0815 21.1226 40.9202 21.0823L41.0411 20.6389C41.3233 20.8001 41.6458 20.921 42.0086 20.921C42.0489 20.921 42.0892 20.9614 42.0892 21.0017C42.0892 21.042 42.0892 21.042 42.0489 21.042C41.6861 21.3241 41.2024 21.2838 40.8396 21.1629C40.6381 21.0823 40.4365 20.9614 40.235 20.8001C39.9931 20.6792 39.7915 20.5583 39.5497 20.4776C39.3078 20.397 39.066 20.3164 38.8241 20.2761C38.3001 20.1955 37.8164 20.2358 37.2923 20.397C36.8086 20.5583 36.3652 20.8001 35.9621 21.1629C35.5993 21.5257 35.3171 21.9288 34.9544 22.3319C34.9141 22.3722 34.8737 22.3722 34.8737 22.3319C34.8334 22.2916 34.8334 22.2916 34.8737 22.2513L35.3171 21.4451C35.6799 20.8807 36.1637 20.397 36.8086 20.1148C37.4133 19.8327 38.0985 19.7117 38.7838 19.8327C39.1063 19.873 39.4288 19.9939 39.7512 20.1552C40.0334 20.2761 40.3559 20.3567 40.6784 20.397C41.3233 20.4776 42.0086 20.4776 42.5729 20.1955C42.6132 20.1955 42.6535 20.1955 42.6535 20.2358V20.2761C42.5729 20.5986 42.3311 20.8001 42.0489 20.921Z" fill="#141414"/>
<path d="M28.7869 28.8215C28.7063 28.1362 29.0288 27.4106 29.5931 26.9269C30.1575 26.4432 30.883 26.2014 31.6086 26.2014C32.3342 26.2014 33.0598 26.4432 33.6241 26.9269C34.1884 27.3703 34.5109 28.0959 34.4303 28.8215C34.3497 28.1362 33.9466 27.5719 33.4226 27.2091C32.8985 26.8463 32.2536 26.6448 31.6086 26.6448C30.9637 26.6448 30.3187 26.8463 29.7947 27.2091C29.2706 27.5719 28.8675 28.1362 28.7869 28.8215Z" fill="#BA5643"/>
<path d="M30.2783 27.6928C30.2783 27.4106 30.883 27.1688 31.6085 27.1688C32.3341 27.1688 32.9388 27.4106 32.9388 27.6928C32.9388 27.975 32.3341 28.2168 31.6085 28.2168C30.883 28.2571 30.2783 28.0153 30.2783 27.6928Z" fill="#C1675B"/>
<path d="M31.6894 3.2651V7.98136H31.6088C31.5282 7.98136 31.4475 7.98136 31.3669 7.98136C31.3669 7.98136 31.3669 7.98136 31.3266 7.98136C29.7948 8.02167 28.384 8.38446 27.0538 9.02942C26.6103 9.23097 26.1669 9.51314 25.7235 9.7953C25.6026 9.87592 25.522 9.95654 25.4011 10.0372C25.3204 10.1178 25.2398 10.1581 25.1189 10.2387C23.9096 11.1255 22.8212 12.2542 21.9344 13.5844C21.6522 13.9875 21.4104 14.3906 21.2088 14.834C20.2817 16.5271 19.6367 18.4619 19.3546 20.558C19.3546 20.6387 19.3546 20.679 19.3143 20.7596C19.3143 20.558 19.3143 20.3968 19.3143 20.2759C19.274 19.6309 19.2336 18.986 19.2336 18.3007C19.2336 18.2604 19.2336 18.1798 19.2336 18.1395C19.2336 17.696 19.2336 17.2929 19.274 16.8898C19.3143 16.5271 19.3546 16.2046 19.3949 15.8418C19.677 13.7457 20.322 11.8108 21.2491 10.1178C21.491 9.67437 21.7329 9.27128 21.9747 8.86818C22.8615 7.53795 23.9499 6.40927 25.1592 5.52246C25.2398 5.44184 25.3204 5.40153 25.4414 5.32091C25.5623 5.24029 25.6429 5.15967 25.7638 5.07905C26.2073 4.79688 26.6507 4.55502 27.0941 4.31316C28.4243 3.6682 29.8755 3.30541 31.3669 3.2651C31.3669 3.2651 31.3669 3.2651 31.4072 3.2651C31.4878 3.2651 31.5685 3.2651 31.6491 3.2651H31.6894Z" fill="#222434"/>
<path d="M44.1855 18.3007C44.1855 18.5023 44.1855 18.7038 44.1855 18.9054C44.1452 19.51 44.1049 20.0743 44.0646 20.679C44.0646 20.6387 44.0646 20.5984 44.0646 20.5581V20.5178C43.7824 18.5829 43.2181 16.8092 42.4119 15.1968C42.3715 15.1162 42.3312 14.9953 42.2506 14.9147C41.4444 13.3829 40.356 12.0124 39.1468 10.924C38.8243 10.6418 38.4615 10.3597 38.139 10.1178C38.0987 10.0775 38.0987 10.0775 38.0584 10.0372C37.494 9.63408 36.8894 9.3116 36.2848 9.02944C35.4786 8.66665 34.6724 8.38448 33.7855 8.22324C33.6646 8.22324 33.584 8.18293 33.4631 8.18293C33.3421 8.14262 33.1809 8.14262 33.06 8.14262C32.8181 8.10231 32.5762 8.10231 32.3344 8.062C32.1328 8.062 31.9313 8.02169 31.7297 8.02169V3.26512C31.9313 3.26512 32.1328 3.26512 32.3344 3.30543C32.5762 3.30543 32.8181 3.34574 33.06 3.38605C33.1809 3.38605 33.3421 3.42636 33.4631 3.42636C33.584 3.42636 33.6646 3.46667 33.7855 3.46667C34.6724 3.62791 35.4786 3.91008 36.2848 4.27287C36.8894 4.55504 37.494 4.87752 38.0584 5.28062C38.0987 5.28062 38.0987 5.32093 38.139 5.36124C38.5018 5.60309 38.8243 5.88526 39.1468 6.16743C40.3964 7.2558 41.4444 8.58603 42.2506 10.1581C42.2909 10.2387 42.3312 10.3194 42.4119 10.4403C43.2181 12.0527 43.7824 13.8263 44.0646 15.7612V15.8015C44.1049 16.124 44.1452 16.4868 44.1855 16.8496C44.2258 17.2527 44.2258 17.6961 44.2258 18.0992C44.1855 18.1798 44.1855 18.2201 44.1855 18.3007Z" fill="#222434"/>
<path d="M39.6707 6.57031L37.6956 9.91603" stroke="#BA5643" stroke-miterlimit="10"/>
<path d="M70.9914 104.403C67.2829 106.136 62.7279 103.959 60.914 99.6462L45.5156 62.9642C43.2985 57.6836 45.3947 51.8387 50.0706 50.1859C54.545 48.6139 59.5837 51.5162 61.3977 56.6758L74.5387 94.2446C75.9899 98.3966 74.4581 102.79 70.9914 104.403Z" fill="#FFAC1A"/>
<path d="M-7.61275 104.403C-3.90424 106.136 0.650777 103.959 2.46472 99.6462L17.8631 62.9642C20.0801 57.6836 17.984 51.8387 13.3081 50.1859C8.83368 48.6139 3.79495 51.5162 1.981 56.6758L-11.2003 94.2446C-12.6515 98.3966 -11.0794 102.79 -7.61275 104.403Z" fill="#FFAC1A"/>
<path d="M60.511 61.5936L56.48 71.3486L52.9327 91.9873L9.88176 91.6245L6.97945 71.8726L2.94846 61.3114C0.812038 55.7084 4.96396 49.7425 10.9298 49.7425H52.6506C58.7373 49.7828 62.849 55.9502 60.511 61.5936Z" fill="#FFBB35"/>
<mask id="mask0_101_44909" style="mask-type:luminance" maskUnits="userSpaceOnUse" x="2" y="49" width="60" height="43">
<path d="M60.511 61.5936L56.48 71.3486L52.9327 91.9873L9.88176 91.6245L6.97945 71.8726L2.94846 61.3114C0.812038 55.7084 4.96396 49.7425 10.9298 49.7425H52.6506C58.7373 49.7828 62.849 55.9502 60.511 61.5936Z" fill="white"/>
</mask>
<g mask="url(#mask0_101_44909)">
<path d="M16.2507 37.8916V108.152" stroke="#FFC969" stroke-miterlimit="10"/>
<path d="M11.6152 37.8916V108.152" stroke="#FFC969" stroke-miterlimit="10"/>
<path d="M7.01978 37.8916V108.152" stroke="#FFC969" stroke-miterlimit="10"/>
<path d="M20.8462 37.8916V108.152" stroke="#FFC969" stroke-miterlimit="10"/>
<path d="M25.4412 37.8916V108.152" stroke="#FFC969" stroke-miterlimit="10"/>
<path d="M30.0369 37.8916V108.152" stroke="#FFC969" stroke-miterlimit="10"/>
<path d="M34.6726 37.8916V108.152" stroke="#FFC969" stroke-miterlimit="10"/>
<path d="M39.2676 37.8916V108.152" stroke="#FFC969" stroke-miterlimit="10"/>
<path d="M43.8628 37.8916V108.152" stroke="#FFC969" stroke-miterlimit="10"/>
<path d="M48.4583 37.8916V108.152" stroke="#FFC969" stroke-miterlimit="10"/>
<path d="M53.0537 37.8916V108.152" stroke="#FFC969" stroke-miterlimit="10"/>
<path d="M57.6892 37.8916V108.152" stroke="#FFC969" stroke-miterlimit="10"/>
</g>
<path d="M39.5095 51.6371L39.4289 51.7177C34.5917 55.0634 28.1824 55.0634 23.3452 51.6371V47.1627L23.4258 47.2433C28.263 50.589 34.6723 50.5487 39.5095 47.1627V51.6371Z" fill="#FF9D00"/>
<path d="M31.125 49.0978L31.7296 51.8792C32.173 53.935 31.2056 56.0311 29.311 56.9583L31.125 49.0978Z" fill="#FF9D00"/>
<path d="M23.5469 45.1473C25.6028 47.6062 31.1252 49.0977 31.1252 49.0977L29.3113 56.9581C29.3113 56.9581 23.3454 53.7736 23.0632 50.307C23.1439 48.7349 23.4663 46.7597 23.5469 45.1473Z" fill="#FFCE00"/>
<path d="M32.2536 49.0978L31.649 51.8792C31.2055 53.935 32.173 56.0311 34.0675 56.9582L32.2536 49.0978Z" fill="#FF9D00"/>
<path d="M39.8317 45.1472C37.7759 47.6061 32.2534 49.0976 32.2534 49.0976L34.0674 56.958C34.0674 56.958 40.0332 53.7735 40.3154 50.3069C40.1945 48.7348 39.9123 46.7596 39.8317 45.1472Z" fill="#FFCE00"/>
<path d="M32.0925 54.3783V89.327" stroke="#FF8D08" stroke-miterlimit="10"/>
</svg>
