<svg width="236" height="90" viewBox="0 0 236 90" fill="none" xmlns="http://www.w3.org/2000/svg">
<g id="Union">
<mask id="path-1-inside-1_143_21907" fill="white">
<path fill-rule="evenodd" clip-rule="evenodd" d="M236 10C236 4.47715 231.523 0 226 0H15.0001C15.0001 0 15.0001 6.15344e-06 15.0001 1.37441e-05V1.37441e-05C15.0001 2.13347e-05 15.0001 2.74882e-05 15.0001 2.74882e-05L5.02544 2.04115e-05C0.443581 1.67971e-05 -1.7252 5.64984 1.67976 8.71572L11.0546 17.157V17.157C12.7405 18.675 15.0001 20.4057 15.0001 22.6743V80C15.0001 85.5228 19.4772 90 25.0001 90H226C231.523 90 236 85.5228 236 80V10Z"/>
</mask>
<path fill-rule="evenodd" clip-rule="evenodd" d="M236 10C236 4.47715 231.523 0 226 0H15.0001C15.0001 0 15.0001 6.15344e-06 15.0001 1.37441e-05V1.37441e-05C15.0001 2.13347e-05 15.0001 2.74882e-05 15.0001 2.74882e-05L5.02544 2.04115e-05C0.443581 1.67971e-05 -1.7252 5.64984 1.67976 8.71572L11.0546 17.157V17.157C12.7405 18.675 15.0001 20.4057 15.0001 22.6743V80C15.0001 85.5228 19.4772 90 25.0001 90H226C231.523 90 236 85.5228 236 80V10Z" fill="white"/>
<path d="M5.02544 2.04115e-05L5.02544 3.00002L5.02544 3.00002L5.02544 2.04115e-05ZM1.67976 8.71572L3.68717 6.4863L3.68717 6.4863L1.67976 8.71572ZM15.0001 3H226V-3H15.0001V3ZM5.02544 3.00002L15.0001 3.00003L15.0001 -2.99997L5.02544 -2.99998L5.02544 3.00002ZM3.68717 6.4863C2.32518 5.25995 3.1927 3.00002 5.02544 3.00002L5.02544 -2.99998C-2.30553 -2.99999 -5.77559 6.03973 -0.327645 10.9451L3.68717 6.4863ZM13.0621 14.9276L3.68717 6.4863L-0.327646 10.9451L9.04724 19.3864L13.0621 14.9276ZM18.0001 80V22.6743H12.0001V80H18.0001ZM226 87H25.0001V93H226V87ZM233 10V80H239V10H233ZM226 93C233.18 93 239 87.1797 239 80H233C233 83.866 229.866 87 226 87V93ZM12.0001 80C12.0001 87.1797 17.8204 93 25.0001 93V87C21.1341 87 18.0001 83.866 18.0001 80H12.0001ZM12.0001 1.37441e-05C12.0001 -1.45818 13.1513 -2.99997 15.0001 -2.99997L15.0001 3.00003C16.8488 3.00003 18.0001 1.45823 18.0001 1.37441e-05H12.0001ZM9.04724 19.3864C10.0344 20.2753 10.7725 20.8749 11.3806 21.5852C11.9592 22.261 12.0001 22.5814 12.0001 22.6743H18.0001C18.0001 20.4986 16.9111 18.8193 15.9385 17.6832C14.9954 16.5815 13.7608 15.5567 13.062 14.9276L9.04724 19.3864ZM226 3C229.866 3 233 6.13401 233 10H239C239 2.8203 233.18 -3 226 -3V3ZM15.0001 -3C13.3432 -3 12.0001 -1.65685 12.0001 1.37441e-05H18.0001C18.0001 1.65686 16.6569 3 15.0001 3V-3Z" fill="url(#paint0_linear_143_21907)" mask="url(#path-1-inside-1_143_21907)"/>
</g>
<defs>
<linearGradient id="paint0_linear_143_21907" x1="10.5001" y1="35" x2="236" y2="33.5" gradientUnits="userSpaceOnUse">
<stop stop-color="#808080"/>
<stop offset="0.39593" stop-color="#DBDCDE"/>
<stop offset="0.628542" stop-color="#DBDCDE"/>
<stop offset="1" stop-color="#808080"/>
</linearGradient>
</defs>
</svg>
