<svg width="55" height="57" viewBox="0 0 55 57" fill="none" xmlns="http://www.w3.org/2000/svg">
<path d="M53.4213 57.0217H0.830444L1.04144 56.5975C3.27009 52.3817 5.69655 50.4594 5.69655 50.4594C7.37134 49.0276 9.7978 48.9348 11.0242 48.9878C11.1693 48.9613 11.3275 48.9348 11.4726 48.9083C12.2902 48.7889 13.121 48.7757 13.9386 48.7757C16.3123 48.7757 18.6728 48.8552 21.0334 49.0011L22.0356 48.7492C23.0378 48.5901 24.0269 48.2852 24.95 47.8609C25.2929 47.3306 25.5698 46.7738 25.794 46.1905L25.9127 45.6867C26.216 44.4803 26.3742 43.2341 26.361 41.988C25.939 41.9482 25.5039 42.0145 25.0687 42.1205C24.8972 42.1603 24.7258 42.2133 24.5544 42.2664C23.6576 42.5448 22.629 42.8497 21.8246 42.3592C21.4026 42.1073 21.1125 41.6698 20.8487 41.2588L19.2531 38.7664C19.2003 38.6736 19.1344 38.5941 19.0816 38.5013C16.9189 35.5449 14.954 32.3234 14.1892 28.7439C13.965 27.6966 13.8463 26.6095 14.0045 25.5489C14.0177 25.4826 14.0309 25.4031 14.0441 25.3368C14.0441 25.3368 14.0441 25.3368 14.0309 25.3368C13.8859 25.2838 13.7804 25.1645 13.6749 25.0451C12.6463 23.8652 11.644 22.5263 11.4462 20.9619C11.3407 20.1399 11.4594 19.2915 11.4858 18.4695C11.5253 17.3957 11.3935 16.2953 11.5517 15.2348C11.5517 15.1817 11.5649 15.1419 11.5781 15.0889C11.7231 14.2537 12.0924 13.4185 12.7122 12.8882C12.6462 11.8276 12.7517 10.767 13.1737 9.78601C13.9386 7.99627 15.6266 6.73683 17.4464 6.08722C19.2663 5.43762 21.2312 5.30504 23.1565 5.23876C25.517 5.15921 27.9303 5.14596 30.1721 5.84859C32.1502 6.47168 33.9173 7.59855 35.6053 8.77845C37.1482 9.85229 38.7175 11.0587 39.878 12.5037C39.9307 12.7954 39.9703 13.0871 40.0231 13.3655C40.0231 14.3863 39.5879 15.3143 38.8758 16.2025C38.4274 16.7726 38.9813 17.6343 39.6802 17.2499C40.3791 16.8521 41.0385 16.7196 41.8033 17.0245C41.8561 17.051 41.9088 17.0643 41.9616 17.0643C42.1858 17.2101 42.3704 17.4222 42.4891 17.6608C42.6605 17.979 42.7396 18.3502 42.8188 18.7082C42.8979 19.0794 42.977 19.4506 43.0561 19.8218C43.1616 20.2858 43.2671 20.763 43.3331 21.2403C43.4649 22.1683 43.4386 23.1493 43.0166 23.9846C42.7528 24.5016 42.3572 24.9391 41.9616 25.3766C41.6846 25.6815 41.3945 25.9864 41.0253 26.1588C40.9198 26.2118 40.8011 26.2516 40.6956 26.2781C40.3791 31.4749 40.6956 36.7116 41.6451 41.8289C41.5792 41.8952 41.5264 41.9482 41.4737 42.0145C41.6847 42.6243 41.8956 43.2341 42.1462 43.8175C42.9902 45.7133 44.3749 47.3174 45.654 48.948C46.3002 49.77 46.9332 50.6317 47.4607 51.5332C48.7662 51.7321 50.0454 52.0635 51.0872 52.8457C52.3927 53.8135 52.9993 55.4043 53.4213 57.0217Z" fill="#FFB8B0"/>
<path d="M15.6662 17.2499C15.6662 17.2499 15.165 11.3901 22.0092 10.1705L21.9301 4.35051L20.2685 2.97176L14.3738 8.43376L13.4243 15.6325L15.6662 17.2499Z" fill="#FFA48E"/>
<path d="M25.0819 42.1338C24.9105 42.1736 24.7391 42.2266 24.5676 42.2796C23.6709 42.558 22.6423 42.8629 21.8379 42.3724C21.4159 42.1205 21.1257 41.683 20.862 41.2721L19.2663 38.7797C19.2136 38.6869 19.1477 38.6073 19.0949 38.5145C16.9322 35.5582 14.9673 32.3367 14.2024 28.7572C13.9782 27.7099 13.8596 26.6228 14.0178 25.5622C14.031 25.4959 14.0442 25.4163 14.0574 25.3501C14.0574 25.3501 14.0574 25.3501 14.0442 25.3501C13.8991 25.297 13.7936 25.1777 13.6881 25.0584C12.6595 23.8785 11.6573 22.5395 11.4595 20.9752C11.354 20.1532 11.4727 19.3047 11.499 18.4828C11.5386 17.4089 11.4067 16.3086 11.565 15.248C11.565 15.195 11.5782 15.1552 11.5913 15.1022L13.7013 11.5625L15.1519 13.0208C15.1255 13.8162 15.8508 18.337 15.8508 18.337C15.8508 18.337 16.1014 20.6968 16.4575 21.8104C16.8003 22.9372 17.6839 23.6134 17.6839 23.6134C18.0004 24.9523 17.8157 26.636 17.8157 26.636L17.6179 28.4788C17.6179 28.4788 16.9849 31.0109 18.7125 30.5469C21.5477 29.7913 22.4049 31.0374 22.4049 31.0374C22.3126 31.6605 21.8115 31.8594 21.8115 31.8594C21.284 32.0317 20.2554 32.1511 20.2554 32.1511C20.8752 32.7741 20.7038 33.1586 20.7038 33.1586L20.5719 34.2722L19.9653 34.4048L20.6246 35.5184L24.2775 36.9634C24.4489 38.4748 23.4335 38.7267 23.4335 38.7267L21.1785 39.4558C22.3522 41.6168 24.1193 42.0542 25.0819 42.1338Z" fill="#FFA48E"/>
<path d="M14.0705 25.297C14.4002 24.9523 14.9145 24.6474 15.3628 24.4751C15.8903 24.263 16.4837 24.4088 17.0508 24.4486C17.1827 24.5148 17.3014 24.5811 17.4332 24.6342C17.5783 24.7005 17.7233 24.78 17.8684 24.8595C17.8684 24.9126 17.8816 24.9789 17.8816 25.0319C17.2222 25.7875 16.2727 26.3046 15.2705 26.4239C15.1123 26.4372 14.9408 26.4504 14.7826 26.3974C14.6639 26.3576 14.5716 26.2913 14.4661 26.225C14.3474 26.1322 14.2419 26.0394 14.1628 25.9201C14.0573 25.761 13.9913 25.5754 13.9518 25.3898C13.9913 25.3633 14.0309 25.3235 14.0705 25.297Z" fill="#FEFEFE"/>
<path d="M37.7153 14.4393C38.1372 14.6249 38.5592 14.8238 39.0076 14.9298C39.4428 15.0359 39.9043 15.0359 40.3395 15.1287C40.4582 15.1552 40.5769 15.1817 40.6824 15.2082C40.7615 15.3673 40.8275 15.5397 40.8143 15.712C40.8011 15.8844 40.7088 16.0435 40.6165 16.176C40.1417 16.9317 39.4824 17.568 38.968 18.2839C38.4669 18.9733 38.2427 19.7688 38.1636 20.6702C37.7812 20.9354 37.346 21.1077 36.8845 21.1873C36.5284 21.2536 36.1328 21.2536 35.8163 21.0812C35.513 20.9089 35.3152 20.604 35.1569 20.2858C34.5899 19.1324 34.4712 17.7404 33.6008 16.7991C33.258 16.4412 32.836 16.176 32.4535 15.8446C31.6491 15.142 31.1216 14.1742 30.4754 13.339C29.9875 12.7026 29.4205 12.1458 28.8402 11.6023C29.46 11.8144 30.1194 11.9602 30.7656 12.1193C33.1525 12.7026 35.4866 13.445 37.7153 14.4393Z" fill="#070B24"/>
<path d="M22.6554 23.2952C23.2488 22.6456 24.106 22.3141 24.9368 22.0623C25.3324 21.9429 25.728 21.8501 26.1368 21.8634C26.4533 21.8767 26.7566 21.9562 27.0468 22.0755C27.205 22.1285 27.3501 22.1816 27.4951 22.2479C27.4951 22.2611 27.4819 22.2611 27.4819 22.2744C27.4819 22.2744 27.4951 22.2744 27.4951 22.2876C27.4951 22.3009 27.4951 22.3009 27.4951 22.3141L27.4687 22.3009C27.3896 22.4467 27.3105 22.5793 27.2314 22.7251C27.1654 22.8444 27.0863 22.9638 26.994 23.0698C26.9149 23.1494 26.8226 23.2024 26.7303 23.2687C26.1632 23.6266 25.5698 23.9448 24.95 24.2099C24.7258 24.3027 24.4884 24.3955 24.2379 24.4221C23.6708 24.4883 23.1169 24.2365 22.6158 23.9846C22.484 23.9183 22.3653 23.8653 22.2334 23.799C22.3785 23.6266 22.5103 23.4543 22.6554 23.2952Z" fill="white"/>
<path d="M11.4858 15.9904C12.1583 14.8503 12.2638 13.9621 13.4639 13.2992C13.8199 13.1003 14.5584 13.0473 15.165 13.0341C15.2573 13.0341 15.3497 13.0341 15.442 13.0341C15.4815 12.9678 15.5211 12.9015 15.5607 12.8352C16.2596 11.6818 17.697 10.6212 18.963 10.2633C20.4399 9.85231 22.0092 10.1175 23.4994 10.4224C26.4402 11.0189 29.3809 11.7216 32.1107 12.9678C33.403 13.5643 34.6427 14.267 35.8427 15.0359C37.0691 15.8313 38.2692 16.6798 39.456 17.5548C39.4692 17.5415 39.4824 17.5283 39.4824 17.515C39.5351 17.4487 39.6143 17.3824 39.7066 17.3427C39.7857 17.3029 39.878 17.2896 39.9835 17.2896C39.9967 17.2896 40.0099 17.2896 40.0099 17.2896C40.0758 17.1571 40.1813 17.0378 40.3264 16.9847C40.3791 16.9582 40.4451 16.945 40.511 16.945C40.5242 16.945 40.5506 16.945 40.5769 16.945C40.6561 16.945 40.722 16.9582 40.7747 16.9715C40.8407 16.9184 40.9066 16.8654 40.9989 16.8389C41.0649 16.8256 41.1308 16.8124 41.1967 16.8124C41.3022 16.8124 41.4077 16.8389 41.4869 16.8787C41.566 16.9184 41.6319 16.9715 41.6715 17.0245C41.8693 17.0643 42.0012 17.1968 42.0671 17.3559C42.2913 17.462 42.41 17.6874 42.4231 17.9127C42.5418 18.0321 42.6078 18.1911 42.621 18.3635C42.766 18.5093 42.832 18.7347 42.8056 18.9335C42.8056 18.9866 42.7924 19.0263 42.7792 19.0794C42.8847 19.2517 42.9111 19.4904 42.8451 19.6892C42.8451 19.7025 42.8451 19.7157 42.832 19.7157C42.9506 19.8748 43.0034 20.1002 42.9638 20.299C42.9902 20.3388 43.0034 20.3918 43.0166 20.4449C43.1616 20.5907 43.2935 20.7233 43.4254 20.8824C43.4386 20.8559 43.4386 20.8161 43.4386 20.7896C43.4781 20.604 43.5045 20.4184 43.5309 20.2328C43.5704 20.0074 43.5968 19.782 43.6232 19.5566V19.5434C43.6496 19.2782 43.6891 19.0264 43.7023 18.7612C43.7155 18.5623 43.7287 18.3502 43.7419 18.1381C43.7551 17.8067 43.7683 17.4752 43.7683 17.1438C43.7683 16.998 43.7683 16.8389 43.7683 16.6931C43.7683 16.3616 43.7551 16.0302 43.7287 15.6988C43.7155 15.5529 43.7155 15.4204 43.7023 15.2745C43.6759 14.9298 43.6364 14.5719 43.5836 14.2272C43.5704 14.1344 43.5573 14.0549 43.5441 13.9621C43.4781 13.5511 43.399 13.1401 43.2935 12.7291C43.2144 12.4242 43.1221 12.1193 43.0034 11.8144C42.9111 11.5492 42.8056 11.2974 42.6737 11.0587C42.41 10.5152 42.0803 9.99814 41.7638 9.4811C41.6055 9.22921 41.4605 8.97733 41.3154 8.72544C41.2759 8.64589 41.2363 8.56635 41.1967 8.50006C41.0253 8.15537 40.8539 7.81068 40.6956 7.45274C40.3527 6.72359 40.0099 6.00769 39.5351 5.37134C38.6911 4.25773 37.4911 3.47555 36.3043 2.75966C34.7218 1.71233 33.0338 0.757809 31.1744 0.307061C28.0754 -0.435347 24.8313 0.293804 21.7719 1.16878C20.6509 1.48696 19.5168 1.83165 18.4882 2.40171C16.2068 3.66115 14.6639 5.91489 13.4375 8.22166C12.1715 10.5947 11.2089 13.339 11.4858 15.9904Z" fill="#070B24"/>
<path d="M15.165 13.0473C15.2574 13.0473 15.3497 13.0473 15.442 13.0473C15.4815 12.981 15.5211 12.9147 15.5607 12.8485C15.5738 12.7822 15.5738 12.7159 15.587 12.6363C15.7321 11.2708 16.075 9.69322 16.6948 8.10234C16.9981 7.30691 17.3673 6.49821 17.8025 5.71603C18.2377 4.93385 18.7256 4.16493 19.2927 3.44904C19.2531 3.48881 18.9234 3.79373 18.4355 4.37705C17.9212 5.00014 17.2486 5.95466 16.6288 7.21411C16.009 8.47355 15.4815 10.0512 15.2705 11.8011C15.2046 12.2121 15.1782 12.6231 15.165 13.0473Z" fill="#FFA48E"/>
<path d="M40.6033 11.6288C40.2473 11.1117 40.0363 10.8068 40.0231 10.7671C41.0517 11.8674 42.0407 13.0208 42.8583 14.2007C43.2012 14.6912 43.5045 15.1685 43.7814 15.659C43.7946 15.9904 43.8078 16.3219 43.821 16.6533C43.2671 15.6192 42.6869 14.7045 42.1594 13.8958C41.5132 12.9545 40.9726 12.1723 40.6033 11.6288Z" fill="#040E9B"/>
<path d="M41.3023 11.4034C40.9594 10.9129 40.7484 10.6212 40.7352 10.5815C41.2495 11.0985 41.7375 11.6288 42.1858 12.1856C42.6342 12.7424 43.0562 13.3125 43.4386 13.8825C43.5046 13.9886 43.5705 14.0814 43.6364 14.1874C43.6892 14.5321 43.7287 14.8768 43.7551 15.2348C43.4122 14.6514 43.0826 14.0946 42.7661 13.6041C42.1726 12.6761 41.6583 11.9204 41.3023 11.4034Z" fill="#040E9B"/>
<path d="M40.3659 12.2916C40.1681 12.0132 39.9835 11.8011 39.8648 11.642C39.7461 11.4962 39.6934 11.4167 39.6934 11.4167C40.2736 11.9602 40.8275 12.5435 41.3286 13.1401C41.8297 13.7499 42.2913 14.3863 42.6869 15.0226C43.1221 15.712 43.5045 16.4147 43.8078 17.0908C43.8078 17.4222 43.7946 17.7536 43.7814 18.0851C43.2012 16.7991 42.5682 15.6325 41.9748 14.6514C41.355 13.6704 40.7879 12.8484 40.3659 12.2916Z" fill="#040E9B"/>
<path d="M40.3923 8.16863C40.1813 7.90349 40.0098 7.71789 39.9043 7.57206C39.7857 7.43948 39.7329 7.35994 39.7329 7.35994C40.3 7.85046 40.8538 8.36749 41.3681 8.91104C41.5264 9.08339 41.6846 9.25573 41.8297 9.42808C42.1462 9.94511 42.4759 10.4621 42.7396 11.0057C42.8583 11.2576 42.9638 11.5095 43.0693 11.7614C42.7264 11.2443 42.3967 10.7671 42.0802 10.3296C41.4077 9.42808 40.8143 8.68567 40.3923 8.16863Z" fill="#040E9B"/>
<path d="M40.7879 9.75949C40.3923 9.21594 40.1549 8.89777 40.1549 8.89777C40.7088 9.42806 41.2363 9.99812 41.7374 10.5814C42.2253 11.1648 42.6869 11.7613 43.1089 12.3579C43.188 12.464 43.2671 12.5833 43.3462 12.6893C43.4517 13.1003 43.5308 13.5113 43.5968 13.9223C43.1748 13.2462 42.7792 12.6098 42.3967 12.053C41.7506 11.0852 41.1967 10.303 40.7879 9.75949Z" fill="#040E9B"/>
<path d="M39.0736 5.88837C39.6538 6.36563 40.2209 6.88266 40.7616 7.41295C40.9198 7.7709 41.0913 8.11559 41.2627 8.46028C40.6825 7.74439 40.1813 7.14781 39.8121 6.72358C39.3374 6.18003 39.0736 5.88837 39.0736 5.88837Z" fill="#040E9B"/>
<path d="M41.5 15.5529C40.9197 14.5719 40.4054 13.7632 40.0362 13.2064C39.6933 12.6761 39.4823 12.3712 39.4559 12.3314C39.9702 12.8882 40.4714 13.4715 40.9197 14.0681C41.3813 14.6647 41.8033 15.2745 42.1857 15.8976C42.8055 16.8787 43.3198 17.8465 43.7418 18.7347C43.7154 18.9998 43.689 19.265 43.6627 19.5169C43.5704 19.3313 43.4781 19.1589 43.3857 18.9866C42.7396 17.7006 42.0802 16.534 41.5 15.5529Z" fill="#040E9B"/>
<path d="M35.8164 11.4299C35.4603 11.0587 35.1702 10.7936 34.9724 10.608C34.7746 10.4224 34.6691 10.3163 34.6691 10.3163C35.579 11.019 36.4625 11.7614 37.2933 12.5568C38.1109 13.3522 38.889 14.1742 39.6011 15.0227C40.1022 15.6192 40.577 16.2423 41.0253 16.8389C40.933 16.8654 40.8539 16.9052 40.8012 16.9715C40.7352 16.9582 40.6693 16.945 40.6033 16.945C40.577 16.945 40.5638 16.945 40.5374 16.945C39.8912 16.07 39.2714 15.2613 38.6648 14.5321C37.5439 13.1931 36.5417 12.1458 35.8164 11.4299Z" fill="#040E9B"/>
<path d="M35.0515 14.1211C36.0933 14.7708 37.0955 15.4734 38.0054 16.2158C38.5197 16.64 39.0208 17.0643 39.4824 17.5018C39.4692 17.515 39.456 17.5283 39.456 17.5415C38.2692 16.6798 37.0691 15.8181 35.8427 15.0226C34.8273 14.267 33.9305 13.6837 33.2316 13.2594C32.7701 12.9678 32.4008 12.7689 32.1503 12.6098C31.9129 12.4772 31.781 12.3977 31.7678 12.3844C32.9019 12.9147 33.9965 13.4848 35.0515 14.1211Z" fill="#040E9B"/>
<path d="M34.036 12.9678C33.2448 12.411 32.77 12.0928 32.7437 12.0795C34.7086 13.1401 36.6603 14.2802 38.3614 15.5927C38.2559 15.4867 38.1504 15.3939 38.0449 15.301C36.7394 14.1079 35.5657 13.1931 34.7613 12.5435C33.9964 11.9337 33.5481 11.5758 33.4953 11.536C35.4734 12.7954 37.4251 14.1477 39.0604 15.6723C39.5219 16.0965 39.9439 16.534 40.3527 16.9715C40.1945 17.0378 40.089 17.1438 40.0362 17.2764C40.023 17.2764 40.0098 17.2764 40.0098 17.2764C39.9043 17.2764 39.812 17.3029 39.7329 17.3294C38.9417 16.587 38.1636 15.9374 37.4251 15.3673C36.0405 14.3333 34.8536 13.5378 34.036 12.9678Z" fill="#040E9B"/>
<path d="M42.8715 19.6759C42.9242 19.7688 42.977 19.8616 43.0297 19.9544C43.188 20.2328 43.333 20.4979 43.4649 20.763C43.4649 20.7896 43.4517 20.8293 43.4517 20.8558C43.3198 20.71 43.1748 20.5642 43.0429 20.4184C43.0297 20.3653 43.0165 20.3256 42.9901 20.2725C43.0297 20.0737 42.9901 19.8483 42.8583 19.6892C42.8583 19.6892 42.8583 19.6892 42.8715 19.6759Z" fill="#2E40B5"/>
<path d="M40.867 15.2215C41.4868 16.0169 42.0407 16.8124 42.5418 17.5813C42.9638 18.2442 43.333 18.8938 43.6627 19.5301C43.6363 19.7555 43.5968 19.9809 43.5704 20.2062C43.399 19.8881 43.2143 19.5699 43.0429 19.2517C42.977 19.1324 42.911 19.0263 42.8451 18.9203C42.8187 18.8805 42.7923 18.8275 42.766 18.7877C42.7923 18.6286 42.7528 18.4563 42.6737 18.3104C42.6605 18.1911 42.6209 18.0718 42.5418 17.979C42.5286 17.8464 42.4759 17.7271 42.3835 17.6211C42.344 17.5017 42.278 17.3957 42.1857 17.3161C42.133 17.2101 42.0407 17.1173 41.922 17.0643C41.8297 16.9582 41.6978 16.8786 41.5264 16.8654C40.9989 16.1097 40.4846 15.4071 40.0098 14.7707C39.0472 13.498 38.2164 12.464 37.6361 11.7348C37.0954 11.0454 36.7789 10.6345 36.7394 10.5947C38.2032 12.0795 39.6406 13.6439 40.867 15.2215Z" fill="#040E9B"/>
<path d="M22.9323 23.03C22.9059 23.2024 22.9191 23.3747 22.9587 23.5471C23.051 23.8785 23.2752 24.1702 23.5785 24.316L24.251 24.4751C23.5653 24.3823 22.8927 24.1569 22.2993 23.799C22.3784 23.6399 22.4707 23.4941 22.5762 23.3747C22.6949 23.2422 22.8136 23.1361 22.9323 23.03Z" fill="#2E40B5"/>
<path d="M26.6511 22.0225C26.8226 22.407 26.8489 22.871 26.7039 23.2687C26.7962 23.2156 26.9017 23.1626 26.9808 23.0963C27.0863 23.0035 27.1523 22.8975 27.2182 22.7782C27.3237 22.5926 27.4424 22.407 27.5083 22.2081C27.2182 22.102 26.9149 22.0092 26.6116 21.9562C26.6248 21.9827 26.6379 21.996 26.6511 22.0225Z" fill="#2E40B5"/>
<path d="M18.6729 35.1605C18.7388 34.9616 18.8179 34.7627 18.9498 34.5904C19.0817 34.4181 19.2795 34.2987 19.4905 34.2987C19.6619 34.2987 19.8466 34.3783 19.9916 34.2987C20.0971 34.2457 20.1499 34.1396 20.229 34.0601C20.4268 33.848 20.7301 33.7552 21.0202 33.7552C21.3103 33.7684 21.5873 33.8612 21.8642 33.9673C22.1807 34.0866 22.4972 34.2325 22.8137 34.365C23.0774 34.4843 23.3676 34.5241 23.6445 34.5904C24.317 34.7627 25.0292 34.8821 25.7281 34.7495C25.7676 34.7362 25.8204 34.7362 25.86 34.7627C25.8863 34.7893 25.8995 34.829 25.8995 34.8555C25.9259 35.0942 25.7281 35.293 25.5567 35.4654C25.0687 35.9426 24.6731 36.4994 24.2379 37.0165C24.0929 37.2021 23.9346 37.3744 23.75 37.5335C23.5126 37.7456 23.2225 37.8915 22.9324 38.0108C22.6554 38.1168 22.3521 38.1831 22.062 38.2361C21.6532 38.3157 21.2444 38.4085 20.8356 38.4218C20.4268 38.435 19.9916 38.3555 19.6356 38.1566C19.4641 38.0638 19.3059 37.9312 19.1872 37.7589C18.9762 37.4672 18.9366 37.0828 18.9234 36.7248C18.9234 36.685 18.9234 36.6453 18.9234 36.5922C18.7388 36.4994 18.5938 36.2873 18.5542 36.0752C18.4619 35.7836 18.5674 35.4654 18.6729 35.1605Z" fill="#2E40B5"/>
<path d="M25.3456 47.5428C26.0709 45.6204 26.4929 43.5788 26.6247 41.5239C28.5237 40.8611 30.2644 39.7342 31.8997 38.5543C33.8909 37.1225 35.869 35.5051 37.0163 33.3309C37.0559 33.2514 37.1086 33.1586 37.1482 33.0658C36.7789 34.4711 36.1987 35.8233 35.513 37.096C34.3789 39.1774 32.9283 41.0865 31.4908 42.969C29.7238 45.289 27.9567 47.6223 26.1764 49.9423C25.4906 50.8571 24.5543 51.8646 23.4334 51.6658C22.7477 51.5465 22.2202 51.0029 21.5476 50.8173C20.9938 50.6715 20.3212 50.7643 19.9256 50.34C19.741 50.1544 19.6619 49.8893 19.5827 49.6507C19.4904 49.3723 19.3849 49.0939 19.2662 48.8155C20.6773 48.7757 22.1015 48.6829 23.4598 48.2852C24.106 48.0996 24.739 47.8344 25.3456 47.5428Z" fill="#FFA48E"/>
<path d="M53.4214 57.0217H49.9795C46.3925 49.5711 38.7835 54.4498 38.6516 54.5294C41.1572 51.0957 47.4475 51.5067 47.4475 51.5067C48.7531 51.7056 50.0322 52.037 51.074 52.8192C52.3928 53.8135 52.9994 55.4043 53.4214 57.0217Z" fill="#FFA48E"/>
<path d="M31.7415 53.1506C32.5723 53.3495 33.4558 53.4688 34.3525 53.482C35.2493 53.4953 36.1592 53.4423 37.0427 53.3229C38.823 53.1108 40.5242 52.7396 42.0275 52.5142C43.5309 52.2889 44.8364 52.1563 45.7595 52.2358C46.2211 52.2756 46.5771 52.3684 46.8145 52.4347C46.9332 52.4745 47.0255 52.501 47.0915 52.5275C47.1574 52.554 47.1838 52.5673 47.1838 52.5673C46.709 52.3021 46.1683 52.1563 45.6408 52.09C45.1134 52.0105 44.5859 52.0105 44.0584 52.0237C43.0298 52.0502 42.0407 52.1696 41.1176 52.3021C40.1945 52.4347 39.311 52.5938 38.4933 52.7396C37.6757 52.8854 36.9241 53.0048 36.2251 53.0843C34.8405 53.2567 33.7195 53.2832 32.9415 53.2567C32.5591 53.2434 32.2558 53.2169 32.0448 53.1904C31.847 53.1506 31.7415 53.1506 31.7415 53.1506Z" fill="#FFA48E"/>
<path d="M15.9958 57.0217H0.830444L1.04144 56.5975C3.27009 52.3817 5.69655 50.4594 5.69655 50.4594C7.37134 49.0276 9.7978 48.9348 11.0242 48.9878C11.1693 48.9613 11.3275 48.9348 11.4726 48.9083C11.1561 49.0541 10.8528 49.2132 10.5627 49.3988C10.2066 49.6242 9.85054 49.9291 9.7978 50.3401C9.74505 50.7775 10.0484 51.1753 10.3648 51.4669C11.3935 52.4347 12.7517 52.965 14.0705 53.4953C14.8881 53.8267 15.7848 54.251 16.1145 55.0729C16.3519 55.7093 16.2068 56.3854 15.9958 57.0217Z" fill="#FFA48E"/>
<path d="M18.6861 32.6151C18.0531 32.5753 17.4069 32.2704 16.9981 31.7533C16.7871 31.5015 16.6421 31.1833 16.5629 30.8651C16.4838 30.5469 16.4838 30.2022 16.5497 29.8841C16.6157 29.5659 16.7739 29.261 16.9322 29.0223C17.1036 28.7705 17.2487 28.5583 17.341 28.3197C17.5256 27.8292 17.5652 27.3122 17.6179 26.8349C17.6707 26.3576 17.7102 25.9069 17.7366 25.5224C17.763 25.1247 17.763 24.7933 17.7498 24.5016C17.7366 24.2232 17.7102 23.9978 17.697 23.8387C17.6707 23.6929 17.6575 23.6134 17.6575 23.6134C17.8685 24.2365 17.9476 24.8861 17.9476 25.5357C17.9476 25.8539 17.9476 26.172 17.9344 26.4902C17.9212 26.8084 17.908 27.1133 17.8685 27.4182C17.8421 27.7231 17.7894 28.028 17.697 28.333C17.6443 28.4788 17.5915 28.6246 17.5124 28.7572C17.4333 28.8898 17.3542 29.0091 17.275 29.1284C17.1168 29.3538 16.9849 29.5659 16.9058 29.7913C16.8267 30.0166 16.7871 30.2553 16.8003 30.4806C16.8003 30.9314 16.9586 31.3424 17.1696 31.6473C17.3805 31.9522 17.6443 32.1643 17.8817 32.3102C18.119 32.456 18.33 32.5223 18.4619 32.5753C18.5278 32.6018 18.5938 32.6151 18.6333 32.6151C18.6729 32.6018 18.6861 32.6151 18.6861 32.6151Z" fill="#070B24"/>
<path d="M22.0224 29.4466C22.1938 29.4996 22.3257 29.6587 22.4048 29.8178C22.484 29.9769 22.5235 30.1492 22.5499 30.3215C22.5631 30.4011 22.5631 30.4939 22.5631 30.5734C22.5631 30.6132 22.5631 30.653 22.5631 30.6927C22.5631 30.7458 22.5499 30.7723 22.5499 30.8121C22.5235 30.9711 22.484 31.117 22.4312 31.2363C22.3257 31.4882 22.1543 31.6738 22.0224 31.7533C21.9565 31.7931 21.8905 31.8196 21.851 31.8329C21.8114 31.8461 21.785 31.8461 21.785 31.8461C21.9301 31.7401 22.0356 31.6075 22.1015 31.4617C22.1675 31.3158 22.2202 31.17 22.2598 31.0109C22.2862 30.8651 22.3257 30.706 22.3257 30.5734C22.3257 30.4276 22.3257 30.295 22.3125 30.1757C22.2993 29.9238 22.2466 29.725 22.1675 29.6057C22.1015 29.4996 22.0224 29.4466 22.0224 29.4466Z" fill="#070B24"/>
<path d="M19.3718 31.4352C19.4114 31.3026 19.5169 31.1965 19.6356 31.117C19.7543 31.0374 19.8993 30.9977 20.0312 30.9844C20.1631 30.9579 20.2949 30.9579 20.4004 30.9579C20.5191 30.9579 20.6378 30.9712 20.7301 30.9844C20.8356 30.9977 20.9279 31.0242 21.007 31.0507C21.0466 31.064 21.0994 31.0905 21.1257 31.1302C21.1521 31.17 21.1521 31.223 21.1521 31.2496C21.1389 31.3158 21.0994 31.3556 21.073 31.3821C21.0466 31.4086 21.0334 31.4086 21.0334 31.4086C21.073 31.3424 21.0994 31.2893 21.0862 31.2363C21.073 31.1833 21.0466 31.17 20.9807 31.17C20.8488 31.1568 20.7301 31.1568 20.5982 31.1568C20.3477 31.1568 20.1103 31.1568 19.9257 31.1833C19.7411 31.2098 19.5828 31.2628 19.4905 31.3291C19.4378 31.3556 19.4114 31.3954 19.385 31.4086C19.385 31.4219 19.3718 31.4352 19.3718 31.4352Z" fill="#070B24"/>
<path d="M20.8751 31.0507C20.9146 31.0507 20.9542 31.064 20.9938 31.0772C21.0465 31.0905 21.0993 31.117 21.1256 31.1568C21.1652 31.2098 21.1388 31.2893 21.0993 31.3424C21.0069 31.4882 20.8355 31.5677 20.6641 31.5677C20.6113 31.5677 20.5454 31.5677 20.4926 31.5677C20.4399 31.5677 20.3871 31.5677 20.3344 31.5677C20.0707 31.5545 19.8201 31.3821 19.7278 31.1435V31.1302L19.741 31.117C19.8069 31.0905 19.886 31.0772 19.9652 31.064C20.163 31.0374 20.374 31.0242 20.585 31.0374L20.8751 31.0507Z" fill="#070B24"/>
<path d="M17.0508 30.7988C17.0508 30.7988 17.0508 30.8253 17.064 30.8518C17.0772 30.8916 17.0903 30.9446 17.1299 31.0109C17.1958 31.1435 17.3409 31.3158 17.5651 31.4617C17.7893 31.5942 18.0794 31.687 18.3959 31.7401C18.5014 31.7533 18.6069 31.7666 18.7124 31.7666C18.7124 31.7799 18.6992 31.8064 18.6992 31.8196C18.6596 32.045 18.6464 32.3234 18.6596 32.6018C18.6728 32.8935 18.7256 33.1984 18.8179 33.4768C18.8179 33.4768 18.8179 33.3972 18.8179 33.2647C18.8179 33.1321 18.8047 32.9465 18.8047 32.7211C18.8047 32.4957 18.8179 32.2306 18.8311 31.9522C18.8311 31.8859 18.8311 31.8196 18.8443 31.7533C18.8443 31.7136 18.8443 31.6738 18.8574 31.634C18.8179 31.634 18.7783 31.6208 18.7388 31.6075C18.686 31.5942 18.6201 31.581 18.5673 31.581C18.3299 31.528 18.0398 31.4749 17.7761 31.3689C17.486 31.2761 17.2222 31.0905 17.0508 30.7988Z" fill="#070B24"/>
<path d="M18.752 32.2173C18.4882 32.1511 18.264 31.9124 18.2377 31.634C18.3827 31.634 18.5278 31.634 18.6597 31.6738C18.6992 31.687 18.7388 31.687 18.7784 31.7003L18.752 32.2173Z" fill="#070B24"/>
<path d="M37.4252 27.1531C37.4384 27.0868 37.4647 27.0205 37.4779 26.9675C37.5175 26.8614 37.5439 26.7819 37.5702 26.7288C37.5966 26.6758 37.6098 26.6493 37.6098 26.6493L37.5571 26.8084C37.5439 26.8614 37.5307 26.9144 37.5175 26.9675C37.5043 27.0205 37.4911 27.0735 37.4911 27.1265C37.4911 27.1796 37.4779 27.2326 37.4779 27.2856V27.3652L37.4911 27.4447C37.5043 27.4977 37.5175 27.5508 37.5307 27.5905C37.5571 27.6303 37.5834 27.6833 37.6098 27.7099C37.6494 27.7496 37.6889 27.7762 37.7285 27.7894C37.7812 27.8159 37.8604 27.8159 37.9395 27.8159C37.979 27.8159 38.0186 27.8159 38.0582 27.8159C38.0977 27.8159 38.1373 27.8027 38.1637 27.7894C38.3087 27.7496 38.4406 27.6833 38.5593 27.5773C38.7967 27.3784 38.9549 27.0868 39.1791 26.8216C39.2846 26.6891 39.4033 26.5565 39.5615 26.4504C39.7066 26.3444 39.8912 26.2516 40.0626 26.225C40.2341 26.1853 40.3923 26.172 40.5242 26.1322C40.6561 26.0925 40.7616 26.0129 40.8803 25.9201C41.3682 25.5092 41.8297 25.0717 42.2122 24.5944C42.5946 24.1171 42.8847 23.5868 43.043 23.03C43.1221 22.7516 43.1616 22.4732 43.1748 22.1948C43.1748 21.9164 43.1485 21.6513 43.0825 21.3596C43.0166 21.068 42.9507 20.7896 42.8847 20.5112C42.8188 20.2328 42.766 19.9411 42.7133 19.6627C42.6078 19.0926 42.5682 18.5623 42.41 18.0983C42.2517 17.6476 41.9616 17.2499 41.5924 17.0908C41.2099 16.9317 40.7616 17.0112 40.3923 17.1703C40.2077 17.2499 40.0231 17.3559 39.8648 17.4752C39.7857 17.5283 39.7066 17.5946 39.6275 17.6608C39.5879 17.6874 39.5483 17.7271 39.522 17.7536C39.4824 17.7934 39.456 17.8199 39.4165 17.8597C39.1527 18.1248 38.9417 18.4165 38.7967 18.7082C38.6384 18.9998 38.5461 19.2915 38.4538 19.5566C38.3747 19.8218 38.3219 20.0604 38.2692 20.2725C38.2296 20.4846 38.19 20.6702 38.1637 20.8161C38.1109 21.1077 38.0845 21.2668 38.0845 21.2668C38.1109 20.71 38.1637 20.1665 38.2692 19.6229C38.3747 19.0794 38.5593 18.5358 38.8758 18.0586C39.034 17.8199 39.2187 17.5946 39.4296 17.409C39.6406 17.2234 39.8648 17.0377 40.1154 16.9052C40.3659 16.7726 40.6429 16.6665 40.933 16.6268C41.2231 16.587 41.5528 16.6268 41.8297 16.7593C42.1067 16.8919 42.3308 17.104 42.5023 17.3427C42.6737 17.5813 42.7924 17.8464 42.8715 18.1116C43.0298 18.6419 43.0825 19.1589 43.1748 19.6494C43.2671 20.14 43.3858 20.6172 43.5045 21.0945C43.5573 21.3331 43.61 21.585 43.6364 21.8501C43.6628 22.102 43.6496 22.3672 43.61 22.6191C43.5441 23.1096 43.3726 23.5736 43.1485 23.9846C42.9243 24.3955 42.6605 24.7535 42.3704 25.0717C42.0803 25.3898 41.777 25.6682 41.4737 25.9201C41.3154 26.0394 41.1836 26.1588 41.0121 26.2781C40.933 26.3311 40.8407 26.3841 40.7484 26.4372C40.6429 26.4769 40.5506 26.5035 40.4583 26.5167C40.2736 26.5432 40.1022 26.5432 39.9703 26.5963C39.8253 26.636 39.7066 26.7156 39.5879 26.8084C39.3637 26.994 39.1791 27.2459 38.9945 27.458C38.9022 27.564 38.7967 27.6701 38.6912 27.7496C38.5857 27.8292 38.467 27.9087 38.3351 27.9352C38.3087 27.9485 38.2692 27.9618 38.2428 27.9618C38.2164 27.9618 38.1769 27.975 38.1505 27.975C38.0845 27.9883 38.0318 27.9883 37.979 27.9883C37.9263 27.9883 37.8735 27.975 37.8208 27.975C37.768 27.9618 37.7021 27.9618 37.6625 27.922C37.6098 27.8955 37.5571 27.8557 37.5175 27.8027C37.4779 27.7629 37.4516 27.7099 37.4384 27.6568C37.4252 27.6038 37.412 27.564 37.3988 27.511C37.3856 27.458 37.3988 27.4182 37.3856 27.3784C37.3988 27.2989 37.412 27.2193 37.4252 27.1531Z" fill="#070B24"/>
<path d="M42.4759 20.9884C42.3836 20.6968 42.2781 20.4184 42.2121 20.1002C42.1462 19.7953 42.1462 19.4904 42.1198 19.2119C42.1066 19.0794 42.0803 18.9468 42.0407 18.8142C42.0011 18.6949 41.9484 18.5756 41.8825 18.4828C41.7506 18.2839 41.5528 18.1514 41.355 18.1381C41.355 18.2044 41.3682 18.2574 41.3682 18.3237C41.3813 18.4695 41.4077 18.5889 41.4209 18.7082C41.4473 18.8275 41.4605 18.9203 41.4868 19.0131C41.5 19.0926 41.5264 19.1589 41.5264 19.2119C41.5396 19.2517 41.5396 19.2782 41.5396 19.2782C41.4868 19.1987 41.4209 19.1191 41.3813 19.0263C41.3286 18.9468 41.289 18.854 41.2495 18.7612C41.2099 18.6684 41.1835 18.5756 41.1572 18.4828C41.1308 18.39 41.1044 18.2972 41.0912 18.2044C41.0912 18.2044 41.0912 18.2044 41.0912 18.1911C40.9725 18.2442 40.8539 18.3237 40.7352 18.4033C40.5374 18.5358 40.3791 18.7082 40.234 18.8805C39.9439 19.2252 39.7593 19.5964 39.6406 19.9544C39.5747 20.14 39.5219 20.3123 39.4956 20.4846C39.5879 20.4979 39.667 20.5112 39.7593 20.5244C39.8516 20.5509 39.9307 20.5642 40.0099 20.604C40.089 20.6305 40.1681 20.6703 40.234 20.6968C40.3791 20.7631 40.4978 20.8426 40.6033 20.9221C40.7088 21.0017 40.7879 21.068 40.8539 21.1343C40.9198 21.2005 40.9594 21.2536 40.9857 21.3066C41.0121 21.3464 41.0253 21.3729 41.0253 21.3729C40.9593 21.2933 40.8802 21.2271 40.8011 21.1608C40.722 21.0945 40.6297 21.0547 40.5505 21.0017C40.4582 20.9487 40.3791 20.9089 40.2868 20.8691C40.1945 20.8293 40.1154 20.7896 40.0231 20.7631C39.8252 20.6968 39.6406 20.657 39.456 20.6305C39.4428 20.7233 39.4164 20.8161 39.4164 20.9089C39.3769 21.174 39.3637 21.3994 39.3637 21.5452C39.3637 21.6911 39.3637 21.7706 39.3637 21.7706C39.2846 21.1475 39.2846 20.5112 39.456 19.9013C39.6142 19.2915 39.9439 18.7214 40.3923 18.3105C40.511 18.2044 40.6297 18.1116 40.7615 18.0321C40.8934 17.9525 41.0385 17.873 41.2099 17.8464C41.3813 17.8199 41.566 17.8464 41.711 17.9127C41.8561 17.979 41.988 18.0851 42.0803 18.2044C42.2781 18.4298 42.3704 18.7347 42.41 18.9866C42.4495 19.2517 42.4495 19.5036 42.4627 19.729C42.4759 19.9544 42.5023 20.1665 42.5418 20.3653C42.5814 20.5642 42.6341 20.7631 42.6869 20.9487C42.7792 21.3199 42.8451 21.6513 42.8451 21.9297C42.8451 22.2081 42.8056 22.4202 42.7528 22.566C42.7264 22.6323 42.7001 22.6854 42.6869 22.7251C42.6737 22.7649 42.6605 22.7782 42.6605 22.7782C42.766 22.4865 42.7792 22.1816 42.7264 21.8899C42.6605 21.5585 42.5682 21.2801 42.4759 20.9884Z" fill="#070B24"/>
<path d="M42.067 24.1967C41.9352 24.4088 41.7637 24.6077 41.5923 24.78C41.4209 24.9523 41.2494 25.1114 41.078 25.244C40.9066 25.3898 40.7483 25.5224 40.5637 25.6152C40.3791 25.6948 40.1944 25.7213 40.0362 25.7478C39.8779 25.7743 39.7461 25.8008 39.6538 25.8273C39.5483 25.8671 39.4823 25.9069 39.4296 25.9466C39.4032 25.9599 39.39 25.9864 39.3768 25.9997C39.3636 26.0129 39.3636 26.0129 39.3636 26.0129C39.4296 25.9069 39.5351 25.8141 39.6538 25.761C39.7725 25.708 39.8911 25.6682 40.023 25.6285C40.1417 25.5887 40.2604 25.5622 40.3659 25.5224C40.4714 25.4826 40.5637 25.4296 40.656 25.3501C40.7483 25.2838 40.8274 25.2042 40.9197 25.1247C41.0121 25.0451 41.0912 24.9789 41.1703 24.8993C41.3286 24.7535 41.4868 24.6209 41.6187 24.4883C41.8824 24.2232 42.0802 23.9713 42.1989 23.7857C42.2517 23.6929 42.3044 23.6134 42.3308 23.5603C42.3572 23.5073 42.3703 23.4808 42.3703 23.4808C42.344 23.6001 42.3044 23.7327 42.2517 23.8387C42.1989 23.9713 42.1462 24.0906 42.067 24.1967Z" fill="#070B24"/>
<path d="M38.823 24.6739C38.7966 24.6872 38.7703 24.7005 38.7439 24.7137C38.7175 24.727 38.6911 24.727 38.6516 24.7402C38.5593 24.7667 38.4406 24.727 38.401 24.6342C38.3746 24.5944 38.3615 24.5414 38.3615 24.4883C38.3615 24.4486 38.3615 24.4221 38.3746 24.3955C38.3878 24.3293 38.401 24.2762 38.4274 24.2232C38.5329 24.0111 38.6779 23.8918 38.7703 23.7459C38.8626 23.6134 38.9153 23.4543 38.9549 23.2952C39.0208 22.977 38.9813 22.6721 38.9417 22.407C38.9021 22.1418 38.8494 21.9032 38.823 21.7043C38.7966 21.5055 38.7834 21.3464 38.7966 21.2403C38.7966 21.1343 38.8098 21.0812 38.8098 21.0812C38.8362 21.532 38.9944 21.9562 39.0999 22.3804C39.1527 22.6058 39.1922 22.8312 39.1922 23.0566C39.1922 23.1891 39.1791 23.3217 39.1527 23.441C39.2582 23.5206 39.3505 23.6001 39.4296 23.7062C39.4824 23.7857 39.5219 23.8918 39.5219 23.9978C39.5615 23.9846 39.6011 23.9713 39.6406 23.9581C39.812 23.905 39.9835 23.8785 40.1285 23.8653C40.2868 23.8387 40.4319 23.8255 40.5637 23.799C40.8275 23.7459 41.0517 23.6531 41.2099 23.5471C41.289 23.494 41.355 23.4278 41.4077 23.3747C41.4605 23.3217 41.4868 23.2554 41.5132 23.2156C41.5396 23.1626 41.5528 23.1361 41.5528 23.0963C41.566 23.0698 41.566 23.0566 41.566 23.0566C41.5396 23.2819 41.3945 23.494 41.2099 23.6399C41.0253 23.7857 40.8143 23.8785 40.5901 23.9448C40.3659 24.0111 40.1549 24.0376 39.9439 24.0906C39.7329 24.1437 39.5351 24.2099 39.3769 24.3027C39.1922 24.4221 39.034 24.5811 38.823 24.6739Z" fill="#070B24"/>
<path d="M41.5923 25.6152C41.9352 25.3236 42.278 25.0186 42.555 24.6607C43.0165 24.0906 43.2935 23.388 43.3726 22.6588C43.4649 21.7706 43.2407 20.8956 43.0561 20.0206C44.0583 21.0017 45.3771 22.4202 45.6276 23.6001C45.9046 24.9391 45.2979 26.4239 44.177 27.1928C44.2298 27.2856 44.2693 27.3917 44.3089 27.4845C44.4671 27.9485 44.4144 28.5186 44.0847 28.8765C43.9528 29.0223 43.7814 29.1417 43.6759 29.314C43.4781 29.6322 43.544 30.0962 43.2935 30.3746C42.9638 30.7458 42.2781 30.5734 41.9352 30.9314C41.6846 31.1965 41.711 31.634 41.4868 31.9124C41.2494 32.2041 40.8274 32.2306 40.4582 32.2173C40.3659 32.2173 40.2868 32.2041 40.1945 32.2041C40.3527 30.2685 40.511 28.3462 40.6692 26.4107C40.9857 26.1588 41.289 25.8804 41.5923 25.6152Z" fill="#070B24"/>
<path d="M25.6753 34.9483C25.2797 35.1605 24.8577 35.3063 24.4094 35.3991C23.9742 35.4786 23.5258 35.5052 23.0906 35.4654C22.6686 35.4256 22.273 35.3726 21.917 35.3858C21.7323 35.3991 21.5741 35.4256 21.4159 35.4919C21.2576 35.5449 21.1125 35.6377 20.9675 35.7173C20.8224 35.7968 20.6642 35.8764 20.4927 35.9161C20.3213 35.9559 20.1631 35.9426 20.0312 35.9426C19.8993 35.9426 19.807 35.9692 19.7015 36.0222C19.6092 36.0752 19.5169 36.1415 19.4509 36.2078C19.3059 36.3404 19.174 36.4332 19.0817 36.4862C19.0421 36.5127 19.0026 36.5392 18.9762 36.5392C18.9498 36.5525 18.9366 36.5525 18.9366 36.5525C19.1213 36.4332 19.2531 36.2476 19.4114 36.0752C19.4905 35.9957 19.5696 35.9029 19.6751 35.8366C19.7279 35.7968 19.7806 35.7703 19.8466 35.757C19.9125 35.7438 19.9653 35.7305 20.0312 35.7173C20.1499 35.704 20.2554 35.704 20.3477 35.6775C20.44 35.651 20.5323 35.6245 20.6246 35.5714C20.8092 35.4786 20.9675 35.3461 21.1785 35.24C21.3763 35.1339 21.6005 35.0677 21.8247 35.0411C22.0357 35.0146 22.2467 35.0279 22.4445 35.0411C22.8401 35.0809 23.1961 35.1472 23.5126 35.1737C24.1588 35.2267 24.7127 35.1472 25.0951 35.0677C25.2797 35.0279 25.438 34.9881 25.5303 34.9616C25.6226 34.9616 25.6753 34.9483 25.6753 34.9483Z" fill="#070B24"/>
<path d="M19.9916 35.7968C20.1894 35.7305 20.4268 35.757 20.6246 35.6907C20.7961 35.6377 20.9279 35.5184 21.0862 35.4389C21.3895 35.2798 21.7455 35.2798 22.0752 35.293C22.3522 35.293 22.6423 35.293 22.9192 35.3063C22.5236 35.5449 22.1675 35.8631 21.7719 36.0885C21.0466 36.4994 20.1367 36.5525 19.3586 36.2741C19.451 36.1945 19.5301 36.1282 19.6224 36.0487C19.7279 35.9426 19.8466 35.8366 19.9916 35.7968Z" fill="#070B24"/>
<path d="M15.3628 24.78C15.3628 25.3766 15.8375 25.8538 16.431 25.8538C17.0244 25.8538 17.4991 25.3766 17.4991 24.78C17.4991 24.7402 17.4991 24.7004 17.4991 24.6607C17.4728 24.6474 17.4596 24.6342 17.4332 24.6209C17.2749 24.5414 17.064 24.4486 16.8134 24.3955C16.6156 24.3425 16.3914 24.316 16.154 24.3292C15.9562 24.3292 15.732 24.369 15.5079 24.422C15.4815 24.4353 15.4551 24.4353 15.4287 24.4486C15.3892 24.5414 15.3628 24.6607 15.3628 24.78Z" fill="#4E4ED1"/>
<path d="M15.2969 24.78C15.2969 25.4031 15.798 25.9201 16.431 25.9201C17.0508 25.9201 17.5651 25.4163 17.5651 24.78C17.5651 24.7535 17.5651 24.727 17.5651 24.7004C17.5387 24.6872 17.5255 24.6739 17.4992 24.6607C17.4728 24.6474 17.4596 24.6342 17.4332 24.6209C17.4464 24.6739 17.4464 24.727 17.4464 24.78C17.4464 25.3368 16.998 25.7875 16.4442 25.7875C15.8903 25.7875 15.4419 25.3368 15.4419 24.78C15.4419 24.6474 15.4683 24.5281 15.5079 24.422C15.4815 24.4353 15.4551 24.4353 15.4287 24.4486C15.4024 24.4618 15.376 24.4618 15.3496 24.4751C15.3232 24.5546 15.2969 24.6607 15.2969 24.78Z" fill="#070B24"/>
<path d="M14.1364 25.191L14.1496 25.1777C14.1628 25.3103 14.1759 25.4296 14.2023 25.5489C14.2419 25.7213 14.321 25.8936 14.4397 25.9997C14.4793 26.0527 14.5584 26.0792 14.6375 26.1057C14.7166 26.1322 14.8089 26.1588 14.8881 26.1853C15.2046 26.2648 15.5342 26.1853 15.8507 26.0925C16.009 26.0394 16.1672 25.9864 16.3123 25.9466C16.4573 25.8936 16.6024 25.8538 16.7343 25.8008C16.998 25.6948 17.2222 25.5754 17.4068 25.4296C17.5914 25.2838 17.7101 25.1247 17.8024 24.9921C17.8156 24.9656 17.8288 24.9391 17.8552 24.8993C17.8816 24.9126 17.9079 24.9258 17.9211 24.9258C17.9079 24.9789 17.8948 25.0186 17.8684 25.0717C17.7893 25.2573 17.6706 25.4164 17.5255 25.5622C17.2354 25.8406 16.8793 26.0262 16.5233 26.1588C16.3518 26.2251 16.1804 26.2781 16.009 26.3444C15.8375 26.3974 15.6661 26.4504 15.4947 26.4769C15.3232 26.5035 15.1386 26.5035 14.9672 26.4769C14.7957 26.4372 14.6507 26.3841 14.5056 26.3179C14.4397 26.2781 14.3606 26.2383 14.2946 26.172C14.2683 26.1455 14.2419 26.1057 14.2155 26.0792C14.2023 26.0394 14.1759 26.0129 14.1628 25.9732C14.0968 25.8406 14.0704 25.708 14.0441 25.5754C14.0309 25.4694 14.0309 25.3766 14.0309 25.2838C14.0704 25.2573 14.11 25.2308 14.1364 25.191Z" fill="#070B24"/>
<path d="M15.8904 24.78C15.8904 25.0717 16.1278 25.3235 16.4311 25.3235C16.7344 25.3235 16.9717 25.0849 16.9717 24.78C16.9717 24.6209 16.9058 24.4883 16.8003 24.3955C16.6025 24.3425 16.3783 24.316 16.1409 24.3292C15.9959 24.4088 15.8904 24.5811 15.8904 24.78Z" fill="#070B24"/>
<path d="M16.4707 25.4429C16.6236 25.4429 16.7476 25.3182 16.7476 25.1645C16.7476 25.0107 16.6236 24.8861 16.4707 24.8861C16.3177 24.8861 16.1937 25.0107 16.1937 25.1645C16.1937 25.3182 16.3177 25.4429 16.4707 25.4429Z" fill="white"/>
<path d="M25.86 21.9032C26.1369 22.102 26.3215 22.4202 26.3215 22.7914C26.3215 23.388 25.8468 23.8652 25.2533 23.8652C24.6599 23.8652 24.1852 23.388 24.1852 22.7914C24.1852 22.5925 24.2379 22.4202 24.3302 22.2611C24.8445 22.102 25.3457 21.996 25.86 21.9032Z" fill="#4E4ED1"/>
<path d="M24.4358 22.2213C24.3303 22.3804 24.2643 22.566 24.2643 22.7781C24.2643 23.3349 24.7127 23.7857 25.2666 23.7857C25.8204 23.7857 26.2688 23.3349 26.2688 22.7781C26.2688 22.4069 26.071 22.0888 25.7677 21.9164C25.8336 21.9032 25.8864 21.8899 25.9523 21.8766C26.216 22.0888 26.4007 22.4069 26.4007 22.7781C26.4007 23.4012 25.8995 23.9183 25.2666 23.9183C24.6336 23.9183 24.1324 23.4145 24.1324 22.7781C24.1324 22.5925 24.172 22.4335 24.2511 22.2744C24.3039 22.2611 24.3698 22.2479 24.4358 22.2213Z" fill="#070B24"/>
<path d="M25.2665 23.3217C25.5651 23.3217 25.8072 23.0783 25.8072 22.7782C25.8072 22.478 25.5651 22.2346 25.2665 22.2346C24.9679 22.2346 24.7258 22.478 24.7258 22.7782C24.7258 23.0783 24.9679 23.3217 25.2665 23.3217Z" fill="#070B24"/>
<path d="M25.2929 23.4543C25.4459 23.4543 25.5699 23.3296 25.5699 23.1759C25.5699 23.0221 25.4459 22.8975 25.2929 22.8975C25.14 22.8975 25.016 23.0221 25.016 23.1759C25.016 23.3296 25.14 23.4543 25.2929 23.4543Z" fill="white"/>
<path d="M13.8331 25.4296C13.9254 25.2705 14.0309 25.1247 14.1496 24.9789C14.2682 24.8463 14.4133 24.727 14.5452 24.6077C14.6902 24.5016 14.8485 24.4088 15.0067 24.3293C15.165 24.2497 15.3364 24.1967 15.4947 24.1569C15.6661 24.1171 15.8243 24.1039 15.9958 24.0906C16.0222 24.0906 16.0617 24.0906 16.0881 24.0906C15.7452 24.0243 15.4155 24.0111 15.1254 24.0243C14.7562 24.0376 14.4529 24.1039 14.2551 24.1569C14.0441 24.2099 13.9254 24.263 13.9254 24.263C14.3474 23.9978 14.8485 23.8653 15.3232 23.8387C15.798 23.8255 16.2463 23.9183 16.6024 24.0509C16.8134 24.1437 16.998 24.2365 17.1563 24.316C17.1958 24.3293 17.2222 24.3425 17.2618 24.369C17.3804 24.4221 17.4728 24.4883 17.5651 24.5546C17.6838 24.6342 17.7761 24.727 17.8552 24.8065C17.8552 24.8728 17.8552 24.9523 17.8684 25.0186C17.7233 24.9126 17.5914 24.833 17.4332 24.7535C17.1431 24.6077 16.8266 24.5149 16.5233 24.4751C16.22 24.4353 15.9167 24.4486 15.6397 24.4883C15.3628 24.5414 15.1122 24.6342 14.888 24.7535C14.7694 24.8065 14.6639 24.8728 14.5716 24.9391C14.4792 25.0054 14.3869 25.0717 14.3078 25.138C14.2287 25.2042 14.1496 25.2705 14.0836 25.3368C14.0177 25.4031 13.9649 25.4694 13.9122 25.5224C13.8726 25.5887 13.8199 25.6285 13.7803 25.6815C13.7408 25.7345 13.7144 25.7743 13.7012 25.8141C13.6616 25.8804 13.6353 25.9201 13.6353 25.9201C13.6748 25.761 13.7408 25.5887 13.8331 25.4296Z" fill="#070B24"/>
<path d="M14.2156 24.9921C14.2024 25.0054 14.1892 25.0054 14.1628 25.0186C14.0046 25.191 13.8332 25.3368 13.6881 25.4561C13.4639 25.6152 13.2661 25.708 13.121 25.7743C13.0551 25.8008 12.9892 25.8273 12.9496 25.8406C12.91 25.8538 12.8837 25.8671 12.8837 25.8671C13.2265 25.8671 13.609 25.7345 13.9123 25.5224C14.1892 25.3236 14.4134 25.0584 14.5585 24.8065C14.4398 24.8463 14.3343 24.9258 14.2156 24.9921Z" fill="#070B24"/>
<path d="M14.6376 24.7005C14.5981 24.727 14.5585 24.7667 14.519 24.7933C14.2684 24.9921 14.031 25.1247 13.82 25.2042C13.609 25.2838 13.4112 25.3235 13.2794 25.3368C13.1475 25.3501 13.0684 25.3501 13.0684 25.3501C13.3453 25.4429 13.7013 25.4296 13.9915 25.3103C14.2948 25.2042 14.5453 25.0054 14.7431 24.8198C14.7827 24.78 14.8223 24.727 14.8618 24.6872C14.8091 24.7535 14.7036 24.7535 14.6376 24.7005Z" fill="#070B24"/>
<path d="M14.7694 24.5944C14.7167 24.6209 14.6639 24.6474 14.6112 24.6739C14.4002 24.7667 14.2024 24.8065 14.0177 24.7933C13.9254 24.7933 13.8463 24.78 13.7672 24.7667C13.7013 24.7535 13.6353 24.7535 13.5826 24.7402C13.4771 24.727 13.4111 24.727 13.4111 24.727C13.5166 24.78 13.6221 24.833 13.7408 24.8728C13.8463 24.9258 13.9782 24.9523 14.0969 24.9656C14.3474 24.9921 14.5848 24.8993 14.7562 24.78V24.5944H14.7694Z" fill="#070B24"/>
<path d="M13.6881 24.3558C13.8332 24.5149 14.0574 24.6342 14.2815 24.674C14.5057 24.727 14.7431 24.7005 14.9409 24.6474C15.1387 24.5944 15.2838 24.5016 15.3761 24.4353C15.4288 24.3956 15.4552 24.369 15.4816 24.3425C15.508 24.316 15.5211 24.3027 15.5211 24.3027C15.2706 24.4221 15.02 24.4751 14.809 24.5016C14.5848 24.5281 14.387 24.5149 14.2288 24.4884C14.0705 24.4618 13.9255 24.4353 13.8332 24.3956C13.7409 24.369 13.6881 24.3558 13.6881 24.3558Z" fill="#070B24"/>
<path d="M15.6531 24.2762C15.4948 24.263 15.3234 24.2895 15.1651 24.2895C15.0069 24.2895 14.8618 24.2895 14.7431 24.2497C14.6245 24.2099 14.519 24.1569 14.453 24.1039C14.3871 24.0508 14.3607 24.0111 14.3607 24.0111C14.3739 24.1171 14.4398 24.2099 14.5058 24.2895C14.5849 24.3558 14.6772 24.4088 14.7563 24.4486C14.941 24.5149 15.1124 24.4883 15.2443 24.4618C15.3761 24.4221 15.4684 24.3823 15.5344 24.3425C15.6135 24.3027 15.6531 24.2762 15.6531 24.2762Z" fill="#070B24"/>
<path d="M22.2993 23.7194C22.484 23.799 22.6554 23.8785 22.84 23.9448C23.0774 24.0376 23.3016 24.1171 23.5258 24.1702C23.7499 24.2232 23.9741 24.2365 24.1851 24.1967C24.4093 24.1702 24.6203 24.1039 24.8313 24.0243C25.0423 23.9448 25.2401 23.8653 25.4379 23.7725C25.8335 23.6001 26.1896 23.4013 26.5061 23.2024C26.6643 23.0963 26.8094 23.0035 26.9413 22.8975C26.9676 22.871 27.0072 22.8444 27.0336 22.8179C27.06 22.7914 27.0863 22.7649 27.0995 22.7384C27.1391 22.6721 27.1918 22.6058 27.2314 22.5528C27.2973 22.4335 27.3633 22.3142 27.416 22.2081C27.4688 22.2479 27.5215 22.2744 27.5743 22.2876C27.5215 22.407 27.4819 22.5395 27.416 22.6588C27.3633 22.7782 27.3105 22.8975 27.205 23.0168C27.1127 23.1229 27.0204 23.2157 26.9149 23.2952C26.7171 23.4543 26.5193 23.6001 26.3083 23.7194C25.8995 23.9846 25.4643 24.1834 25.0423 24.3425C24.8313 24.4221 24.6071 24.4884 24.3961 24.5149C24.1851 24.5546 23.9609 24.5546 23.7499 24.5281C23.539 24.5016 23.3543 24.4353 23.1829 24.369C23.0115 24.3028 22.8664 24.2232 22.7213 24.1569C22.5235 24.0509 22.3521 23.9581 22.1938 23.852C22.2466 23.8122 22.273 23.7725 22.2993 23.7194Z" fill="#070B24"/>
<path d="M22.0094 24.5016C22.0226 24.263 22.0885 24.0376 22.1808 23.8122C22.2731 23.6001 22.405 23.388 22.5633 23.2024C22.8666 22.8312 23.2622 22.5528 23.6578 22.3539C24.0534 22.1418 24.4622 21.996 24.8579 21.8767C25.2535 21.7573 25.6491 21.7043 26.0183 21.7176C26.3876 21.7308 26.7173 21.8236 26.9942 21.9297C27.2711 22.0357 27.4953 22.1418 27.6799 22.2479C27.8646 22.3539 27.9964 22.4335 28.1019 22.4865C28.1942 22.5395 28.247 22.5793 28.247 22.5793C27.8118 22.4069 27.3634 22.2346 26.9283 22.1285C26.7041 22.0755 26.4931 22.0357 26.2821 22.0225C26.0711 22.0092 25.8601 22.0225 25.6491 22.049C25.2403 22.102 24.8447 22.2346 24.4622 22.3672C24.093 22.4997 23.7501 22.6456 23.46 22.8047C23.1699 22.9637 22.9193 23.1494 22.7215 23.3482C22.5237 23.5338 22.3786 23.7327 22.2731 23.905C22.1676 24.0774 22.1149 24.2232 22.0753 24.3292C22.0621 24.3823 22.049 24.422 22.0358 24.4486C22.0226 24.4883 22.0094 24.5016 22.0094 24.5016Z" fill="#070B24"/>
<path d="M25.1611 21.9827C25.3062 21.9429 25.4381 21.8369 25.504 21.7043C25.5831 21.5717 25.6227 21.4127 25.6095 21.2801C25.6095 21.1475 25.5699 21.0415 25.5304 20.9619C25.5172 20.9221 25.4908 20.8956 25.4908 20.8824C25.4776 20.8691 25.4776 20.8559 25.4776 20.8559C25.4908 21.0415 25.4644 21.2005 25.4381 21.3331C25.4117 21.4657 25.3721 21.585 25.3326 21.6778C25.293 21.7706 25.2534 21.8501 25.2139 21.9032C25.1743 21.9562 25.1611 21.9827 25.1611 21.9827Z" fill="#070B24"/>
<path d="M25.7281 21.9032C25.8732 21.8236 25.9919 21.6778 26.071 21.5187C26.1501 21.3596 26.1765 21.1873 26.1765 21.0415C26.1765 20.8956 26.137 20.7631 26.1106 20.6835C26.0974 20.6437 26.0842 20.604 26.071 20.5907C26.0578 20.5642 26.0578 20.5509 26.0578 20.5509C26.0578 20.7631 26.0315 20.9487 26.0051 21.1077C25.9787 21.2668 25.9391 21.3994 25.8996 21.5187C25.86 21.638 25.8205 21.7308 25.7941 21.7971C25.7413 21.8634 25.7281 21.9032 25.7281 21.9032Z" fill="#070B24"/>
<path d="M26.1766 21.9827C26.3349 21.9032 26.4668 21.7706 26.5591 21.5983C26.6514 21.4392 26.6909 21.2536 26.6909 21.0945C26.6909 20.9354 26.6646 20.8028 26.625 20.71C26.6118 20.6703 26.5986 20.6305 26.5854 20.604C26.5723 20.5774 26.5723 20.5642 26.5723 20.5642C26.5723 20.7896 26.5591 20.9752 26.5195 21.1475C26.4799 21.3199 26.4404 21.4657 26.3876 21.585C26.3349 21.7043 26.2953 21.7971 26.2558 21.8767C26.203 21.943 26.1766 21.9827 26.1766 21.9827Z" fill="#070B24"/>
<path d="M26.6646 22.0357C26.8492 21.9562 27.0074 21.7971 27.1129 21.6115C27.2184 21.4259 27.258 21.2138 27.258 21.0282C27.258 20.8426 27.2184 20.6968 27.1789 20.5907C27.1657 20.5377 27.1393 20.4979 27.1261 20.4714C27.1129 20.4449 27.0997 20.4316 27.0997 20.4316C27.1393 20.6835 27.1129 20.9089 27.0734 21.1077C27.0338 21.3066 26.981 21.4657 26.9151 21.6115C26.8492 21.7441 26.7832 21.8501 26.7437 21.9297C26.6909 21.996 26.6646 22.0357 26.6646 22.0357Z" fill="#070B24"/>
<path d="M27.2052 22.1816C27.3766 22.0888 27.5217 21.9297 27.6008 21.7441C27.6931 21.5585 27.7327 21.3596 27.7195 21.174C27.7195 21.0017 27.6799 20.8558 27.6404 20.7498C27.6272 20.6968 27.6008 20.657 27.5876 20.6437C27.5744 20.6172 27.5613 20.604 27.5613 20.604C27.5876 20.8558 27.5744 21.068 27.5349 21.2536C27.5085 21.4392 27.4558 21.6115 27.403 21.7441C27.3503 21.8767 27.2975 21.9827 27.2579 22.0623C27.2316 22.1418 27.2052 22.1816 27.2052 22.1816Z" fill="#070B24"/>
<path d="M21.9961 23.3085C22.1807 22.9638 22.4313 22.6456 22.7214 22.3672C23.0115 22.0888 23.3412 21.8634 23.6841 21.7043C24.3698 21.3861 25.1215 21.2801 25.7281 21.3861C26.0314 21.4392 26.3083 21.5452 26.5193 21.6513C26.7435 21.7574 26.9281 21.8767 27.0732 21.9695C27.3633 22.1551 27.5348 22.2611 27.5348 22.2611C27.1655 22.1153 26.8095 21.943 26.4402 21.8104C26.0842 21.6778 25.7149 21.6115 25.3589 21.6115C25.0028 21.6115 24.6599 21.6645 24.3434 21.7574C24.0269 21.8369 23.7368 21.9562 23.4863 22.0888C22.972 22.3539 22.6027 22.6721 22.3521 22.9107C22.2335 23.03 22.1412 23.1361 22.0752 23.2024C22.0357 23.2687 21.9961 23.3085 21.9961 23.3085Z" fill="#070B24"/>
<path d="M14.7034 21.8104C15.2177 21.8236 15.8112 21.9429 16.0749 22.3937C16.1145 22.46 16.1408 22.5395 16.1408 22.6058C16.1408 22.7516 16.0353 22.8842 15.9035 22.9505C15.7716 23.0168 15.6265 23.0168 15.4815 23.0168C14.6507 23.0035 13.8331 22.7251 13.0023 22.6456C12.633 22.6058 12.2506 22.6191 11.8945 22.6986C12.6198 22.0225 13.7012 21.7838 14.7034 21.8104Z" fill="#070B24"/>
<path d="M29.2491 19.7687C29.2491 19.7687 27.5347 18.6949 24.3302 19.6494C24.3302 19.6494 22.9324 20.0604 21.429 21.1342C19.9389 22.2081 19.9389 21.3464 19.9389 21.3464C19.9389 21.3464 19.6487 20.8691 20.9411 20.2195C20.9411 20.2195 23.1961 19.0263 24.9764 18.7877C26.7567 18.5491 27.6271 18.5358 29.2491 19.7687Z" fill="#070B24"/>
<path d="M37.201 15.9241C38.0318 16.4412 38.8098 16.9582 39.5351 17.462C39.3637 17.515 39.245 17.6211 39.1791 17.7536C38.1505 17.051 37.1746 16.3881 36.3043 15.8313C35.091 15.0757 34.036 14.5189 33.3107 14.1211C32.5723 13.7234 32.1635 13.498 32.1635 13.498C33.9042 14.1874 35.6713 14.9696 37.201 15.9241Z" fill="#040E9B"/>
<path d="M36.7921 16.4544C37.557 16.9052 38.2823 17.3824 38.9549 17.8464C38.9944 17.873 39.0208 17.8995 39.0604 17.9127C38.9285 18.0055 38.8494 18.1381 38.823 18.2839C37.7812 17.568 36.7921 16.9317 35.8954 16.3749C34.6954 15.6192 33.6931 14.9961 32.9942 14.5454C32.2953 14.0946 31.8997 13.8295 31.8997 13.8295C33.5876 14.6647 35.2492 15.5397 36.7921 16.4544Z" fill="#040E9B"/>
<path d="M37.0163 17.2631C37.3328 17.462 37.6361 17.6741 37.9394 17.8862C38.2295 18.0983 38.5065 18.3104 38.7702 18.5093C38.7306 18.5623 38.7043 18.6286 38.6779 18.6949C38.612 18.7479 38.5724 18.8142 38.5328 18.8938C38.2691 18.7082 38.0185 18.5093 37.7812 18.337C37.2405 17.926 36.713 17.5548 36.2119 17.2233C35.2228 16.5605 34.3788 16.0302 33.7986 15.6457C33.2052 15.2745 32.8755 15.0491 32.8755 15.0491C34.3261 15.7253 35.7503 16.4544 37.0163 17.2631Z" fill="#040E9B"/>
<path d="M38.4933 19.0528C38.4801 19.0926 38.4801 19.1456 38.4801 19.1854C38.4669 19.2252 38.4537 19.265 38.4405 19.3047C38.401 19.3578 38.3614 19.424 38.3482 19.4771C37.768 19.0926 37.2141 18.7347 36.7262 18.39C35.1305 17.2896 34.1019 16.4942 34.1019 16.4942C35.6712 17.3029 37.1746 18.2044 38.4933 19.0528Z" fill="#040E9B"/>
<path d="M38.3351 19.5434C38.3219 19.6096 38.3219 19.6627 38.3219 19.729C38.2955 19.8218 38.2955 19.9278 38.3087 20.0206C38.045 19.8483 37.7812 19.6759 37.5306 19.5036C35.9086 18.4297 34.88 17.6343 34.88 17.6343C36.08 18.2309 37.2537 18.8937 38.3351 19.5434Z" fill="#040E9B"/>
<path d="M27.4293 10.5682C26.3215 10.2633 25.2138 9.94512 24.172 9.66671C23.1302 9.37505 22.1544 9.10991 21.3104 8.96408C21.0994 8.92431 20.8884 8.89779 20.7038 8.88453C20.5059 8.87128 20.3213 8.85802 20.1499 8.84476C19.9785 8.8315 19.807 8.84476 19.662 8.84476C19.5169 8.85802 19.3718 8.85802 19.24 8.88453C19.174 8.89779 19.1213 8.89779 19.0553 8.91105C19.0026 8.9243 18.9499 8.92431 18.8971 8.93756C18.8048 8.95082 18.7125 8.96408 18.6465 8.99059C18.5147 9.01711 18.4355 9.04362 18.4355 9.04362C18.6993 8.9243 18.9762 8.80499 19.2663 8.7387C19.5565 8.67242 19.8466 8.61939 20.1367 8.59287C20.4268 8.56636 20.7169 8.56636 21.0071 8.57962C21.2972 8.59287 21.5741 8.63265 21.8511 8.67242C22.4049 8.75196 22.9192 8.88453 23.4072 9.01711C23.8951 9.14968 24.3434 9.29551 24.7523 9.44134C25.5831 9.733 26.2556 10.0114 26.7172 10.2235C27.1787 10.4356 27.4293 10.5682 27.4293 10.5682Z" fill="#2E40B5"/>
<path d="M28.5106 10.2898C27.4424 9.66669 26.2688 9.29549 25.161 8.99057C24.6072 8.83149 24.0665 8.69891 23.539 8.56634C23.0247 8.43377 22.5368 8.30119 22.0884 8.20839C21.64 8.12885 21.218 8.10233 20.8488 8.08908C20.4664 8.08908 20.1367 8.08908 19.8729 8.10233C19.3191 8.12885 19.0026 8.14211 19.0026 8.14211C19.6092 7.99628 20.229 7.85045 20.8488 7.79742C21.1653 7.7709 21.4686 7.75764 21.7851 7.7709C22.1016 7.78416 22.3917 7.83719 22.695 7.89022C22.9851 7.94325 23.2621 8.00953 23.539 8.07582C23.8159 8.14211 24.0797 8.20839 24.3434 8.28794C24.8577 8.43377 25.3456 8.5796 25.794 8.73868C26.2424 8.89777 26.638 9.07012 26.9809 9.24246C27.1523 9.322 27.3106 9.41481 27.4556 9.49435C27.6007 9.57389 27.7325 9.65344 27.838 9.73298C27.9567 9.81252 28.049 9.87881 28.1414 9.9451C28.2337 10.0114 28.2996 10.0644 28.3523 10.1174C28.4447 10.25 28.5106 10.2898 28.5106 10.2898Z" fill="#2E40B5"/>
<path d="M28.4051 9.25574C28.115 9.14968 27.8249 9.01711 27.5215 8.91105C27.2314 8.79174 26.9281 8.69894 26.638 8.59288C26.3479 8.50008 26.0578 8.39402 25.7676 8.31447C25.4775 8.22167 25.1874 8.14213 24.9105 8.07584C24.7654 8.03607 24.6203 8.00956 24.4885 7.96978C24.3434 7.93001 24.2115 7.9035 24.0665 7.86373C23.7895 7.79744 23.5258 7.74441 23.2489 7.69138C22.9851 7.63835 22.7214 7.59858 22.4708 7.54555C22.2203 7.50578 21.9697 7.46601 21.7455 7.43949C21.5081 7.41298 21.284 7.38646 21.073 7.35995C20.862 7.33343 20.651 7.32018 20.4532 7.30692C20.2554 7.29366 20.0839 7.2804 19.9125 7.26715C19.7411 7.25389 19.596 7.25389 19.4509 7.24063C19.174 7.22738 18.9498 7.22738 18.8048 7.21412C18.6597 7.21412 18.5674 7.20086 18.5674 7.20086C18.8839 7.14783 19.2004 7.0948 19.5169 7.06829C19.8334 7.02852 20.1499 7.01526 20.4664 7.002C20.7828 7.002 21.0993 6.98874 21.4026 7.01526C21.7191 7.02852 22.0225 7.05503 22.3258 7.08155C22.4708 7.0948 22.6291 7.12132 22.7741 7.13457C22.9192 7.16109 23.0642 7.17435 23.2093 7.20086C23.3544 7.22738 23.4994 7.25389 23.6313 7.28041C23.7764 7.30692 23.9082 7.34669 24.0401 7.37321C24.317 7.42623 24.5676 7.50578 24.8182 7.58532C25.0687 7.66487 25.3061 7.74441 25.5303 7.82395C25.7545 7.9035 25.9786 7.9963 26.1764 8.07584C26.3743 8.16864 26.5721 8.24819 26.7435 8.32773C26.9149 8.40727 27.0864 8.50008 27.2314 8.56636C27.3765 8.64591 27.5215 8.72545 27.6402 8.79174C27.8908 8.92431 28.0754 9.04362 28.1941 9.12317C28.3392 9.20271 28.4051 9.25574 28.4051 9.25574Z" fill="#2E40B5"/>
<path d="M28.8404 8.43378C27.8909 7.93 26.8755 7.59857 25.8996 7.3732C24.9237 7.14782 23.9874 7.02851 23.183 6.94896C22.3786 6.86942 21.6928 6.81639 21.2181 6.77662C20.7434 6.73685 20.4664 6.71033 20.4664 6.71033C21.561 6.61753 22.6555 6.57776 23.6709 6.64405C24.1852 6.68382 24.6732 6.73685 25.1479 6.82965C25.6095 6.92245 26.0447 7.02851 26.4403 7.16108C26.8359 7.29365 27.1788 7.43948 27.4821 7.58531C27.6271 7.66486 27.7722 7.73114 27.9041 7.79743C28.0359 7.86372 28.1414 7.93 28.2469 7.99629C28.4447 8.12886 28.603 8.23492 28.7085 8.31446C28.7876 8.39401 28.8404 8.43378 28.8404 8.43378Z" fill="#2E40B5"/>
<path d="M28.959 7.65159C27.1392 6.68381 25.1083 6.28609 23.5786 6.03421C22.8137 5.91489 22.1676 5.82209 21.706 5.7558C21.2576 5.68952 20.9939 5.64974 20.9939 5.64974C22.0357 5.60997 23.0907 5.63649 24.0665 5.76906C25.0424 5.88838 25.9391 6.11375 26.6776 6.39215C27.4161 6.67056 27.9963 6.98873 28.3788 7.24062C28.5766 7.35993 28.7216 7.46599 28.814 7.54554C28.9195 7.61182 28.959 7.65159 28.959 7.65159Z" fill="#2E40B5"/>
<path d="M29.7107 7.21411C28.9063 6.6573 28.0227 6.2861 27.1524 6.00769C26.2952 5.74255 25.4512 5.58346 24.7259 5.46414C24.0006 5.35809 23.3808 5.2918 22.9588 5.23877C22.5236 5.18574 22.2863 5.15923 22.2863 5.15923C23.2753 5.09294 24.2643 5.09294 25.1875 5.21226C25.649 5.26528 26.0974 5.35809 26.5062 5.46414C26.915 5.5702 27.3106 5.70278 27.6535 5.84861C27.9963 5.99444 28.2997 6.15352 28.5634 6.31261C28.6953 6.39215 28.814 6.4717 28.9195 6.53798C29.025 6.61753 29.1173 6.68381 29.2096 6.7501C29.381 6.88267 29.4997 7.00199 29.592 7.08153C29.6711 7.17433 29.7107 7.21411 29.7107 7.21411Z" fill="#2E40B5"/>
<path d="M29.9217 6.32586C29.1305 6.04746 28.3656 5.71603 27.6403 5.39785C27.2842 5.23877 26.9414 5.06642 26.6117 4.94711C26.282 4.81453 25.9655 4.74825 25.6622 4.70847C25.3589 4.6687 25.0688 4.64219 24.805 4.61567C24.5413 4.58916 24.3171 4.56264 24.1325 4.52287C23.9479 4.4831 23.8028 4.44333 23.7105 4.41681C23.6182 4.3903 23.5654 4.36378 23.5654 4.36378C23.9874 4.43007 24.3962 4.43007 24.8182 4.43007C25.227 4.43007 25.649 4.43007 26.0578 4.49636C26.2556 4.52287 26.4534 4.5759 26.6381 4.64219C26.8227 4.70847 26.9941 4.78802 27.1656 4.8543C27.4952 5.01339 27.7985 5.17248 28.0755 5.31831C29.1964 5.87511 29.9217 6.32586 29.9217 6.32586Z" fill="#2E40B5"/>
<path d="M29.8953 5.54369C29.7371 5.46415 29.5788 5.37135 29.4206 5.2918C29.2623 5.21226 29.1041 5.13272 28.9458 5.05317C28.7876 4.98688 28.6293 4.90734 28.4711 4.84105C28.3128 4.77477 28.1546 4.70848 27.9964 4.65545C27.8381 4.60242 27.6799 4.53614 27.5348 4.49637C27.3766 4.44334 27.2315 4.40356 27.0864 4.36379C26.9414 4.32402 26.7963 4.28425 26.6513 4.24448C26.5062 4.20471 26.3743 4.17819 26.2424 4.15168C26.1106 4.12516 25.9787 4.09865 25.86 4.08539C25.7413 4.07213 25.6226 4.04562 25.5171 4.03236C25.293 4.00585 25.1083 3.97933 24.9501 3.96607C24.7918 3.95282 24.66 3.93956 24.5808 3.93956C24.4885 3.93956 24.449 3.9263 24.449 3.9263C24.6336 3.89979 24.8182 3.88653 24.9897 3.87327C25.1743 3.86002 25.3589 3.86002 25.5303 3.86002C25.715 3.87327 25.8864 3.87327 26.071 3.89979C26.2424 3.91304 26.4139 3.95282 26.5853 3.97933C26.7567 4.0191 26.915 4.04562 27.0864 4.08539C27.2447 4.12516 27.4029 4.17819 27.548 4.21796C27.693 4.27099 27.8381 4.32402 27.9832 4.37705C28.115 4.43008 28.2469 4.49637 28.3788 4.54939C28.4975 4.61568 28.6162 4.66871 28.7348 4.735C28.8403 4.80128 28.9458 4.85431 29.0381 4.90734C29.2228 5.02666 29.381 5.13272 29.5129 5.22552C29.6448 5.31832 29.7371 5.39786 29.803 5.45089C29.8689 5.50392 29.8953 5.54369 29.8953 5.54369Z" fill="#2E40B5"/>
<path d="M31.1085 5.25203C30.9238 5.14597 30.7524 5.02666 30.5678 4.93386C30.3832 4.8278 30.1985 4.735 30.0271 4.6422C29.8425 4.54939 29.6579 4.45659 29.4732 4.37705C29.2886 4.29751 29.104 4.21796 28.9326 4.13842C28.7479 4.07213 28.5765 3.99259 28.3919 3.93956C28.2073 3.87327 28.0358 3.82024 27.8644 3.76721C27.693 3.71419 27.5215 3.67441 27.3633 3.62138C27.205 3.58161 27.0336 3.54184 26.8885 3.50207C26.7303 3.47555 26.5852 3.44904 26.4402 3.40927C26.2951 3.38275 26.1632 3.3695 26.0314 3.34298C25.8995 3.32972 25.7808 3.31647 25.6753 3.30321C25.5698 3.28995 25.4643 3.28995 25.372 3.27669C25.1874 3.25018 25.0423 3.25018 24.9368 3.25018C24.8313 3.25018 24.7786 3.23692 24.7786 3.23692C24.9896 3.21041 25.2006 3.18389 25.4116 3.17064C25.6225 3.15738 25.8335 3.15738 26.0445 3.15738C26.2555 3.17064 26.4665 3.18389 26.6775 3.21041C26.8885 3.23692 27.0863 3.26344 27.2841 3.30321C27.482 3.34298 27.6798 3.38275 27.8644 3.43578C27.9567 3.4623 28.049 3.48881 28.1413 3.51533C28.2336 3.54184 28.3259 3.58161 28.4051 3.60813C28.5765 3.66116 28.7479 3.7407 28.9062 3.80699C29.0644 3.87327 29.2227 3.95282 29.3677 4.0191C29.5128 4.09865 29.6447 4.16493 29.7765 4.24448C29.8952 4.32402 30.0271 4.39031 30.1326 4.46985C30.2381 4.54939 30.3436 4.61568 30.4359 4.68197C30.5282 4.74825 30.6073 4.81454 30.6865 4.86757C30.8315 4.97363 30.937 5.07969 31.0161 5.14597C31.0689 5.21226 31.1085 5.25203 31.1085 5.25203Z" fill="#2E40B5"/>
<path d="M29.9217 3.72744C29.7502 3.66115 29.5788 3.58161 29.4074 3.51532C29.2359 3.44904 29.0645 3.39601 28.893 3.32972C28.7216 3.27669 28.5502 3.22366 28.3787 3.18389C28.2073 3.13086 28.0359 3.10435 27.8776 3.06458C27.7062 3.0248 27.5479 2.99829 27.3765 2.97177C27.2183 2.94526 27.06 2.91875 26.9018 2.90549C26.7435 2.87897 26.5985 2.87897 26.4402 2.86572C26.2952 2.85246 26.1501 2.85246 26.005 2.85246C25.8732 2.85246 25.7413 2.85246 25.6094 2.85246C25.4775 2.85246 25.3589 2.86572 25.2534 2.86572C25.1347 2.87897 25.0292 2.87897 24.9369 2.89223C24.8446 2.90549 24.7522 2.91875 24.6731 2.91875C24.5149 2.932 24.383 2.95852 24.2907 2.97177C24.1984 2.98503 24.1588 2.99829 24.1588 2.99829C24.3302 2.932 24.5149 2.86572 24.6863 2.82594C24.8709 2.77292 25.0555 2.73314 25.227 2.69337C25.4116 2.66686 25.5962 2.64034 25.7677 2.62709C25.9523 2.61383 26.1237 2.60057 26.3083 2.60057C26.4798 2.60057 26.6644 2.60057 26.8358 2.62709C26.915 2.64034 27.0073 2.64034 27.0864 2.6536C27.1655 2.66686 27.2446 2.68011 27.3238 2.69337C27.482 2.71989 27.6403 2.7464 27.7853 2.78617C27.9304 2.82594 28.0754 2.86572 28.2073 2.90549C28.3392 2.94526 28.4711 2.99829 28.5897 3.03806C28.7084 3.09109 28.8271 3.13086 28.9326 3.18389C29.0381 3.23692 29.1304 3.27669 29.2227 3.31646C29.315 3.35624 29.3942 3.40926 29.4601 3.44904C29.6052 3.52858 29.7107 3.59487 29.7766 3.6479C29.8821 3.70093 29.9217 3.72744 29.9217 3.72744Z" fill="#2E40B5"/>
<path d="M29.9348 2.85245C29.7766 2.79942 29.6183 2.73313 29.4601 2.6801C29.3018 2.62707 29.1436 2.57404 28.9854 2.52102C28.8271 2.48124 28.6689 2.42821 28.5106 2.38844C28.3524 2.34867 28.1941 2.3089 28.0491 2.26913C27.8908 2.24261 27.7457 2.20284 27.5875 2.17633C27.4424 2.14981 27.2842 2.1233 27.1523 2.11004C27.0073 2.08353 26.8622 2.07027 26.7303 2.05701C26.5985 2.04375 26.4666 2.0305 26.3347 2.0305C26.2028 2.0305 26.0842 2.01724 25.9655 2.01724C25.8468 2.01724 25.7413 2.01724 25.6358 2.01724C25.4248 2.01724 25.2402 2.0305 25.0951 2.0305C24.95 2.0305 24.8314 2.05701 24.739 2.05701C24.6599 2.05701 24.6204 2.07027 24.6204 2.07027C24.7918 2.0305 24.95 1.97747 25.1215 1.95095C25.2929 1.91118 25.4643 1.89792 25.6358 1.87141C25.8072 1.85815 25.9787 1.83164 26.1369 1.83164C26.3083 1.81838 26.4666 1.83164 26.638 1.83164C26.7963 1.84489 26.9545 1.84489 27.1128 1.87141C27.271 1.88467 27.4161 1.91118 27.5611 1.9377C27.7062 1.96421 27.8512 2.00398 27.9831 2.0305C28.115 2.07027 28.2469 2.11004 28.3787 2.13655C28.4974 2.17633 28.6161 2.2161 28.7348 2.25587C28.8403 2.29564 28.9458 2.33541 29.0513 2.38844C29.2491 2.48124 29.4073 2.56079 29.5392 2.62707C29.6711 2.69336 29.7766 2.75965 29.8425 2.79942C29.8953 2.82593 29.9348 2.85245 29.9348 2.85245Z" fill="#2E40B5"/>
<path d="M29.4074 1.87142C29.2492 1.81839 29.1041 1.76536 28.959 1.71233C28.814 1.6593 28.6557 1.61953 28.5107 1.57976C28.3524 1.53998 28.2074 1.50021 28.0623 1.4737C27.9173 1.43393 27.759 1.42067 27.6139 1.39415C27.4689 1.36764 27.3238 1.35438 27.1788 1.34112C27.0337 1.32787 26.9018 1.31461 26.7568 1.31461C26.6249 1.30135 26.493 1.30135 26.3612 1.30135C26.2293 1.30135 26.1106 1.30135 25.9919 1.30135C25.8732 1.31461 25.7545 1.31461 25.649 1.32787C25.5435 1.34112 25.438 1.35438 25.3325 1.35438C25.2402 1.36764 25.1479 1.3809 25.0556 1.39415C24.9765 1.40741 24.8974 1.42067 24.8182 1.43393C24.6732 1.46044 24.5677 1.48695 24.4886 1.50021C24.4094 1.51347 24.3699 1.52673 24.3699 1.52673C24.5149 1.46044 24.6732 1.39415 24.8314 1.35438C24.9897 1.30135 25.1479 1.26158 25.293 1.22181C25.4512 1.19529 25.6095 1.15552 25.7677 1.12901C25.926 1.10249 26.0842 1.08924 26.2293 1.08924C26.3875 1.08924 26.5326 1.07598 26.6776 1.08924C26.8227 1.08924 26.9678 1.10249 27.1128 1.11575C27.2579 1.12901 27.3898 1.15552 27.5216 1.16878C27.6535 1.19529 27.7722 1.22181 27.8909 1.24832C28.0096 1.28809 28.1282 1.31461 28.2337 1.34112C28.3392 1.3809 28.4447 1.40741 28.5371 1.44718C28.6294 1.48695 28.7085 1.52673 28.7876 1.55324C28.8667 1.59301 28.9327 1.61953 28.9986 1.6593C29.1305 1.72559 29.2228 1.77861 29.2887 1.81839C29.3679 1.85816 29.4074 1.87142 29.4074 1.87142Z" fill="#2E40B5"/>
<path d="M28.4447 0.810841C28.2997 0.797584 28.1678 0.771069 28.0228 0.771069C27.8777 0.757812 27.7458 0.744554 27.6008 0.731297C27.4557 0.731297 27.3238 0.71804 27.192 0.71804C27.0601 0.71804 26.915 0.71804 26.7832 0.704783C26.5194 0.704783 26.2557 0.704783 26.0183 0.731297C25.8996 0.731297 25.7809 0.744554 25.6622 0.757812C25.5435 0.771069 25.4381 0.784326 25.3326 0.797584C25.2271 0.810841 25.1216 0.824098 25.0292 0.837355C24.9369 0.850613 24.8446 0.86387 24.7523 0.877127C24.5809 0.903642 24.4226 0.930156 24.3039 0.956671C24.1853 0.983186 24.0798 1.0097 24.0138 1.02296C23.9479 1.03621 23.9083 1.04947 23.9083 1.04947C24.1721 0.930156 24.449 0.837355 24.7259 0.757812C24.8578 0.71804 25.0029 0.678268 25.1347 0.651753C25.2666 0.625239 25.4117 0.598724 25.5435 0.585467C25.6754 0.57221 25.8073 0.545695 25.9392 0.545695C26.071 0.532438 26.2029 0.532438 26.3216 0.532438C26.5722 0.519181 26.8095 0.532438 27.0205 0.558952C27.2315 0.585467 27.4293 0.611982 27.614 0.638496C27.7854 0.665011 27.9304 0.704783 28.0623 0.731297C28.181 0.757812 28.2733 0.797584 28.3393 0.810841C28.4052 0.797584 28.4447 0.810841 28.4447 0.810841Z" fill="#2E40B5"/>
<path d="M41.2423 42.0748C40.3566 43.8463 30.7241 44.6582 26.0186 44.8428C25.8341 45.1196 25.2436 45.95 24.3579 47.0571C23.2507 48.4411 9.411 48.1643 6.36626 48.9947C3.93048 49.659 1.10718 54.6228 0 57.0217H54.2516C54.3439 57.114 54.4731 56.9664 54.2516 55.6377C53.9748 53.977 49.5461 50.9322 47.3318 50.3787C45.1174 49.8251 42.3495 39.8605 41.2423 42.0748Z" fill="#410202"/>
</svg>
