<svg width="44" height="58" viewBox="0 0 44 58" fill="none" xmlns="http://www.w3.org/2000/svg">
<path d="M1.15692 14.795C1.49314 15.8339 2.32637 16.7704 2.18019 17.8532C2.07787 18.5556 1.58084 19.1263 1.39081 19.814C0.908409 21.6578 2.83801 23.5454 2.22404 25.3452C1.99015 26.0037 1.4639 26.5159 1.3031 27.189C1.01073 28.4327 2.09248 29.5741 2.2679 30.8325C2.48718 32.3543 1.37619 33.9639 1.97554 35.3833C2.29714 36.1442 3.02805 36.6564 3.34965 37.4026C3.99285 38.8805 2.86725 40.8706 3.87591 42.129C4.19751 42.5387 4.69453 42.7729 5.11845 43.0948C5.54238 43.4021 5.93707 43.8703 5.8786 44.3971C5.84936 44.6605 5.7178 44.9239 5.77627 45.1726C5.8786 45.5824 6.41947 45.8165 6.361 46.2262C6.33176 46.3725 6.22944 46.5042 6.15635 46.6213C5.77627 47.192 5.86398 47.9968 6.27329 48.5235C7.29657 47.5432 8.26137 46.4896 9.13846 45.3775C9.59163 44.8215 10.0156 44.2215 10.2641 43.5484C10.4249 43.1094 10.5126 42.6558 10.5857 42.2022C10.995 39.5537 10.9657 36.832 10.5272 34.1834C9.88399 33.2762 9.37235 32.2958 9.0069 31.2276C7.93977 28.1547 7.86668 24.8477 7.95439 21.5992C7.99824 20.3116 8.08595 18.9214 8.91919 17.9264C9.4893 17.2533 10.3225 16.8582 10.8926 16.1997C11.6236 15.3657 11.8428 14.1073 11.4481 13.0683C12.0036 12.5269 12.6176 12.0587 13.29 11.9123C13.7724 11.8099 14.2987 11.8831 14.7665 11.6928C15.3073 11.4734 15.6874 10.9612 16.2283 10.7563C16.7107 10.5808 17.2516 10.6539 17.7632 10.5954C18.918 10.4637 19.9413 9.51256 20.146 8.3712C20.8477 9.38087 21.7247 10.4783 22.9527 10.888C23.9759 11.2246 25.0869 11.049 26.1394 11.2978C27.2504 11.5465 28.2737 12.3513 28.6099 13.4488C28.8292 14.1804 28.7269 14.9706 28.8877 15.7315C29.1069 16.6973 29.7355 17.5313 30.4664 18.2044C30.598 21.4383 30.6711 24.6575 30.1595 27.8035C30.0425 28.4913 29.9109 29.179 29.7501 29.8521C30.3933 29.7058 30.9635 29.2522 31.212 28.6376C31.4605 28.0377 31.402 27.3353 31.6797 26.7353C31.9867 26.0622 32.6884 25.594 32.8492 24.877C32.8931 24.6721 32.8931 24.4526 32.9515 24.2478C33.0246 23.9551 33.2147 23.721 33.3901 23.4722C33.8725 22.7991 34.3403 22.0236 34.2087 21.2188C34.1648 20.8822 34.0187 20.5749 33.9748 20.2384C33.9017 19.5214 34.3256 18.8044 34.1941 18.0874C34.0918 17.5313 33.6678 17.0631 33.5216 16.5217C33.2439 15.5413 33.8579 14.4584 33.507 13.4927C33.3608 13.083 33.0392 12.7318 32.8784 12.3221C32.5861 11.5758 32.8492 10.6685 32.396 10.0101C32.0306 9.48329 31.3143 9.27843 30.9342 8.76629C30.5395 8.22488 30.6126 7.43471 30.2179 6.89329C29.8963 6.43968 29.3262 6.23482 28.8877 5.88363C27.8644 5.04956 27.5866 3.39606 26.3441 2.92781C25.9933 2.79611 25.5986 2.78148 25.2477 2.66442C24.6045 2.44493 24.1806 1.84498 23.669 1.39137C22.9965 0.806056 22.1194 0.396339 21.2277 0.425604C20.526 0.45487 19.8536 0.806056 19.1519 0.791424C18.3187 0.762158 17.5878 0.191479 16.7692 0.0451516C15.9067 -0.115809 15.0296 0.176847 14.2402 0.557299C13.4508 0.923118 12.6761 1.37673 11.8282 1.5377C10.8342 1.72792 9.72319 1.55233 8.8461 2.04984C7.83744 2.62052 7.41351 3.90821 6.43409 4.53742C6.02478 4.80081 5.557 4.91787 5.11845 5.12273C4.03671 5.60561 3.29118 6.61527 2.80877 7.68346C2.4287 8.53216 2.76492 9.54183 2.45794 10.4198C2.28252 10.9319 1.85859 11.327 1.56623 11.7953C0.981499 12.644 0.820698 13.8 1.15692 14.795Z" fill="#292524"/>
<path d="M6.9164 28.3742C6.55095 28.4327 6.17087 28.2571 5.93698 27.9791C5.68847 27.7011 5.57153 27.3352 5.48382 26.984C5.41073 26.6182 5.38149 26.2524 5.29378 25.8866C5.19145 25.3744 4.9868 24.8916 4.81138 24.394C4.63596 23.8965 4.48978 23.3844 4.48978 22.8576C4.48978 22.3308 4.6652 21.7894 5.05989 21.4382C5.43996 21.087 6.06855 20.97 6.62404 21.2041C6.14164 22.3455 6.31706 23.6478 6.58018 24.8477C6.82869 26.0622 7.16491 27.2913 6.9164 28.3742Z" fill="#A65133"/>
<path d="M6.03923 21.9504C5.64454 21.8626 5.24985 22.1845 5.11829 22.565C4.98672 22.9454 5.07443 23.3698 5.22061 23.7502C5.36679 24.1307 5.57145 24.4819 5.68839 24.8623C5.83458 25.3452 5.83457 25.872 5.9369 26.3695C6.03923 26.867 6.27312 27.3792 6.71167 27.6279" stroke="#D8A492" stroke-width="0.5" stroke-miterlimit="10" stroke-linecap="round" stroke-linejoin="round"/>
<path d="M6.11238 29.5741L7.00409 29.7058C8.40744 31.0227 9.21144 32.9396 9.19683 34.8565C9.16759 36.7734 8.31973 38.6757 6.75558 39.8902C5.30838 38.6318 4.40205 36.7734 4.28511 34.8565C4.16816 32.9689 4.8406 31.0081 6.11238 29.5741ZM8.9337 35.0175C8.90446 33.1591 8.2174 31.3008 7.01871 29.8814C7.00409 29.9106 6.94562 29.9253 6.71173 30.0131C7.12104 30.8764 7.10642 31.8861 7.38417 32.7933C7.64729 33.6859 8.20279 34.4907 8.9337 35.0175ZM6.53631 35.5443C6.68249 36.1588 6.97486 36.7295 6.98947 37.3587C7.17951 36.7002 7.36955 36.0418 7.38417 35.3687C7.39878 34.5785 7.16489 33.7883 6.78482 33.1152C6.43398 33.8761 6.34627 34.7395 6.53631 35.5443ZM4.62132 35.3687C4.91369 34.6224 5.65922 34.1688 6.01005 33.481C6.2878 32.9396 6.30242 32.3104 6.2878 31.7105C6.27318 31.1105 6.25856 30.4813 6.47784 29.9253C6.4486 29.8814 6.2878 29.8375 6.14162 29.8082C5.0014 31.4032 4.46052 33.4079 4.62132 35.3687Z" fill="#D26944"/>
<path d="M6.30237 27.467C6.49241 27.3061 6.78477 27.3353 6.94557 27.5256C7.2087 27.8182 7.42797 28.1402 7.54492 28.506C7.73495 29.1205 7.51568 29.9254 6.78477 30.0278C6.59473 30.057 6.39008 30.0131 6.21466 29.9254C5.57146 29.6034 5.4399 28.8133 5.70302 28.2279C5.83459 27.9207 6.05386 27.6719 6.30237 27.467Z" fill="#D26944"/>
<path d="M6.58015 28.0525C6.7848 28.2134 6.98946 28.4036 7.09179 28.6378C7.20873 28.8719 7.22335 29.1792 7.06255 29.3987C6.88713 29.6474 6.5363 29.7206 6.27317 29.5743C6.02466 29.4279 5.90771 29.0621 6.03928 28.7987C6.09775 28.9304 6.17084 29.0621 6.28779 29.1353C6.40473 29.2231 6.56553 29.2523 6.68248 29.1646C6.7848 29.0768 6.81404 28.9304 6.81404 28.7987C6.82866 28.5353 6.75557 28.272 6.58015 28.0525Z" fill="#E48450"/>
<path d="M21.944 51.2892C22.0463 51.6696 22.2802 52.0062 22.4995 52.3281C23.2304 53.4695 23.8005 54.6986 24.1952 55.9863C24.546 56.1473 24.8823 56.3228 25.2185 56.5131C25.7593 56.8204 26.271 57.1715 26.6511 57.6398C27.0896 58.1666 27.3674 58.8397 27.4112 59.5274C27.6597 59.6445 27.8936 59.7615 28.1421 59.8932C28.5076 60.0981 28.8438 60.3469 29.1946 60.581C29.3408 60.6834 29.5016 60.8005 29.5308 60.9761C29.5747 61.1809 29.4139 61.3858 29.2092 61.459C29.0192 61.5321 28.7999 61.5028 28.5953 61.459C28.493 61.4443 28.4052 61.4151 28.3175 61.3858C28.7707 62.0004 29.1069 62.7027 29.4431 63.3905C29.6916 63.9173 29.9402 64.4294 30.1887 64.9562H43.1404C43.2573 64.3562 43.1696 63.727 42.8627 63.2003C42.6288 62.8052 42.2925 62.4686 42.1464 62.0296C41.8101 61.0639 42.468 59.9957 42.2341 59.0153C42.0294 58.1373 41.1669 57.5666 40.8161 56.7326C40.2899 55.5034 40.9915 53.9523 40.3191 52.7817C39.6759 51.6696 38.0094 51.377 37.5562 50.1624C37.2493 49.3284 37.6293 48.3333 37.22 47.5432C36.7961 46.7237 35.6266 46.4165 35.3489 45.5385C35.2027 45.0702 35.3489 44.5581 35.2173 44.0898C34.9688 43.0948 33.7263 42.7144 33.1854 41.851C32.5422 40.7828 33.0977 39.2464 32.3522 38.2514C31.9867 37.7685 31.3874 37.5051 31.0804 36.9783C30.8026 36.4954 30.8465 35.9101 30.7588 35.3541C30.5834 34.1688 29.8378 33.1884 29.0046 32.2958C28.4199 33.8323 27.6012 35.2809 26.4756 36.4808C25.657 37.3588 24.9407 38.1636 24.1367 38.8659C23.7567 39.1879 23.3473 39.4951 22.9088 39.7293C22.9088 41.2657 22.8942 42.2754 22.7772 43.3436C22.7772 43.3728 22.7772 43.3875 22.7626 43.4167C22.7626 43.4899 22.748 43.5631 22.7334 43.6362C22.7188 43.7679 22.7041 43.8996 22.6749 44.0313C22.6603 44.1337 22.6457 44.2508 22.6311 44.3679V44.3825C22.6164 44.441 22.6164 44.4996 22.6018 44.5581C22.5872 44.6166 22.5872 44.6752 22.5726 44.7337C22.558 44.8068 22.5433 44.8946 22.5287 44.9678C22.5141 45.0702 22.4995 45.1727 22.4702 45.2897C22.4702 45.3044 22.4702 45.3336 22.4556 45.3483C22.4264 45.4946 22.3972 45.6263 22.3679 45.7726C22.251 46.2701 22.1194 46.753 22.0025 47.2505C21.7832 48.2456 21.8709 49.182 21.8124 50.2063C21.8124 50.2649 21.8124 50.3234 21.7978 50.3819C21.8417 50.6892 21.8563 50.9965 21.944 51.2892Z" fill="#292524"/>
<path d="M31.9137 34.8711C31.7967 36.788 30.8904 38.6317 29.4432 39.9048C27.8791 38.6903 27.0312 36.788 27.002 34.8711C26.9873 32.9542 27.7913 31.0373 29.1947 29.7204L30.0864 29.5887C31.3582 31.008 32.0306 32.9688 31.9137 34.8711ZM28.8146 32.7932C29.0924 31.8714 29.0778 30.8764 29.4871 30.013C29.2532 29.9399 29.1947 29.9106 29.1801 29.8813C27.9814 31.3007 27.2943 33.1591 27.2651 35.0174C27.996 34.4907 28.5515 33.6858 28.8146 32.7932ZM29.414 33.1152C29.0339 33.7883 28.8 34.5784 28.8146 35.3686C28.8292 36.0564 29.0193 36.7148 29.2093 37.3587C29.2239 36.7295 29.5163 36.1588 29.6625 35.5442C29.8525 34.7394 29.7648 33.8761 29.414 33.1152ZM30.0718 29.7935C29.911 29.8374 29.7502 29.8667 29.7356 29.9106C29.9548 30.4666 29.9402 31.0958 29.9256 31.6958C29.911 32.2957 29.9256 32.9249 30.2034 33.4664C30.5542 34.1541 31.2997 34.6077 31.5921 35.354C31.7383 33.4078 31.1828 31.4031 30.0718 29.7935Z" fill="#D26944"/>
<path d="M29.8964 27.467C29.7064 27.3061 29.414 27.3353 29.2532 27.5256C28.9901 27.8182 28.7708 28.1402 28.6539 28.506C28.4638 29.1205 28.6831 29.9254 29.414 30.0278C29.6041 30.057 29.8087 30.0131 29.9841 29.9254C30.6273 29.6034 30.7589 28.8133 30.4958 28.2279C30.3642 27.9207 30.1449 27.6719 29.8964 27.467Z" fill="#D26944"/>
<path d="M29.6186 28.0525C29.4139 28.2134 29.2093 28.4036 29.107 28.6378C28.99 28.8719 28.9754 29.1792 29.1362 29.3987C29.3116 29.6474 29.6625 29.7206 29.9256 29.5743C30.1741 29.4279 30.291 29.0621 30.1595 28.7987C30.101 28.9304 30.0279 29.0621 29.911 29.1353C29.794 29.2231 29.6332 29.2523 29.5163 29.1646C29.4139 29.0768 29.3847 28.9304 29.3847 28.7987C29.3701 28.5353 29.4432 28.272 29.6186 28.0525Z" fill="#E48450"/>
<path d="M5.24987 49.4747C7.00405 50.0161 8.61205 51.0258 10.3809 51.5233C11.1849 51.7574 12.0181 51.8745 12.8367 52.0354C15.4826 52.5476 18.0554 53.4694 20.4528 54.7425C21.6661 54.8303 22.8356 55.3571 23.9612 55.8838C24.0343 55.9131 24.122 55.957 24.1951 56.0009C23.8004 54.7132 23.2303 53.4841 22.4994 52.3427C22.2801 52.0062 22.0608 51.6842 21.9439 51.3038C21.8562 51.0111 21.8562 50.7038 21.8562 50.3965C21.8562 50.338 21.8562 50.2795 21.8708 50.221C21.9292 49.1967 21.8415 48.2602 22.0608 47.2651C22.1631 46.7676 22.3093 46.2701 22.4263 45.7872C22.4555 45.6409 22.4847 45.5092 22.514 45.3629C22.514 45.3482 22.5286 45.319 22.5286 45.3043C22.5432 45.2019 22.5724 45.0848 22.5871 44.9824C22.6017 44.9093 22.6163 44.8215 22.6309 44.7483C22.6455 44.6898 22.6455 44.6312 22.6602 44.5727C22.6748 44.5142 22.6748 44.4556 22.6894 44.3971V44.3825C22.704 44.2654 22.7186 44.163 22.7332 44.0459C22.7479 43.9142 22.7625 43.7825 22.7917 43.6508C22.8063 43.5777 22.8063 43.5045 22.821 43.4313C22.821 43.4021 22.821 43.3874 22.8356 43.3582C22.9379 42.29 22.9671 41.2803 22.9671 39.7439C22.4701 40.0219 21.9292 40.2268 21.3738 40.3292C20.292 40.5194 19.1664 40.3146 18.1577 39.8756C17.1491 39.4512 16.272 38.8513 15.3072 38.3391C13.4507 37.3295 11.8134 35.9101 10.5855 34.1834C10.6001 34.3151 10.6294 34.4322 10.644 34.5639C10.6586 34.6663 10.6732 34.7687 10.6878 34.8712C10.7171 35.1346 10.7609 35.3833 10.7902 35.6467C10.8048 35.7345 10.8048 35.8077 10.8194 35.8955C10.834 35.9686 10.834 36.0418 10.834 36.115C10.8633 36.4076 10.8779 36.7003 10.8925 36.9929C10.9363 37.7246 10.9363 38.4562 10.9217 39.1878C10.9217 39.3049 10.9071 39.4366 10.9071 39.5537C10.9071 39.5829 10.9071 39.6122 10.9071 39.6415C10.9071 39.7585 10.8925 39.8609 10.8925 39.9634C10.8925 39.978 10.8925 39.978 10.8925 39.9926C10.8925 40.0951 10.8779 40.2121 10.8779 40.3146C10.8779 40.3731 10.8633 40.4316 10.8633 40.4902C10.8486 40.578 10.8486 40.6804 10.834 40.7828C10.8194 40.8706 10.8194 40.973 10.8048 41.0608C10.7902 41.1779 10.7756 41.3096 10.7609 41.4267C10.7463 41.5437 10.7317 41.6608 10.7171 41.7778C10.7025 41.8949 10.6878 42.012 10.6732 42.129C10.6732 42.1583 10.6586 42.1729 10.6586 42.2022C10.5855 42.6558 10.5124 43.1241 10.337 43.5484C10.0885 44.2215 9.64995 44.8068 9.2114 45.3775C8.33431 46.4896 7.36951 47.5432 6.34623 48.5236C5.93692 48.8455 5.6007 49.1528 5.24987 49.4747Z" fill="#FFC5B0"/>
<path d="M10.8487 37.0954C10.8048 36.115 10.6879 35.1493 10.5271 34.1835C11.7404 35.9102 13.3922 37.3295 15.2487 38.3392C16.2135 38.866 17.0906 39.4513 18.0993 39.8756C19.108 40.3146 20.2336 40.5195 21.3153 40.3293C21.8854 40.2268 22.4117 40.022 22.9087 39.7439C22.9087 42.1291 22.8648 43.2558 22.4994 45.2898C22.3824 45.9482 22.1778 46.5921 22.0462 47.2506C21.8269 48.2456 21.9147 49.1821 21.8562 50.2064C21.8562 50.2649 21.8562 50.3234 21.8416 50.382C20.906 49.0797 19.7512 47.9383 18.8156 46.636C17.4122 44.7191 16.4621 42.451 14.8102 40.7536C13.5677 39.4659 11.9304 38.5148 10.8487 37.0954Z" fill="#F5B7A2"/>
<path d="M15.2782 50.9819C16.7108 51.4209 18.1726 51.7282 19.6636 51.9184C20.1899 51.9916 20.7454 52.0355 21.2132 52.2842C21.4909 52.4305 21.7248 52.6354 21.9441 52.8403C22.2657 53.1476 22.5727 53.4841 22.7627 53.806C20.7161 52.1964 17.544 52.6939 15.2782 50.9819Z" fill="#F5B7A2"/>
<path d="M10.8341 39.978C12.2959 41.5145 14.1231 42.7144 16.1258 43.4314C18.2162 44.1776 20.5113 44.3971 22.704 44.0606C22.7333 43.8265 22.7625 43.5923 22.7917 43.3728C20.6136 43.7972 18.3332 43.6216 16.2428 42.89C14.167 42.1583 12.2959 40.8706 10.8633 39.1879C10.8633 39.4366 10.8487 39.7 10.8341 39.978Z" fill="#EDF5FF"/>
<path d="M10.7903 40.4757C13.8893 43.4608 18.3917 44.9387 22.6602 44.3826C22.6749 44.2656 22.6895 44.1631 22.7041 44.0461C20.4968 44.3826 18.2163 44.1631 16.1259 43.4169C14.1232 42.6998 12.2959 41.5146 10.8341 39.9635C10.8195 40.1391 10.8049 40.3147 10.7903 40.4757Z" fill="#993331"/>
<path d="M10.7317 41.0463C13.9769 43.8119 18.3039 45.2459 22.5578 44.9825C22.5871 44.7777 22.6163 44.5728 22.6602 44.3826C18.3916 44.9386 13.9038 43.4607 10.7902 40.4756C10.7755 40.6659 10.7609 40.8561 10.7317 41.0463Z" fill="#BAB770"/>
<path d="M10.7025 41.4121C13.8893 44.2362 18.2601 45.6995 22.4994 45.3483C22.4994 45.3337 22.514 45.3044 22.514 45.2898C22.5287 45.1874 22.5579 45.0703 22.5725 44.9679C18.3186 45.2459 13.9916 43.7972 10.7464 41.0316C10.7318 41.1633 10.7171 41.295 10.7025 41.4121Z" fill="#993331"/>
<path d="M10.6 42.1291C13.8014 44.9239 18.2015 46.2848 22.4116 45.7726C22.4408 45.6263 22.47 45.4946 22.4993 45.3483C18.26 45.6995 13.8891 44.2362 10.7024 41.412C10.6731 41.6462 10.6293 41.8803 10.6 42.1291Z" fill="#EDF5FF"/>
<path d="M1.24462 55.2106C1.37618 55.2692 1.50774 55.3277 1.62469 55.4447C1.42003 55.5911 1.20076 55.7374 1.0692 55.9569C0.937635 56.1764 0.908398 56.469 1.05458 56.6739C1.15691 56.791 1.28847 56.8495 1.44927 56.8788C1.61007 56.8934 1.80011 56.8788 1.96091 56.8641C5.30848 56.3666 8.75838 56.1764 12.0475 56.9666C12.6907 57.1129 13.3193 57.3177 13.8894 57.6543C14.4887 58.0201 14.9711 58.5323 15.4535 59.0298C15.9652 59.5858 16.4768 60.1419 17.0323 60.654C17.3393 60.9467 17.6609 61.2247 17.9971 61.4734C18.8596 62.1173 19.839 62.6148 20.7307 63.2147C21.4616 63.6976 22.1633 64.2829 22.6603 64.9999H29.3408C27.9521 63.2879 26.4172 61.5027 24.6922 60.0248C23.5959 59.0883 22.4264 58.2689 21.1692 57.6689C19.8828 57.0543 18.5087 56.6446 17.1492 56.2349C15.7897 55.8252 14.4302 55.4301 13.0708 55.035C9.28463 53.9522 5.45466 53.0157 1.5516 52.6206C1.36156 52.606 1.17153 52.5767 0.981489 52.5182C0.981489 52.6645 1.03996 52.8401 0.952255 52.9572C0.908401 53.0011 0.849926 53.0303 0.791454 53.0596C0.469854 53.2059 0.133633 53.4108 0.0313053 53.762C-0.071022 54.0985 0.0897789 54.4643 0.338289 54.7131C0.586798 54.918 0.923019 55.0643 1.24462 55.2106Z" fill="#111A3C"/>
<path d="M0.966779 54.9327C1.303 54.9766 1.63922 54.9327 1.97544 54.8888C3.40802 54.684 4.84061 54.2743 6.27319 54.4352C4.69443 54.6108 3.11566 54.9474 1.59536 55.401C1.49304 55.2986 1.36147 55.2547 1.24453 55.1961C0.9814 55.0791 0.718272 54.962 0.498999 54.801C0.645181 54.8742 0.805978 54.9035 0.966779 54.9327Z" fill="#FFE6CC"/>
<path d="M2.54553 54.0839C1.9608 54.1571 1.41992 54.5083 0.820576 54.5229C0.732867 54.5229 0.630543 54.5083 0.586689 54.4205C0.542834 54.318 0.645161 54.2156 0.732871 54.1571C1.24451 53.8498 1.85847 53.8498 2.45782 53.8644C3.58342 53.8791 4.70902 53.9083 5.83463 53.923C6.40474 53.9376 6.98946 53.9376 7.32568 54.1424C5.8931 54.1132 4.47513 54.0985 3.04255 54.0693C2.89636 54.0693 2.72095 54.0546 2.54553 54.0839Z" fill="#111A3B"/>
<path d="M22.3971 59.8491C21.5492 59.2346 20.6721 58.6785 19.8389 58.0347C19.108 57.464 18.4063 56.8348 17.6169 56.3519C17.9677 56.4543 18.3186 56.5714 18.684 56.6738C18.8594 56.8348 19.0202 56.9958 19.1957 57.1714C20.0289 57.9908 21.0376 58.6346 22.0024 59.3077C22.9672 59.9808 23.9027 60.7271 24.5605 61.7075C23.8881 61.0051 23.1718 60.4052 22.3971 59.8491Z" fill="#111A3B"/>
<path d="M0.455068 52.1231C0.572013 52.3133 0.77667 52.4304 0.995943 52.4889C1.17136 52.5475 1.37602 52.5621 1.56605 52.5914C5.48373 52.9864 9.29909 53.9376 13.0852 55.0058C10.834 52.3719 7.25254 51.2012 3.84649 50.455C3.58337 50.3964 3.30562 50.3379 3.04249 50.294C2.69166 50.2355 2.34082 50.2208 2.0046 50.2647C1.39063 50.3379 0.762052 50.6598 0.484305 51.2159C0.338123 51.5085 0.294267 51.8597 0.455068 52.1231Z" fill="#111A3B"/>
<path d="M4.81128 52.6205C4.08037 52.4889 3.37869 52.284 2.69164 52.0206C2.37004 51.8889 2.03382 51.7572 1.78531 51.5085C1.68298 51.406 1.58065 51.2743 1.56603 51.128C1.5368 50.8792 1.72684 50.6598 1.87302 50.5427C1.79993 50.7476 1.82916 50.9817 1.94611 51.1719C2.03382 51.3036 2.16538 51.3914 2.28233 51.4792C3.04247 52.006 3.87571 52.4157 4.81128 52.6205Z" fill="#111A3B"/>
<path d="M20.4382 54.7277C21.5931 55.3423 22.6895 56.0301 23.742 56.8056C24.4436 57.3177 25.1892 57.9323 25.9201 58.5469C26.1686 58.7664 26.4317 58.9712 26.7095 59.1468C26.9287 59.2932 27.1626 59.4102 27.4111 59.5273C27.3527 58.8396 27.0895 58.1664 26.651 57.6397C26.2563 57.1714 25.7447 56.8056 25.2184 56.5129C24.8822 56.3227 24.546 56.1618 24.1951 55.9862C24.122 55.9569 24.0343 55.913 23.9612 55.8691C22.8356 55.3423 21.6662 54.8302 20.4382 54.7277Z" fill="#111A3B"/>
<path d="M25.92 58.5469C25.1891 57.9323 24.4436 57.3178 23.7419 56.8056C22.6894 56.0301 21.5931 55.3423 20.4382 54.7278C21.0376 54.7717 21.6369 54.918 22.207 55.1375C23.5958 55.8838 24.8383 56.8788 25.8762 58.0494C26.0662 58.2689 26.2563 58.4884 26.4609 58.6933C26.724 58.9566 27.031 59.1615 27.3672 59.3371C27.3819 59.4103 27.3819 59.4688 27.3965 59.542C27.1626 59.4249 26.9287 59.3078 26.6948 59.1615C26.4317 58.9713 26.1832 58.7664 25.92 58.5469Z" fill="#111A3B"/>
<path d="M3.02809 50.3086C3.30584 50.3525 3.56896 50.411 3.83209 50.4696C7.25275 51.2305 10.8196 52.3865 13.0708 55.0204C14.4303 55.4008 15.7898 55.8105 17.1493 56.2202C18.5088 56.63 19.8829 57.0397 21.1693 57.6543C22.4265 58.2542 23.5959 59.0736 24.6923 60.0101C25.0724 60.0833 25.4524 60.1857 25.8179 60.3174C26.6657 60.6393 27.4405 61.1515 28.2884 61.4149C28.3761 61.4441 28.4784 61.4734 28.5661 61.488C28.7708 61.5319 28.99 61.5612 29.1801 61.488C29.3701 61.4149 29.5309 61.21 29.5017 61.0052C29.4724 60.8296 29.3116 60.7125 29.1655 60.6101C28.8292 60.3613 28.4784 60.1272 28.1129 59.9223C27.8791 59.7906 27.6305 59.6736 27.382 59.5565C27.1481 59.4395 26.9143 59.3224 26.6804 59.1761C26.4026 59.0005 26.1395 58.781 25.891 58.5761C25.1601 57.9615 24.4145 57.347 23.7129 56.8348C22.6604 56.0593 21.564 55.3715 20.4091 54.757C18.0264 53.4839 15.4536 52.562 12.7931 52.0499C11.9744 51.8889 11.1412 51.7719 10.3372 51.5378C8.56839 51.0402 6.96039 50.0306 5.2062 49.4892C5.17697 49.4745 5.16235 49.4745 5.13311 49.4745C4.69457 49.3428 4.2414 49.2404 3.78824 49.3575C3.40817 49.4306 3.02809 49.8696 3.02809 50.3086Z" fill="#111A3C"/>
<path d="M15.2928 53.6009C17.2516 54.1716 19.1081 55.0495 20.8623 56.1031C21.3301 56.3811 21.7832 56.6738 22.2218 56.9957C22.5872 57.2591 22.9381 57.5517 23.3182 57.7859C24.2537 58.3858 25.3793 58.737 26.0518 59.3808C24.7361 58.2834 23.3035 57.3322 21.8856 56.3811C21.2862 55.986 20.6869 55.5763 20.0583 55.2251C18.7573 54.5081 17.3247 53.9813 15.2928 53.6009Z" fill="#111A3B"/>
<path d="M3.72969 49.3575C3.91973 49.4307 4.09515 49.5624 4.27057 49.6794C5.03071 50.1769 5.92242 50.3964 6.7849 50.6891C7.63276 50.9818 8.49523 51.3768 9.02148 52.1085C7.38424 51.3622 5.5862 50.8647 3.8174 50.4696C3.55427 50.4111 3.27653 50.3525 3.0134 50.3086C3.02802 49.8989 3.34962 49.5038 3.72969 49.3575Z" fill="#111A3B"/>
<path d="M9.75255 52.445C12.1646 52.5767 14.5327 53.3815 16.5354 54.7423C15.4683 54.1717 14.3719 53.601 13.1732 53.3669C12.34 53.2059 11.4629 53.2352 10.6589 52.9425C10.3665 52.7815 10.0595 52.606 9.75255 52.445Z" fill="#111A3B"/>
<path d="M25.7302 60.2882C25.394 60.1711 25.0578 60.0833 24.7069 60.0101C23.6106 59.0736 22.4411 58.2542 21.184 57.6543C20.5261 57.347 19.8537 57.0836 19.1813 56.8495C19.5029 56.6885 19.8829 56.7031 20.2338 56.7909C20.7016 56.9226 21.1255 57.186 21.5494 57.4201C22.675 58.0347 23.9468 58.4444 24.8678 59.337C24.2976 59.059 23.7421 58.7663 23.1867 58.4591C23.7129 58.898 24.3561 59.1614 24.9116 59.5565C25.204 59.776 25.4671 60.0248 25.7302 60.2882Z" fill="#111A3B"/>
<path d="M0.689171 64.9708H17.7925C17.6902 63.4929 17.427 62.0442 17.0177 60.6249C16.4622 60.1127 15.9652 59.542 15.4389 59.0006C14.9712 58.4885 14.4741 57.9763 13.8748 57.6251C13.3193 57.2886 12.6761 57.0984 12.0329 56.9374C8.74381 56.1472 5.29391 56.3375 1.94634 56.835C1.78554 56.8642 1.5955 56.8789 1.4347 56.8496C1.25928 57.2008 1.15695 57.5959 1.06924 57.991C0.557608 60.2737 0.426043 62.6442 0.689171 64.9708Z" fill="#EDF5FF"/>
<path d="M9.00688 31.2276C9.37233 32.2812 9.89859 33.2762 10.5272 34.1834C11.7405 35.9101 13.3923 37.3295 15.2489 38.3391C16.2137 38.8659 17.0907 39.4512 18.0994 39.8756C19.1081 40.3146 20.2337 40.5194 21.3154 40.3292C21.8855 40.2268 22.4118 40.0219 22.9088 39.7439C23.3473 39.4951 23.7567 39.2025 24.1367 38.8806C24.9407 38.1782 25.657 37.3734 26.4756 36.4954C27.6012 35.2955 28.4052 33.8469 29.0046 32.3104C29.3116 31.5056 29.5601 30.6862 29.7647 29.8521C29.9255 29.1644 30.0571 28.4913 30.174 27.8035C30.6711 24.6575 30.6126 21.4383 30.481 18.2044C29.7501 17.5313 29.1215 16.7119 28.9023 15.7315C28.7415 14.9852 28.8438 14.1951 28.6245 13.4488C28.3029 12.3513 27.265 11.5612 26.154 11.2978C25.1015 11.0636 23.9905 11.2246 22.9673 10.8881C21.7393 10.4783 20.8622 9.39551 20.1606 8.37122C19.9559 9.51257 18.9326 10.4637 17.7778 10.5954C17.2662 10.6539 16.7253 10.5661 16.2429 10.7564C15.702 10.9612 15.3219 11.4734 14.7811 11.6929C14.3133 11.8684 13.8016 11.8099 13.3046 11.9123C12.6322 12.044 12.0182 12.5269 11.4627 13.0683C11.8574 14.1073 11.6382 15.3657 10.9072 16.1998C10.3371 16.8582 9.5039 17.2533 8.93379 17.9264C8.10055 18.9214 8.01284 20.2969 7.96898 21.5992C7.86666 24.8477 7.93975 28.1694 9.00688 31.2276Z" fill="#FFC5B0"/>
<path d="M15.249 38.3391C13.3925 37.3295 11.7552 35.9101 10.5273 34.1834C9.88408 33.2762 9.37245 32.2958 9.00699 31.2276C8.20299 28.901 7.95448 26.4134 7.93986 23.9405C8.26146 24.5697 8.65615 25.1842 9.19703 25.6379C9.65019 26.0183 10.1911 26.2817 10.7027 26.5451C11.7114 27.0572 12.72 27.6133 13.4363 28.4766C14.3719 29.5887 14.7081 31.0666 14.8835 32.5006C15.0443 33.9346 15.0735 35.4126 15.4829 36.8027C15.7168 37.6075 16.0822 38.3684 16.5208 39.0708C16.0968 38.822 15.6875 38.5732 15.249 38.3391Z" fill="#F5B7A2"/>
<path d="M26.4025 34.9004C26.8556 33.8761 27.1334 32.7787 27.6889 31.7983C28.0836 31.1252 28.5952 30.5252 29.0045 29.8667C29.5162 29.0619 29.9839 28.1108 30.2471 27.1304C30.2178 27.3499 30.1886 27.5694 30.1447 27.7889C30.0278 28.4766 29.8962 29.1644 29.7354 29.8375C29.5308 30.6715 29.2823 31.5056 28.9753 32.2958C28.3906 33.8322 27.5719 35.2809 26.4463 36.4807C25.9201 37.0368 25.4377 37.5782 24.9553 38.0611C25.3061 36.9929 25.9493 35.954 26.4025 34.9004Z" fill="#F5B7A2"/>
<path d="M18.2163 35.6319C18.2747 36.2026 18.6987 36.6708 19.1957 36.9342C19.6927 37.1976 20.2628 37.3 20.8329 37.4025L22.3825 37.6658C22.6164 37.7097 22.8649 37.739 23.0841 37.6658C23.318 37.5781 23.4934 37.3732 23.6542 37.183C23.815 36.9927 23.9759 36.7879 24.0636 36.5538C24.1074 36.4221 24.1367 36.2611 24.0343 36.1733C23.932 36.0709 23.7712 36.1001 23.6396 36.1148C23.0841 36.2026 22.4994 36.1733 21.9585 35.9977C21.9585 35.9977 21.2276 35.3246 20.3944 35.2953C19.5465 35.2661 18.2163 35.6319 18.2163 35.6319Z" fill="#F5B7A2"/>
<path d="M9.60624 21.8919C9.81089 22.287 10.1617 22.5942 10.5564 22.7991C10.5126 22.7698 10.4687 22.7259 10.4102 22.6967C10.8195 22.7991 11.2289 22.7552 11.6236 22.6381C11.5505 22.565 11.4774 22.4918 11.4189 22.404C11.5797 22.4772 11.7551 22.5357 11.9305 22.5503C11.9452 22.5503 11.9598 22.5357 11.9744 22.5357C12.0182 22.5211 12.0621 22.5065 12.0913 22.4918C12.0036 22.4187 11.9452 22.3455 11.8867 22.2577C11.989 22.287 12.0767 22.3601 12.1644 22.4187C12.1937 22.4333 12.2229 22.4479 12.2521 22.4479C12.3106 22.4333 12.3691 22.404 12.4276 22.3894C12.3545 22.3162 12.296 22.2431 12.2521 22.1553C12.3691 22.2284 12.486 22.287 12.6176 22.3309C12.91 22.2284 13.2023 22.1406 13.5093 22.1114C14.211 22.0236 14.9273 22.2284 15.5412 22.5796C16.126 22.9308 16.623 23.4429 16.93 24.0575C17.1054 24.1453 17.2808 24.2331 17.4708 24.2039C17.6755 24.1892 17.8801 24.0575 17.9971 23.8819C18.114 23.7063 18.1725 23.5015 18.2017 23.282C18.2602 22.8137 18.1433 22.3309 17.9825 21.8919C17.7924 21.3505 17.5147 20.8529 17.1785 20.3847C16.2575 20.4432 15.322 20.3701 14.4302 20.1798C13.6993 20.0189 12.9977 19.7848 12.2521 19.697C11.4335 19.5945 10.5857 19.697 9.79628 19.9311C9.31387 20.4286 9.27002 21.2627 9.60624 21.8919Z" fill="#F5B7A2"/>
<path d="M21.593 22.9162C21.6954 23.2234 21.8854 23.5161 22.1339 23.721C22.514 24.0429 23.0256 24.1746 23.508 24.1307C23.698 23.4868 23.9758 23.0771 24.312 22.7552C24.6629 22.404 25.116 22.1406 25.613 22.0675C26.1539 21.9797 26.6948 22.0967 27.2064 22.2723C27.4549 22.2869 27.7181 22.2869 27.952 22.2138C27.8496 22.3016 27.7473 22.3747 27.6157 22.4186C27.7181 22.4479 27.8058 22.4918 27.9081 22.5211C28.025 22.5064 28.1566 22.4772 28.2736 22.4333C28.2151 22.4918 28.1566 22.5357 28.0981 22.5942C28.1566 22.6089 28.2151 22.6381 28.2882 22.6528C28.4928 22.6089 28.6975 22.5503 28.9021 22.4772C28.7998 22.5796 28.6682 22.6674 28.5513 22.7406C28.6829 22.7845 28.8144 22.8137 28.9606 22.843C29.2237 22.7406 29.4722 22.565 29.633 22.3308C29.9546 21.8626 29.8962 21.2188 29.5892 20.7505C29.3992 20.4578 29.1214 20.2237 28.8144 20.0628C28.2589 19.9457 27.6888 19.9457 27.1333 20.092C26.3001 20.2969 25.4522 20.2384 24.6482 20.253C24.0927 20.2676 23.4934 20.3408 22.9964 20.5603C22.7625 20.6627 22.5578 20.7944 22.3824 20.9846C21.9439 21.4236 21.7392 22.0382 21.6515 22.6528C21.6223 22.7406 21.6076 22.8284 21.593 22.9162Z" fill="#F5B7A2"/>
<path d="M19.9705 32.5885C20.0435 32.1202 20.1313 31.6374 20.3944 31.2423C20.4529 31.1545 20.526 31.0667 20.6283 31.0081C20.716 30.9496 20.8329 30.935 20.9353 30.9642C21.0668 31.0081 21.1399 31.1398 21.213 31.2569C21.3592 31.5642 21.4615 31.8861 21.5054 32.2227C21.5054 32.2227 21.3153 32.7933 20.8183 32.8519C20.3213 32.9104 19.9705 32.5885 19.9705 32.5885Z" fill="#F5B7A2"/>
<path d="M28.2883 22.1553C27.6305 21.7017 26.8704 21.3944 26.081 21.3944C25.2916 21.3944 24.4876 21.7456 24.0344 22.4041" stroke="#D8A492" stroke-width="0.5" stroke-miterlimit="10" stroke-linecap="round" stroke-linejoin="round"/>
<path d="M16.5498 22.6966C16.2574 22.2869 15.9212 21.8625 15.4681 21.643C15.1318 21.4821 14.7518 21.4382 14.3863 21.3943C13.8747 21.3357 13.363 21.2772 12.866 21.3796C12.2521 21.4967 11.6966 21.8333 11.1557 22.1698" stroke="#D8A492" stroke-width="0.5" stroke-miterlimit="10" stroke-linecap="round" stroke-linejoin="round"/>
<path d="M9.34313 20.0334C9.48931 19.9895 9.62087 19.931 9.76705 19.9017C10.5564 19.6676 11.4043 19.5798 12.2229 19.6676C12.9684 19.7554 13.6701 19.9895 14.401 20.1505C15.3074 20.3407 16.2283 20.4139 17.1493 20.3553C17.2516 20.3553 17.3393 20.3407 17.4416 20.3407C17.4709 19.9164 17.3539 19.6091 17.1346 19.4042C16.9154 19.214 16.6376 19.1116 16.3452 19.0677C16.0529 19.0238 15.7605 19.0384 15.4828 19.0238C14.3279 18.9945 13.1877 18.6579 12.0475 18.8482C11.0827 19.0091 10.2056 19.5213 9.34313 20.0334Z" fill="#292524"/>
<path d="M17.2954 29.6764C17.2661 30.1593 17.5585 30.6568 17.997 30.8471C18.421 31.0373 18.9618 30.9349 19.2834 30.5983C18.9911 30.73 18.6402 30.73 18.3479 30.6129C17.997 30.4666 17.7339 30.1447 17.6462 29.7642C17.5877 29.4716 17.6316 29.1643 17.7632 28.8863C17.8216 28.7253 17.9093 28.579 18.0117 28.4327C17.8655 28.5644 17.7339 28.7107 17.617 28.8716C17.4416 29.1058 17.31 29.3838 17.2954 29.6764Z" fill="#F5B7A2"/>
<path d="M22.0756 30.5544C22.2218 30.8178 22.558 30.9349 22.8504 30.8763C23.1574 30.8032 23.4059 30.5544 23.5082 30.2471C23.5813 30.0276 23.5813 29.7935 23.5375 29.5594C23.4936 29.852 23.3328 30.13 23.0989 30.3056C22.8212 30.5398 22.4265 30.6276 22.0756 30.5544Z" fill="#F5B7A2"/>
<path d="M22.7188 27.9207C23.0843 28.2865 23.4644 28.6962 23.5374 29.1937C23.5959 29.6034 23.4205 30.057 23.0989 30.3204C22.7773 30.5838 22.3095 30.657 21.9148 30.5107" stroke="#D8A492" stroke-width="0.5" stroke-miterlimit="10" stroke-linecap="round" stroke-linejoin="round"/>
<path d="M19.4443 30.5106C19.1227 30.7154 18.6988 30.7593 18.348 30.613C17.9971 30.4667 17.734 30.1448 17.6463 29.7643C17.5878 29.4716 17.6463 29.1644 17.7632 28.8863C17.8802 28.6083 18.0556 28.3596 18.2456 28.1254" stroke="#D8A492" stroke-width="0.5" stroke-miterlimit="10" stroke-linecap="round" stroke-linejoin="round"/>
<path d="M21.3886 30.1155C21.681 30.1887 21.9733 30.2033 22.2657 30.1594C22.3534 30.1448 22.4411 30.1155 22.5288 30.0716C22.6019 30.0277 22.6604 29.9399 22.675 29.8521C22.6896 29.7058 22.5434 29.5887 22.3973 29.5741C22.2511 29.5595 22.1049 29.618 21.988 29.6912C21.7687 29.8229 21.5933 29.9838 21.3886 30.1155Z" fill="#292524"/>
<path d="M18.6549 29.9985C18.7279 30.0717 18.8449 30.0863 18.9618 30.0863C19.2396 30.0717 19.5173 29.9692 19.7512 29.8229C19.6781 29.7644 19.5904 29.6912 19.5027 29.6473C19.2981 29.5302 19.0495 29.4717 18.8449 29.5595C18.7572 29.5888 18.6841 29.6619 18.6402 29.7497C18.5818 29.8229 18.5964 29.94 18.6549 29.9985Z" fill="#292524"/>
<path d="M21.2861 30.1887C21.0961 30.3057 20.8622 30.3935 20.6429 30.3643C20.409 30.335 20.219 30.2033 20.029 30.057C19.9851 30.0131 19.9266 29.9692 19.8828 29.9253" stroke="#D8A492" stroke-width="0.5" stroke-miterlimit="10" stroke-linecap="round" stroke-linejoin="round"/>
<path d="M16.6814 34.1834C16.7983 34.2712 16.9153 34.3297 17.0615 34.3736C17.4415 34.4907 17.8947 34.4175 18.2748 34.2858C18.4648 34.2273 18.6695 34.1395 18.8595 34.0809C19.1957 33.9639 19.5173 33.8614 19.8682 33.8614C20.3067 33.8614 20.7453 34.0224 21.1692 33.9492C21.3738 33.92 21.5785 33.8175 21.7831 33.8175C22.1925 33.8029 22.5287 34.0809 22.8941 34.2712C22.9088 34.2712 22.9088 34.2858 22.9234 34.2858C23.3181 34.476 23.7566 34.5492 24.1805 34.5346C24.2829 34.5346 24.3706 34.5199 24.4729 34.5199C23.932 33.8322 23.3473 33.203 22.7041 32.6177C22.3679 32.3104 21.9439 32.0031 21.5054 32.1055C21.213 32.164 20.9645 32.4128 20.6722 32.4128C20.3213 32.4274 20.0143 32.1348 19.6635 32.1055C19.3127 32.0762 19.0203 32.3104 18.7426 32.5299C18.114 33.042 17.4708 33.5688 16.6814 34.1834Z" fill="#7A2422"/>
<path d="M17.0614 34.3589C17.3976 35.2807 18.2309 35.9539 19.1664 36.2758C20.0874 36.5831 21.096 36.5831 22.017 36.2611C22.9087 35.9392 23.6981 35.31 24.2097 34.5052C23.7858 34.5198 23.3326 34.4467 22.9525 34.2564C22.0901 34.0955 21.1837 34.315 20.292 34.2418C19.8973 34.2125 19.5027 34.1248 19.108 34.0809C19.0349 34.0662 18.9472 34.0662 18.8741 34.0662C18.684 34.1394 18.494 34.2126 18.2893 34.2711C17.88 34.4028 17.4415 34.4759 17.0614 34.3589Z" fill="#993331"/>
<path d="M18.8595 34.0663C18.9326 34.0663 19.0203 34.0809 19.0934 34.0809C19.4881 34.1248 19.8828 34.2126 20.2775 34.2418C21.1692 34.315 22.0755 34.0955 22.938 34.2565C22.9234 34.2565 22.9234 34.2418 22.9088 34.2418C22.5433 34.0663 22.1925 33.7736 21.7978 33.7882C21.5931 33.8029 21.3885 33.8907 21.1838 33.9199C20.7599 33.9931 20.3213 33.8321 19.8828 33.8321C19.5173 33.8468 19.1957 33.9492 18.8595 34.0663Z" fill="#292524"/>
<path d="M22.9818 20.5603C23.4788 20.3262 24.0635 20.253 24.6336 20.253C25.4523 20.2384 26.2855 20.2969 27.1187 20.092C27.6742 19.9457 28.259 19.9457 28.7998 20.0628C29.3261 20.1798 29.8085 20.3993 30.2324 20.7213C29.8816 19.975 29.1214 19.4921 28.3321 19.2726C27.5427 19.0531 26.7094 19.0531 25.8908 19.0531C25.3792 19.0531 24.8822 19.0531 24.3705 19.0677C24.0197 19.0677 23.625 19.0824 23.3472 19.3019C23.128 19.4775 23.011 19.7555 22.9818 20.0335C22.9526 20.2091 22.9672 20.3847 22.9818 20.5603Z" fill="#292524"/>
<path d="M24.7362 22.7697C24.707 23.077 24.9116 23.3989 25.1894 23.5306C25.4964 23.6623 25.8911 23.5891 26.1396 23.3697C26.3735 23.1648 26.4904 22.8429 26.4612 22.521C26.0665 22.4185 25.6572 22.3746 25.2771 22.4917C25.0724 22.5502 24.897 22.638 24.7362 22.7697Z" fill="#292524"/>
<path d="M25.1017 22.9453C25.1017 22.8868 25.1163 22.8429 25.1602 22.799C25.1894 22.7697 25.2479 22.7404 25.3063 22.7551C25.3794 22.7697 25.4379 22.8575 25.4233 22.9307C25.4087 23.0038 25.3356 23.0624 25.2625 23.077C25.2332 23.077 25.1894 23.077 25.1602 23.0477C25.1163 23.0477 25.1017 23.0038 25.1017 22.9453Z" fill="#EDF5FF"/>
<path d="M23.6691 24.1599C24.517 24.0574 25.3794 24.3647 26.2127 24.1891C26.8705 24.0574 27.4406 23.6184 27.7622 22.9161C27.4406 22.8283 27.1336 22.7258 26.8266 22.6234C26.8266 22.9453 26.7389 23.2673 26.5635 23.5306C26.3735 23.8087 26.0665 24.0135 25.7303 24.0721C25.3941 24.1306 25.0432 24.0282 24.7947 23.8087C24.5754 23.6038 24.4585 23.2965 24.4731 22.9892C24.4293 23.0331 24.3708 23.0917 24.3269 23.1356C24.0784 23.4282 23.8738 23.7648 23.6691 24.1599Z" fill="#EDF5FF"/>
<path d="M24.7946 23.7941C25.0431 24.0282 25.4086 24.116 25.7302 24.0575C26.0664 23.9989 26.3588 23.7941 26.5634 23.516C26.7535 23.2526 26.8412 22.9307 26.8266 22.6088C26.7388 22.5795 26.6365 22.5503 26.5488 22.521C26.5196 22.5064 26.505 22.5064 26.4757 22.5064C26.4903 22.8137 26.3734 23.1356 26.1541 23.3551C25.9056 23.5892 25.5109 23.6624 25.2039 23.516C24.9116 23.3843 24.7215 23.0771 24.7508 22.7551C24.6631 22.8137 24.5754 22.8868 24.5023 22.9746C24.4438 23.2819 24.5607 23.5892 24.7946 23.7941Z" fill="#431800"/>
<path d="M23.5229 24.1306C23.7129 23.4868 23.9907 23.0771 24.3269 22.7552C24.6777 22.404 25.1309 22.1406 25.6279 22.0674C26.1688 21.9796 26.7096 22.0967 27.2213 22.2723C27.4698 22.2869 27.7329 22.2869 27.9668 22.2138C27.8645 22.3015 27.7621 22.3747 27.6306 22.4186C27.7329 22.4479 27.8206 22.4918 27.9229 22.521C28.0399 22.5064 28.1715 22.4771 28.2884 22.4332C28.2299 22.4918 28.1715 22.5357 28.113 22.5942C28.1715 22.6088 28.2299 22.6381 28.303 22.6527C28.5077 22.6088 28.7123 22.5503 28.917 22.4771C28.8147 22.5796 28.6831 22.6674 28.5662 22.7405C28.6977 22.7844 28.8293 22.8137 28.9755 22.843C29.0339 22.8576 29.0924 22.8722 29.1509 22.8722C28.8585 23.121 28.4053 23.2234 27.996 23.1356C27.9668 23.1795 27.9376 23.2234 27.8937 23.2673C28.0837 23.4136 28.2738 23.5453 28.4784 23.6478C28.2592 23.677 28.0253 23.6478 27.8206 23.5453C27.7768 23.5307 27.7329 23.5014 27.7037 23.4868C27.6744 23.5161 27.6598 23.5307 27.6306 23.56C27.7329 23.6917 27.8499 23.7941 27.996 23.8819C27.8206 23.8819 27.6452 23.7941 27.499 23.677C27.4844 23.677 27.4844 23.6917 27.4698 23.6917C27.5429 23.8087 27.6306 23.9258 27.7329 24.0428C27.5867 23.999 27.4405 23.9258 27.309 23.8234C27.2944 23.838 27.2944 23.838 27.2797 23.838C27.3382 23.9697 27.4113 24.1014 27.499 24.2184C27.3382 24.1745 27.192 24.0867 27.0751 23.9697C27.0312 23.999 26.9874 24.0136 26.9581 24.0428C27.002 24.1599 27.0605 24.2916 27.1336 24.394C26.9874 24.3355 26.8412 24.2477 26.7243 24.1453C26.6804 24.1599 26.6365 24.1745 26.5927 24.1892C26.6073 24.3062 26.6512 24.4087 26.7096 24.5111C26.5781 24.4526 26.4611 24.3648 26.3734 24.2623C26.2126 24.3062 26.0518 24.3355 25.8764 24.3501C25.1309 24.4233 24.2245 24.1892 23.479 24.277C23.4936 24.2331 23.5082 24.1892 23.5229 24.1306ZM26.2126 24.1892C26.8704 24.0575 27.4405 23.6185 27.7621 22.9161C27.4405 22.8283 27.1336 22.7259 26.8266 22.6235C26.7389 22.5942 26.6365 22.5649 26.5488 22.5357C26.5196 22.521 26.505 22.521 26.4757 22.521C26.0811 22.4186 25.6717 22.3747 25.2917 22.4918C25.087 22.5503 24.9116 22.6527 24.7508 22.7698C24.6631 22.8283 24.5754 22.9015 24.5023 22.9893C24.4584 23.0332 24.4 23.0917 24.3561 23.1356C24.1076 23.4136 23.9176 23.7356 23.7275 24.1014C23.7129 24.116 23.7129 24.1453 23.6983 24.1599C24.5169 24.0575 25.3794 24.3648 26.2126 24.1892Z" fill="#292524"/>
<path d="M13.5384 23.2674C13.8015 23.5015 14.2254 23.5454 14.5324 23.3698C14.7955 23.2235 14.9563 22.9162 14.9709 22.6235C14.8394 22.5796 14.7078 22.5357 14.5763 22.5065C14.1523 22.4187 13.7138 22.4187 13.2752 22.5357C13.2314 22.8137 13.3337 23.0918 13.5384 23.2674Z" fill="#292524"/>
<path d="M13.787 22.755C13.787 22.6965 13.8016 22.6526 13.8455 22.6087C13.8893 22.5794 13.9332 22.5502 13.9916 22.5648C14.0647 22.5794 14.1232 22.6672 14.1086 22.7404C14.094 22.8136 14.0209 22.8721 13.9478 22.8867C13.9185 22.8867 13.8747 22.8867 13.8455 22.8575C13.8162 22.8428 13.787 22.7989 13.787 22.755Z" fill="#EDF5FF"/>
<path d="M12.0328 23.2087C12.7052 23.9696 13.7724 24.3501 14.781 24.1891C15.4096 24.0867 16.0236 23.7794 16.6814 23.8672C16.3013 23.4136 15.8335 23.0331 15.3073 22.7698C15.2488 23.0624 15.1026 23.3551 14.8834 23.5599C14.6202 23.8087 14.2694 23.9404 13.9186 23.9257C13.5677 23.9111 13.2169 23.7063 13.0415 23.4136C12.9099 23.1941 12.866 22.9161 12.9099 22.6673C12.6029 22.7844 12.3106 22.96 12.0328 23.2087Z" fill="#EDF5FF"/>
<path d="M13.0416 23.4137C13.2316 23.7063 13.5678 23.9112 13.9186 23.9258C14.2695 23.9405 14.6203 23.8088 14.8834 23.56C15.1027 23.3551 15.2489 23.0625 15.3074 22.7698C15.1904 22.7113 15.0735 22.6674 14.9565 22.6235C14.9565 22.9308 14.7811 23.2234 14.518 23.3698C14.211 23.5454 13.8017 23.5015 13.524 23.2673C13.3193 23.0918 13.217 22.8137 13.2462 22.5357C13.1293 22.565 13.0123 22.6089 12.8954 22.6528C12.8515 22.9162 12.8954 23.1942 13.0416 23.4137Z" fill="#431800"/>
<path d="M10.5565 22.7844C10.5126 22.7552 10.4687 22.7113 10.4103 22.682C10.8196 22.7845 11.2289 22.7406 11.6236 22.6235C11.5505 22.5503 11.4774 22.4772 11.4189 22.3894C11.5797 22.4625 11.7551 22.5211 11.9306 22.5357C11.9452 22.5357 11.9598 22.5211 11.9744 22.5211C12.0183 22.5064 12.0621 22.4918 12.0914 22.4772C12.0037 22.404 11.9452 22.3308 11.8867 22.243C11.989 22.2723 12.0767 22.3455 12.1645 22.404C12.1937 22.4186 12.2229 22.4333 12.2522 22.4333C12.3106 22.4186 12.3691 22.3894 12.4276 22.3747C12.3545 22.3016 12.296 22.2284 12.2522 22.1406C12.3691 22.2138 12.4861 22.2723 12.6176 22.3162C12.91 22.2138 13.2023 22.126 13.5093 22.0967C14.211 22.0089 14.9273 22.2138 15.5413 22.565C16.126 22.9161 16.623 23.4283 16.93 24.0429C16.9446 24.0575 16.9446 24.0721 16.9592 24.0868C16.6376 23.9551 16.2722 23.9843 15.9213 24.0721C15.5851 24.1453 15.2489 24.277 14.9127 24.3502C14.401 24.4526 13.8748 24.438 13.3631 24.2916C13.2754 24.4087 13.217 24.5404 13.1877 24.6721C13.1146 24.5257 13.0854 24.3648 13.1146 24.2038C12.9685 24.1453 12.8223 24.0868 12.6761 23.999C12.5884 24.1014 12.5299 24.2331 12.4861 24.3502C12.4568 24.1892 12.4568 24.0282 12.4861 23.8819C12.4568 23.8673 12.4276 23.838 12.3983 23.8234C12.3253 23.8965 12.2814 24.0136 12.2375 24.116C12.2083 23.9843 12.2083 23.838 12.2522 23.7063C12.2229 23.6917 12.1937 23.6624 12.1645 23.6478C12.0914 23.7063 12.0329 23.7795 12.0183 23.8673C11.989 23.7502 12.0037 23.6332 12.0329 23.5307C12.0183 23.5161 11.989 23.4868 11.9744 23.4722C11.8867 23.5307 11.799 23.56 11.6967 23.5454C11.7551 23.4868 11.8136 23.4137 11.8575 23.3405L11.8429 23.3259C11.3605 23.2381 10.9219 23.0625 10.5565 22.7844ZM14.7811 24.1892C15.3951 24.0868 15.9798 23.8087 16.6084 23.8673C16.6376 23.8673 16.6522 23.8673 16.6815 23.8819C16.3014 23.4283 15.8336 23.0478 15.3074 22.7844C15.1904 22.7259 15.0735 22.682 14.9565 22.6381C14.825 22.5942 14.6934 22.5503 14.5618 22.5211C14.1379 22.4333 13.6994 22.4333 13.2608 22.5503C13.1439 22.5796 13.0269 22.6235 12.91 22.6674C12.603 22.7844 12.3106 22.9747 12.0329 23.2234C12.7053 23.9697 13.7725 24.3502 14.7811 24.1892Z" fill="#292524"/>
<path d="M21.8709 26.8084C21.637 25.4329 21.4177 24.0282 21.6224 22.6527C21.7247 22.0381 21.9147 21.4089 22.3533 20.9846C22.4556 20.8821 22.5872 20.7797 22.7041 20.7065" stroke="#D8A492" stroke-width="0.5" stroke-miterlimit="10" stroke-linecap="round" stroke-linejoin="round"/>
</svg>
