<svg width="218" height="150" viewBox="0 0 218 150" fill="none" xmlns="http://www.w3.org/2000/svg">
<path opacity="0.4" d="M175.418 106.062L114.027 70.6203V13.3153L175.418 49.326L175.418 106.062Z" fill="url(#paint0_linear_285_76998)" fill-opacity="0.7"/>
<path opacity="0.4" d="M216.528 129.602L196.744 118.92V61.4762L216.528 72.8658L216.528 129.602Z" fill="url(#paint1_linear_285_76998)" fill-opacity="0.7"/>
<path opacity="0.4" d="M172.058 104.273L151.672 92.6091L152.274 35.0509L172.058 46.4405V104.273Z" fill="url(#paint2_linear_285_76998)" fill-opacity="0.7"/>
<line x1="113.588" y1="70.8979" x2="216.778" y2="130.531" stroke="black"/>
<line x1="133.779" y1="82.2991" x2="133.779" y2="24.5743" stroke="black" stroke-width="0.5"/>
<line x1="155.026" y1="94.5799" x2="155.026" y2="36.8551" stroke="black" stroke-width="0.5"/>
<line x1="175.634" y1="106.861" x2="175.634" y2="49.1359" stroke="black"/>
<line x1="172.368" y1="104.888" x2="172.368" y2="47.1635" stroke="black"/>
<line x1="151.841" y1="93.2249" x2="151.841" y2="35.5001" stroke="black"/>
<line x1="113.331" y1="40.2709" x2="175.315" y2="75.8091" stroke="black" stroke-width="0.5"/>
<line x1="196.408" y1="88.2694" x2="216.895" y2="100.106" stroke="black" stroke-width="0.5"/>
<line x1="152.399" y1="62.9788" x2="172.886" y2="74.8156" stroke="black" stroke-width="0.5"/>
<line x1="111.011" y1="12.9809" x2="114.156" y2="12.9486" stroke="black"/>
<path d="M131.28 24.7556L112.166 13.3153C112.147 31.499 112.127 68.3497 112.196 70.2824C112.283 72.6982 114.313 70.9929 114.659 71.9403C115.004 72.8877 117.164 73.1245 117.38 73.5982C117.596 74.0719 118.115 75.0667 118.935 75.5404C119.756 76.014 121.787 75.2088 121.959 76.4877C122.132 77.7667 123.644 78.193 123.99 78.2404C124.335 78.2878 125.632 77.9562 125.848 79.1404C126.064 80.3247 127.446 80.4194 128.051 80.5615C128.656 80.7036 128.732 80.3851 129.289 80.9964C129.735 81.4854 130.803 81.6659 131.28 81.695V24.7556Z" fill="#242424"/>
<path d="M119.286 67.1739C119.15 68.5337 118.844 71.2531 118.062 68.7716C117.144 65.7802 118.334 61.0892 118.334 57.9958C118.334 48.8177 118.198 39.7415 118.708 30.5634L118.742 30.5974L118.912 59.4235C119.32 61.939 119.524 64.5905 119.286 67.1739Z" fill="#1B1B1B"/>
<path d="M124.788 57.1493C124.866 61.2177 124.983 65.2862 125.062 69.3547C125.101 70.5283 125.766 73.697 124.553 74.6359L124.24 74.5576L122.754 72.8364C122.793 72.4843 122.832 72.1713 122.949 71.8975L125.766 26.5183H125.805C125.766 30.2347 125.257 36.6504 125.335 40.9145C125.335 46.1957 124.631 51.8289 124.788 57.1493Z" fill="#1B1B1B"/>
<line x1="196.687" y1="118.746" x2="196.687" y2="61.4712" stroke="black"/>
<path d="M215.59 73.554L215.962 130.333L213.776 128.878L211.962 128.362L211.59 128.221L209.822 126.157L207.311 125.547L205.218 123.341H204.381L203.962 121.652L204.707 90.6346L204.288 65.9052L204.986 65.7175L206.381 66.5622H206.427L213.404 70.5977V70.6446L216.101 72.1931L215.729 72.4747L215.59 73.554Z" fill="#242424"/>
<path d="M208.4 119.436C208.266 120.781 207.963 123.472 207.19 121.017C206.281 118.057 207.459 113.415 207.459 110.354C207.459 101.272 207.324 92.2912 207.829 83.2094L207.862 83.243L208.03 111.767C208.434 114.256 208.636 116.88 208.4 119.436Z" fill="#1B1B1B"/>
<path d="M212.101 112.473C212.168 115.971 212.269 119.47 212.336 122.968C212.37 123.977 212.941 126.701 211.899 127.509L211.63 127.441L210.351 125.961C210.385 125.659 210.419 125.39 210.52 125.154L212.941 86.1358H212.975C212.941 89.3312 212.504 94.8476 212.571 98.514C212.571 103.055 211.966 107.899 212.101 112.473Z" fill="#1B1B1B"/>
<line x1="216.775" y1="130.964" x2="216.775" y2="72.7813" stroke="black"/>
<line x1="216.028" y1="129.748" x2="216.028" y2="72.5469" stroke="black"/>
<line x1="113.919" y1="12.9155" x2="217.023" y2="73.2939" stroke="black"/>
<line x1="112.4" y1="13.1646" x2="215.725" y2="73.5429" stroke="black"/>
<line x1="113.919" y1="13.6519" x2="216.354" y2="73.5429" stroke="black"/>
<line x1="215.332" y1="73.7443" x2="217.027" y2="73.2455" stroke="black"/>
<path opacity="0.4" d="M0.78096 116.283L104.411 68.7938L111.395 11.916L7.63786 60.4379L0.78096 116.283Z" fill="url(#paint3_linear_285_76998)" fill-opacity="0.7"/>
<line y1="-0.5" x2="114.479" y2="-0.5" transform="matrix(-0.910732 0.412998 0.369595 0.929193 104.972 69.5785)" stroke="black"/>
<line y1="-0.25" x2="57.7248" y2="-0.25" transform="matrix(0.121869 -0.992546 -0.992546 -0.121869 84.1872 78.0772)" stroke="black" stroke-width="0.5"/>
<line y1="-0.25" x2="57.7248" y2="-0.25" transform="matrix(0.121869 -0.992546 -0.992546 -0.121869 62.7189 87.8142)" stroke="black" stroke-width="0.5"/>
<line y1="-0.25" x2="57.7248" y2="-0.25" transform="matrix(0.121869 -0.992546 -0.992546 -0.121869 41.6173 97.5963)" stroke="black" stroke-width="0.5"/>
<line y1="-0.25" x2="68.6186" y2="-0.25" transform="matrix(-0.912177 0.409797 0.366503 0.930417 108.854 38.9805)" stroke="black" stroke-width="0.5"/>
<line y1="-0.25" x2="47.7987" y2="-0.25" transform="matrix(-0.904332 0.426829 -0.382987 -0.923754 47.4444 66.0153)" stroke="black" stroke-width="0.5"/>
<line y1="-0.5" x2="2.42931" y2="-0.5" transform="matrix(-0.946393 -0.323017 -0.303114 0.952954 113.281 12.6819)" stroke="black"/>
<path d="M93.7831 21.2797L113.144 12.1307C110.946 30.1811 106.473 66.7594 106.173 68.6697C105.797 71.0576 104.097 69.1306 103.656 70.0311C103.216 70.9315 101.157 70.9173 100.896 71.3625C100.635 71.8078 100.027 72.7353 99.1976 73.1107C98.3683 73.4862 96.558 72.4525 96.2397 73.702C95.9214 74.9515 94.4482 75.2002 94.1176 75.2073C93.787 75.2144 92.6092 74.7358 92.2619 75.8862C91.9145 77.0367 90.6036 76.9712 90.0178 77.0424C89.432 77.1137 89.3991 76.7887 88.8006 77.3311C88.3218 77.7651 87.2966 77.821 86.8439 77.7948L93.7831 21.2797Z" fill="#1C1C1C"/>
<path d="M99.8881 64.7663C99.8502 66.1315 99.8062 68.866 100.843 66.4932C102.07 63.63 101.524 58.8366 101.901 55.7663C103.02 46.6566 104.253 37.6638 104.893 28.4952L104.857 28.5251L101.184 57.1167C100.494 59.5664 99.9794 62.1746 99.8881 64.7663Z" fill="#131313"/>
<path d="M95.9379 54.1813C95.3685 58.2104 94.7624 62.235 94.193 66.2641C94.0133 67.4245 93.002 70.4928 94.0274 71.5647L94.3311 71.5231L95.9382 69.9862C95.9443 69.6323 95.9457 69.3171 95.8688 69.0318L98.7516 23.6658L98.7149 23.6612C98.2987 27.3545 97.9948 33.781 97.4016 38.0043C96.758 43.2461 96.7334 48.9187 95.9379 54.1813Z" fill="#131313"/>
<line y1="-0.25" x2="57.2751" y2="-0.25" transform="matrix(0.121869 -0.992546 -0.992546 -0.121869 20.3804 106.964)" stroke="black" stroke-width="0.5"/>
<line y1="-0.5" x2="58.1829" y2="-0.5" transform="matrix(0.121869 -0.992546 -0.992546 -0.121869 0.00938416 116.772)" stroke="black"/>
<path d="M8.04261 60.4688L27.4036 51.3199C25.2051 69.3702 20.7329 105.949 20.4324 107.859C20.0568 110.247 18.3561 108.32 17.9158 109.22C17.4755 110.121 15.4164 110.106 15.1556 110.552C14.8949 110.997 14.2864 111.924 13.4571 112.3C12.6279 112.675 10.8175 111.642 10.4992 112.891C10.1809 114.141 8.70779 114.389 8.37717 114.396C8.04655 114.404 6.86878 113.925 6.52143 115.075C6.17407 116.226 4.86314 116.16 4.27734 116.232C3.69154 116.303 3.65866 115.978 3.06013 116.52C2.5813 116.954 1.55615 117.01 1.10343 116.984L8.04261 60.4688Z" fill="#1C1C1C"/>
<path d="M14.1478 103.955C14.1098 105.321 14.0658 108.055 15.1029 105.682C16.3298 102.819 15.7836 98.0258 16.1606 94.9555C17.2791 85.8457 18.513 76.8529 19.1524 67.6844L19.1164 67.7142L15.4436 96.3059C14.7538 98.7555 14.239 101.364 14.1478 103.955Z" fill="#131313"/>
<path d="M10.1975 93.3704C9.62817 97.3995 9.02203 101.424 8.45267 105.453C8.27287 106.614 7.2616 109.682 8.28707 110.754L8.59077 110.712L10.1978 109.175C10.204 108.821 10.2053 108.506 10.1284 108.221L13.0112 62.8549L12.9745 62.8504C12.5583 66.5436 12.2545 72.9701 11.6613 77.1934C11.0177 82.4352 10.993 88.1078 10.1975 93.3704Z" fill="#131313"/>
<line y1="-0.5" x2="57.2011" y2="-0.5" transform="matrix(0.121869 -0.992546 -0.992546 -0.121869 0.860138 115.651)" stroke="black"/>
<line y1="-0.5" x2="114.8" y2="-0.5" transform="matrix(-0.908275 0.418374 0.374794 0.927108 111.729 11.9889)" stroke="black"/>
<line y1="-0.5" x2="114.978" y2="-0.5" transform="matrix(-0.908605 0.417657 0.373799 0.92751 113.127 12.4117)" stroke="black"/>
<line y1="-0.5" x2="114.004" y2="-0.5" transform="matrix(-0.908573 0.417726 0.374167 0.927361 111.639 12.72)" stroke="black"/>
<line y1="-0.5" x2="1.68068" y2="-0.5" transform="matrix(-0.911713 -0.410828 -0.383764 0.923431 8.61823 60.6627)" stroke="black"/>
<path d="M97.8275 79.3511L90.6003 83.5301L89.8628 83.0876L97.09 78.9086L97.8275 79.3511Z" fill="#E0E0E0"/>
<path d="M90.6002 83.5301V85.3983L89.8627 84.9558V83.0876L90.6002 83.5301Z" fill="#A9A9A9"/>
<path d="M97.8274 79.3511V81.2193L90.6002 85.3983V83.5301L97.8274 79.3511Z" fill="#CBCBCB"/>
<path d="M79.6366 106.932C79.6366 106.834 79.7349 106.736 79.9316 106.736L88.8304 105.605C89.0271 105.605 89.1254 105.507 89.1254 105.359C89.1254 105.31 89.1254 105.31 89.0762 105.261L85.4872 100.443C85.438 100.394 85.438 100.394 85.438 100.344C85.438 100.148 85.9297 100 86.1755 100.246L90.8461 104.769C90.9936 104.868 91.2395 104.917 91.4361 104.818L98.27 101.328C98.565 101.18 98.9092 101.328 98.9092 101.475C98.9092 101.524 98.86 101.574 98.8108 101.623L92.8127 105.556C92.7636 105.605 92.7144 105.654 92.7144 105.703C92.7144 105.802 92.7636 105.851 92.9111 105.9L100.728 108.604C100.876 108.653 100.925 108.702 100.925 108.801C100.925 108.948 100.679 109.096 100.384 108.997L92.0261 106.932C91.7803 106.883 91.5345 106.932 91.4853 107.08L89.4695 112.193C89.3712 112.439 88.6829 112.39 88.6829 112.144C88.6829 112.144 88.6829 112.144 88.6829 112.095L89.5187 106.834C89.5187 106.687 89.322 106.588 89.0762 106.588L79.9807 107.08C79.7841 107.178 79.6366 107.031 79.6366 106.932Z" fill="#F3F3F3"/>
<path d="M81.3574 105.113C81.0624 104.966 80.6199 105.212 80.3249 105.703C80.0299 106.195 80.0299 106.736 80.3249 106.883L79.6366 106.49C79.3416 106.342 79.3416 105.802 79.6366 105.31C79.9316 104.818 80.3741 104.572 80.6691 104.72L81.3574 105.113Z" fill="#2B2B2B"/>
<path d="M81.3573 105.113C81.6523 105.261 81.6523 105.802 81.3573 106.293C81.0623 106.785 80.6199 107.031 80.3249 106.883C80.0299 106.736 80.0299 106.195 80.3249 105.703C80.6199 105.212 81.1115 104.966 81.3573 105.113Z" fill="#4B4B4B"/>
<path d="M80.9641 104.966L79.9808 105.605L79.8824 105.556L80.8657 104.867L80.9641 104.966Z" fill="#C6C2C1"/>
<path d="M79.9808 105.605C79.9808 105.605 80.4724 106.097 80.7674 106.293L80.6691 106.195C80.3741 106.047 79.8824 105.507 79.8824 105.507L79.9808 105.605Z" fill="#7E7B7A"/>
<path d="M80.9641 104.966C80.9641 104.966 81.5049 106.047 80.9641 106.342C80.9149 106.342 80.8657 106.342 80.7674 106.293C80.4724 106.146 79.9808 105.605 79.9808 105.605L80.9641 104.966Z" fill="#CBCBCB"/>
<path d="M79.44 104.72C79.44 104.966 79.7841 105.162 80.2266 105.162C80.6691 105.162 81.0132 104.966 81.0132 104.72V105.162C81.0132 105.408 80.6691 105.605 80.2266 105.605C79.7841 105.605 79.44 105.408 79.44 105.162V104.72Z" fill="#EDEDED"/>
<path d="M79.44 104.72C79.44 104.474 79.7842 104.277 80.2266 104.277C80.6691 104.277 81.0133 104.474 81.0133 104.72C81.0133 104.966 80.6691 105.162 80.2266 105.162C79.7842 105.162 79.44 104.966 79.44 104.72Z" fill="#EFEFEF"/>
<path d="M79.7349 104.72C79.7349 104.572 79.9316 104.425 80.2266 104.425C80.4724 104.425 80.7182 104.572 80.7182 104.72C80.7182 104.867 80.5216 105.015 80.2266 105.015C79.9316 105.015 79.7349 104.917 79.7349 104.72Z" fill="#EDEDED"/>
<path d="M90.1087 110.325C89.8137 110.177 89.3712 110.423 89.0762 110.915C88.7812 111.406 88.7812 111.947 89.0762 112.095L88.3879 111.701C88.0929 111.554 88.0929 111.013 88.3879 110.521C88.6829 110.03 89.1254 109.784 89.4204 109.932L90.1087 110.325Z" fill="#2B2B2B"/>
<path d="M90.1088 110.325C90.4037 110.472 90.4037 111.013 90.1088 111.505C89.8138 111.996 89.3713 112.242 89.0763 112.095C88.7813 111.947 88.7813 111.406 89.0763 110.915C89.3221 110.423 89.8138 110.177 90.1088 110.325Z" fill="#4B4B4B"/>
<path d="M89.7153 110.177L88.732 110.816L88.5845 110.767L89.5678 110.079L89.7153 110.177Z" fill="#C6C2C1"/>
<path d="M88.732 110.816C88.732 110.816 89.2236 111.308 89.5186 111.505L89.3711 111.456C89.0761 111.308 88.5845 110.767 88.5845 110.767L88.732 110.816Z" fill="#7E7B7A"/>
<path d="M89.7152 110.177C89.7152 110.177 90.256 111.259 89.7152 111.554C89.666 111.554 89.6169 111.554 89.5186 111.505C89.2236 111.357 88.7319 110.816 88.7319 110.816L89.7152 110.177Z" fill="#CBCBCB"/>
<path d="M88.1912 109.981C88.1912 110.226 88.5354 110.423 88.9287 110.423C89.322 110.423 89.6661 110.226 89.6661 109.981V110.374C89.6661 110.62 89.322 110.816 88.9287 110.816C88.5354 110.816 88.1912 110.62 88.1912 110.374V109.981Z" fill="#EDEDED"/>
<path d="M88.1913 109.981C88.1913 109.735 88.5355 109.538 88.9288 109.538C89.3221 109.538 89.6663 109.735 89.6663 109.981C89.6663 110.226 89.3221 110.423 88.9288 110.423C88.5355 110.374 88.1913 110.177 88.1913 109.981Z" fill="#EFEFEF"/>
<path d="M88.4371 109.981C88.4371 109.833 88.6337 109.735 88.8795 109.735C89.1254 109.735 89.322 109.833 89.322 109.981C89.322 110.128 89.1254 110.226 88.8795 110.226C88.6829 110.226 88.4371 110.128 88.4371 109.981Z" fill="#EDEDED"/>
<path d="M87.208 98.5251C86.9131 98.3776 86.4706 98.6234 86.1756 99.1151C85.8806 99.6067 85.8806 100.148 86.1756 100.295L85.4873 99.9017C85.1923 99.7542 85.1923 99.2134 85.4873 98.7218C85.7823 98.2301 86.2247 97.9843 86.5197 98.1318L87.208 98.5251Z" fill="#2B2B2B"/>
<path d="M87.2082 98.5251C87.5031 98.6726 87.5031 99.2134 87.2082 99.7051C86.9132 100.197 86.4707 100.443 86.1757 100.295C85.8807 100.148 85.8807 99.6067 86.1757 99.1151C86.4707 98.6234 86.9132 98.3776 87.2082 98.5251Z" fill="#4B4B4B"/>
<path d="M86.8147 98.3776L85.8314 99.0168L85.6839 98.9676L86.6672 98.2793L86.8147 98.3776Z" fill="#C6C2C1"/>
<path d="M85.8314 99.0168C85.8314 99.0168 86.3231 99.5085 86.618 99.7051L86.4705 99.656C86.1756 99.5085 85.6839 98.9677 85.6839 98.9677L85.8314 99.0168Z" fill="#7E7B7A"/>
<path d="M86.8147 98.3777C86.8147 98.3777 87.3555 99.4593 86.8147 99.7543C86.7655 99.7543 86.7164 99.7543 86.6181 99.7052C86.3231 99.5577 85.8314 99.0169 85.8314 99.0169L86.8147 98.3777Z" fill="#CBCBCB"/>
<path d="M85.2907 98.181C85.2907 98.4268 85.6348 98.6234 86.0282 98.6234C86.4215 98.6234 86.7656 98.4268 86.7656 98.181V98.5743C86.7656 98.8201 86.4215 99.0168 86.0282 99.0168C85.6348 99.0168 85.2907 98.8201 85.2907 98.5743V98.181Z" fill="#EDEDED"/>
<path d="M85.2907 98.181C85.2907 97.9352 85.6348 97.7385 86.0281 97.7385C86.4215 97.7385 86.7656 97.9352 86.7656 98.181C86.7656 98.4269 86.4215 98.6235 86.0281 98.6235C85.6348 98.6235 85.2907 98.4269 85.2907 98.181Z" fill="#EFEFEF"/>
<path d="M85.5856 98.181C85.5856 98.0335 85.7823 97.9352 86.0281 97.9352C86.2739 97.9352 86.4706 98.0335 86.4706 98.181C86.4706 98.3285 86.2739 98.4268 86.0281 98.4268C85.7823 98.4268 85.5856 98.3285 85.5856 98.181Z" fill="#EDEDED"/>
<path d="M86.8149 99.5086C86.8149 99.5579 86.7656 99.5579 86.7656 99.5579V99.5086C86.7656 99.4593 86.8149 99.4593 86.8149 99.4593C86.8642 99.4593 86.8642 99.5086 86.8149 99.5086Z" fill="#EDEDED"/>
<path d="M99.2041 100C98.9091 99.8527 98.4667 100.099 98.1717 100.59C97.8767 101.082 97.8767 101.623 98.1717 101.77L97.4834 101.377C97.1884 101.229 97.1884 100.689 97.4834 100.197C97.7784 99.7052 98.2208 99.4594 98.5158 99.6069L99.2041 100Z" fill="#2B2B2B"/>
<path d="M99.204 100C99.499 100.148 99.499 100.689 99.204 101.18C98.9091 101.672 98.4666 101.918 98.1716 101.77C97.8766 101.623 97.8766 101.082 98.1716 100.59C98.4666 100.099 98.9091 99.8528 99.204 100Z" fill="#4B4B4B"/>
<path d="M98.8108 99.8527L97.8275 100.492L97.68 100.443L98.6633 99.7544L98.8108 99.8527Z" fill="#C6C2C1"/>
<path d="M97.8275 100.492C97.8275 100.492 98.3192 100.983 98.6141 101.18L98.4667 101.131C98.1717 100.983 97.68 100.443 97.68 100.443L97.8275 100.492Z" fill="#7E7B7A"/>
<path d="M98.8108 99.8527C98.8108 99.8527 99.3516 100.934 98.8108 101.229C98.7616 101.229 98.7124 101.229 98.6141 101.18C98.3191 101.033 97.8275 100.492 97.8275 100.492L98.8108 99.8527Z" fill="#CBCBCB"/>
<path d="M97.2867 99.6562C97.2867 99.902 97.6309 100.099 98.0242 100.099C98.4175 100.099 98.7617 99.902 98.7617 99.6562V100.05C98.7617 100.295 98.4175 100.492 98.0242 100.492C97.6309 100.492 97.2867 100.295 97.2867 100.05V99.6562Z" fill="#EDEDED"/>
<path d="M97.2867 99.6561C97.2867 99.4103 97.6308 99.2137 98.0241 99.2137C98.4175 99.2137 98.7616 99.4103 98.7616 99.6561C98.7616 99.902 98.4175 100.099 98.0241 100.099C97.6308 100.099 97.2867 99.8528 97.2867 99.6561Z" fill="#EFEFEF"/>
<path d="M98.0242 99.902C98.2686 99.902 98.4667 99.7919 98.4667 99.6562C98.4667 99.5204 98.2686 99.4104 98.0242 99.4104C97.7798 99.4104 97.5817 99.5204 97.5817 99.6562C97.5817 99.7919 97.7798 99.902 98.0242 99.902Z" fill="#EDEDED"/>
<path d="M98.811 100.984C98.811 101.033 98.7617 101.033 98.7617 101.033V100.984C98.7617 100.934 98.811 100.934 98.811 100.934C98.8603 100.934 98.8603 100.984 98.811 100.984Z" fill="#EDEDED"/>
<path d="M101.318 107.129C101.023 106.981 100.581 107.227 100.286 107.719C99.9908 108.211 99.9908 108.751 100.286 108.899L99.5975 108.506C99.3025 108.358 99.3025 107.817 99.5975 107.326C99.8925 106.834 100.335 106.588 100.63 106.736L101.318 107.129Z" fill="#2B2B2B"/>
<path d="M101.318 107.129C101.613 107.276 101.613 107.817 101.318 108.309C101.023 108.801 100.581 109.046 100.286 108.899C99.9909 108.751 99.9909 108.211 100.286 107.719C100.581 107.276 101.073 106.981 101.318 107.129Z" fill="#4B4B4B"/>
<path d="M100.974 106.982L99.9909 107.67L99.8435 107.572L100.827 106.932L100.974 106.982Z" fill="#C6C2C1"/>
<path d="M99.991 107.67C99.991 107.67 100.483 108.162 100.778 108.358L100.63 108.309C100.335 108.162 99.8435 107.621 99.8435 107.621L99.991 107.67Z" fill="#7E7B7A"/>
<path d="M100.974 106.982C100.974 106.982 101.515 108.063 100.974 108.358C100.925 108.358 100.876 108.358 100.778 108.309C100.483 108.161 99.991 107.621 99.991 107.621L100.974 106.982Z" fill="#CBCBCB"/>
<path d="M99.4501 106.785C99.4501 107.031 99.7942 107.227 100.188 107.227C100.581 107.227 100.925 107.031 100.925 106.785V107.178C100.925 107.424 100.581 107.621 100.188 107.621C99.7942 107.621 99.4501 107.424 99.4501 107.178V106.785Z" fill="#EDEDED"/>
<path d="M99.4503 106.785C99.4503 106.539 99.7944 106.342 100.188 106.342C100.581 106.342 100.925 106.539 100.925 106.785C100.925 107.031 100.581 107.227 100.188 107.227C99.7453 107.227 99.4503 107.031 99.4503 106.785Z" fill="#EFEFEF"/>
<path d="M99.6959 106.785C99.6959 106.637 99.8925 106.539 100.138 106.539C100.384 106.539 100.581 106.637 100.581 106.785C100.581 106.932 100.384 107.031 100.138 107.031C99.9417 107.031 99.6959 106.932 99.6959 106.785Z" fill="#EDEDED"/>
<path d="M100.974 108.162C100.974 108.211 100.925 108.211 100.925 108.211V108.162C100.925 108.112 100.974 108.112 100.974 108.112C100.974 108.112 100.974 108.112 100.974 108.162Z" fill="#EDEDED"/>
<path d="M92.5178 102.311C92.5178 102.262 92.5669 102.213 92.6161 102.163L98.6142 98.2303C98.6634 98.1811 98.7125 98.1319 98.7125 98.0828V99.5085C98.7125 99.5577 98.6634 99.6069 98.6142 99.656L92.6161 103.589C92.5669 103.638 92.5178 103.688 92.5178 103.737V102.311Z" fill="#E0E0E0"/>
<path d="M85.2414 96.9028C85.2414 96.952 85.2414 96.952 85.2906 97.0011L88.8796 101.819C88.8796 101.868 88.9288 101.868 88.9288 101.918V103.343C88.9288 103.294 88.9288 103.294 88.8796 103.245L85.2906 98.4269C85.2414 98.3777 85.2414 98.3777 85.2414 98.3286V96.9028Z" fill="#EFEFEF"/>
<path d="M79.44 103.491C79.44 103.589 79.5875 103.737 79.8824 103.737L88.9779 103.245C89.2237 103.245 89.4204 103.343 89.4204 103.491V104.917C89.4204 104.769 89.2237 104.671 88.9779 104.671L79.8824 105.162C79.5875 105.162 79.44 105.064 79.44 104.917V103.491Z" fill="#EFEFEF"/>
<path d="M88.5355 108.752C88.5355 109.047 89.2238 109.096 89.3221 108.801L91.3379 103.688C91.387 103.54 91.6328 103.491 91.8787 103.54L100.237 105.605C100.532 105.703 100.777 105.556 100.777 105.408V106.834C100.777 106.982 100.532 107.129 100.237 107.031L91.8787 104.966C91.6328 104.917 91.387 104.966 91.3379 105.113L89.2729 110.226C89.1746 110.472 88.4863 110.423 88.4863 110.177V108.752H88.5355Z" fill="#E0E0E0"/>
<path d="M79.4399 103.491C79.4399 103.393 79.5383 103.294 79.7349 103.294L88.6337 102.163C88.8304 102.163 88.9287 102.065 88.9287 101.918C88.9287 101.868 88.9287 101.868 88.8796 101.819L85.2905 97.0011C85.2414 96.952 85.2414 96.952 85.2414 96.9028C85.2414 96.7061 85.733 96.5587 85.9788 96.8045L90.6495 101.328C90.797 101.426 91.0428 101.475 91.2395 101.377L98.0734 97.8861C98.3683 97.7386 98.7125 97.8861 98.7125 98.0336C98.7125 98.0828 98.6633 98.1319 98.6142 98.1811L92.6161 102.114C92.5669 102.163 92.5177 102.213 92.5177 102.262C92.5177 102.36 92.5669 102.409 92.7144 102.458L100.532 105.162C100.679 105.212 100.728 105.261 100.728 105.359C100.728 105.507 100.482 105.654 100.187 105.556L91.8294 103.491C91.5836 103.442 91.3378 103.491 91.2886 103.638L89.2729 108.801C89.1746 109.046 88.4862 108.997 88.4862 108.751C88.4862 108.751 88.4862 108.751 88.4862 108.702L89.322 103.442C89.322 103.294 89.1254 103.196 88.8796 103.196L79.7841 103.688C79.5874 103.737 79.4399 103.638 79.4399 103.491Z" fill="white"/>
<path d="M89.4204 100.934C89.4204 101.278 89.8628 101.524 90.4037 101.524C90.9445 101.524 91.387 101.278 91.387 100.934V102.655C91.387 102.999 90.9445 103.245 90.4037 103.245C89.8628 103.245 89.4204 102.999 89.4204 102.655V100.934Z" fill="#EDEDED"/>
<path d="M89.4203 100.934C89.4203 100.59 89.8628 100.344 90.4036 100.344C90.9445 100.344 91.3869 100.59 91.3869 100.934C91.3869 101.278 90.9445 101.524 90.4036 101.524C89.912 101.524 89.4203 101.229 89.4203 100.934Z" fill="#EDEDED"/>
<path d="M89.9611 80.4818C89.9611 80.6293 90.1578 80.7768 90.4528 80.7768C90.6986 80.7768 90.9444 80.6293 90.9444 80.4818V100.787C90.9444 100.934 90.7478 101.082 90.4528 101.082C90.207 101.082 89.9611 100.934 89.9611 100.787V80.4818Z" fill="#D9D9D9"/>
<path d="M89.9611 80.4818C89.9611 80.3343 90.1578 80.1868 90.4528 80.1868C90.6986 80.1868 90.9444 80.3343 90.9444 80.4818C90.9444 80.6293 90.7478 80.7768 90.4528 80.7768C90.1578 80.7768 89.9611 80.6293 89.9611 80.4818Z" fill="white"/>
<path d="M86.618 86.3324C86.618 86.6274 87.0113 86.8241 87.503 86.8241C87.9946 86.8241 88.388 86.5783 88.388 86.3324V86.8732C88.388 87.1682 87.9946 87.3649 87.503 87.3649C87.0113 87.3649 86.618 87.1191 86.618 86.8732V86.3324Z" fill="#E0E0E0"/>
<path d="M86.618 86.3325C86.618 86.0375 87.0113 85.8408 87.503 85.8408C87.9946 85.8408 88.388 86.0866 88.388 86.3325C88.388 86.6274 87.9946 86.8241 87.503 86.8241C87.0113 86.8733 86.618 86.6274 86.618 86.3325Z" fill="#EFEFEF"/>
<path d="M87.3064 83.8741C87.3064 83.9233 87.4047 83.9725 87.503 83.9725C87.6013 83.9725 87.6997 83.9233 87.6997 83.8741V86.3324C87.6997 86.3815 87.6013 86.4307 87.503 86.4307C87.4047 86.4307 87.3064 86.3815 87.3064 86.3324V83.8741Z" fill="#EDEDED"/>
<path d="M87.3063 83.8742C87.3063 83.825 87.4046 83.7759 87.503 83.7759C87.6013 83.7759 87.6996 83.825 87.6996 83.8742C87.6996 83.9233 87.6013 83.9725 87.503 83.9725C87.4046 83.9725 87.3063 83.9233 87.3063 83.8742Z" fill="#E1E1E1"/>
<path d="M86.1754 80.3343C86.1754 80.7768 86.8146 81.1701 87.6012 81.1701C88.3878 81.1701 89.027 80.826 89.027 80.3343V84.5625C89.027 85.005 88.3878 85.3983 87.6012 85.3983C86.8146 85.3983 86.1754 85.0541 86.1754 84.5625V80.3343Z" fill="#CBCBCB"/>
<path d="M86.1755 80.3344C86.1755 79.8919 86.8146 79.4986 87.6013 79.4986C88.3879 79.4986 89.027 79.8427 89.027 80.3344C89.027 80.826 88.3879 81.1702 87.6013 81.1702C86.8146 81.1702 86.1755 80.7768 86.1755 80.3344Z" fill="#F3F3F3"/>
<path d="M83.8156 75.5161C83.8156 76.6961 85.4872 77.6794 87.5521 77.6794C89.617 77.6794 91.2886 76.6961 91.2886 75.5161V80.1376C91.2886 81.3176 89.617 82.3008 87.5521 82.3008C85.4872 82.3008 83.8156 81.3176 83.8156 80.1376V75.5161Z" fill="#E0E0E0"/>
<path d="M83.8156 75.5162C83.8156 74.3363 85.4872 73.353 87.5521 73.353C89.617 73.353 91.2886 74.3363 91.2886 75.5162C91.2886 76.6962 89.617 77.6795 87.5521 77.6795C85.4872 77.6795 83.8156 76.6962 83.8156 75.5162Z" fill="white"/>
<path d="M83.5698 79.6952C83.5698 79.4002 83.6681 79.1544 83.8648 78.8594V78.4661C83.5206 78.8102 83.3732 79.2036 83.3732 79.646C83.3732 80.9735 85.1922 82.1043 87.4538 82.1043C87.503 82.1043 87.5522 82.0551 87.5522 82.006C87.5522 81.9568 87.503 81.9076 87.4538 81.9076C85.2906 81.8585 83.5698 80.8752 83.5698 79.6952Z" fill="#616161"/>
<path d="M91.3378 78.6628V79.1052C91.4362 79.2527 91.4853 79.4494 91.4853 79.5969C91.4853 79.646 91.5345 79.6952 91.5837 79.6952C91.6328 79.6952 91.7312 79.646 91.682 79.5477C91.682 79.2527 91.5345 78.9086 91.3378 78.6628Z" fill="#616161"/>
<path d="M101.171 79.0069L99.45 79.9902L95.4677 77.7286L97.1884 76.6962L101.171 79.0069Z" fill="#D9D9D9"/>
<path d="M99.45 79.9902V82.0059L95.4676 79.6952V77.7286L99.45 79.9902Z" fill="#CBCBCB"/>
<path d="M95.8118 79.4984V78.3185L99.0567 80.1868V81.3667L95.8118 79.4984Z" fill="#EDEDED"/>
<path d="M101.171 79.0068V80.9734L99.45 82.0059V79.9901L101.171 79.0068Z" fill="#EDEDED"/>
<path d="M109.491 55.8522L96.4982 78.3248L97.0941 78.6693L110.087 56.1967L109.491 55.8522Z" fill="#D9D9D9"/>
<path d="M111.151 55.8995L109.332 55.1129L108.742 54.7687L110.561 55.5553L111.151 55.8995Z" fill="#D9D9D9"/>
<path d="M109.332 55.1129L108.988 55.6537L108.398 55.3095L108.742 54.7687L109.332 55.1129Z" fill="#D9D9D9"/>
<path d="M111.151 55.8995L98.9092 77.7286L97.0901 78.6628L110.07 56.1945L108.988 55.6537L109.332 55.1129L111.151 55.8995Z" fill="#EDEDED"/>
<path d="M109.135 57.9152C109.037 57.9152 108.89 57.8661 108.791 57.8169L88.6829 47.7873L90.8462 46.509L109.135 54.5229C109.529 54.6704 109.676 55.1128 109.529 55.5062C109.381 55.8995 108.939 56.047 108.545 55.8995L105.891 54.7195L109.43 56.4895C109.775 56.6861 109.922 57.1286 109.775 57.4728C109.627 57.7677 109.381 57.9152 109.135 57.9152Z" fill="#E0E0E0"/>
<path d="M93.4027 48.4756C92.4194 47.0007 89.5679 47.1974 87.0113 48.869C84.5039 50.5406 83.2256 53.1463 84.2089 54.5721L83.3731 53.343C82.3898 51.868 83.6681 49.3114 86.2247 47.6398C88.7812 45.9683 91.6328 45.7716 92.6161 47.2465L93.4027 48.4756Z" fill="#E0E0E0"/>
<path d="M93.4028 48.4756C94.3861 49.9506 93.1078 52.5071 90.5512 54.1787C87.9946 55.8503 85.1431 56.047 84.1598 54.572C83.1765 53.0971 84.4548 50.5405 87.0113 48.8689C89.5679 47.1973 92.4195 47.0007 93.4028 48.4756Z" fill="#FCFCFC"/>
<path d="M86.4705 55.8503C85.3397 55.8503 84.4547 55.457 84.0122 54.7687C83.4714 53.9821 83.5206 52.9005 84.1106 51.7697C84.6514 50.6389 85.6838 49.5573 86.913 48.7215C88.1912 47.8857 89.5679 47.394 90.797 47.2957C92.0753 47.1974 93.1077 47.5907 93.5994 48.3773C94.1402 49.1639 94.091 50.2456 93.501 51.3764C92.9602 52.5071 91.9278 53.5888 90.6986 54.4246C89.4204 55.2604 88.0437 55.752 86.8146 55.8503C86.7163 55.8012 86.618 55.8503 86.4705 55.8503ZM91.1411 47.689C91.0428 47.689 90.9445 47.689 90.8461 47.689C89.6662 47.7873 88.3879 48.2298 87.2079 49.0165C86.028 49.8031 85.0939 50.8355 84.5531 51.868C84.0614 52.8513 84.0122 53.7854 84.4547 54.3754C84.8972 55.0145 85.733 55.3095 86.8146 55.2604C87.9946 55.162 89.2729 54.7196 90.4528 53.9329C91.6328 53.1463 92.5669 52.1138 93.1077 51.0814C93.5994 50.0981 93.6485 49.1639 93.206 48.574C92.8127 48.0332 92.1244 47.689 91.1411 47.689Z" fill="#D9D9D9"/>
<path d="M90.5512 49.4097C89.7645 49.4097 88.8304 49.7539 87.9946 50.2947C87.208 50.8355 86.5688 51.4746 86.2738 52.1629C86.028 52.6546 85.9788 53.0971 86.1263 53.3429C86.2738 53.5396 86.618 53.6871 87.0605 53.6871C87.8471 53.6871 88.7812 53.3429 89.617 52.8021C91.2395 51.7205 91.8294 50.2947 91.4853 49.7539C91.387 49.5081 90.9936 49.4097 90.5512 49.4097Z" fill="#C2C2C2"/>
<path d="M84.7497 49.4097C84.7497 49.4097 84.4055 48.6231 84.4055 48.4756C84.4055 48.3281 86.7163 46.6074 86.7163 46.6074L87.7487 47.394C87.7487 47.394 87.1588 47.394 85.9788 48.2298C84.9955 48.8689 84.7497 49.4097 84.7497 49.4097Z" fill="white"/>
<path d="M84.7988 49.7539C84.7988 49.7539 84.553 48.8198 84.553 48.6723C84.553 48.5248 86.8637 46.804 86.8637 46.804L88.0437 47.4923C88.0437 47.4923 87.3062 47.5906 86.1263 48.4756C85.1922 49.1147 84.7988 49.7539 84.7988 49.7539Z" fill="#CBCBCB"/>
<path d="M87.4537 75.467L88.9778 76.352V77.3353L87.4537 76.4503V75.467Z" fill="#C2C2C2"/>
<path d="M88.9778 76.352L90.5019 75.467V76.4503L88.9778 77.3353V76.352Z" fill="#BEBEBE"/>
<path d="M87.4538 75.467L88.9779 74.5821L90.502 75.467L88.9779 76.352L87.4538 75.467Z" fill="#F7F7F7"/>
<path d="M99.1549 72.5663L89.5187 75.8604C89.3712 75.9095 89.1745 75.9587 88.9779 75.9587C88.4862 75.9587 88.1421 75.762 88.1421 75.467C88.1421 75.3196 88.2896 75.1721 88.437 75.0737L98.0733 71.7797L99.1549 72.5663Z" fill="#C2C2C2"/>
<path d="M94.1893 74.8279L93.2552 72.8613L103.826 69.2723L104.76 71.2389L94.1893 74.8279Z" fill="#C2C2C2"/>
<path d="M104.76 71.2389L103.826 69.2723L106.185 67.9449L107.12 69.9115L104.76 71.2389Z" fill="#FAFAFA"/>
<path d="M95.5659 71.5339L93.2552 72.8613L103.826 69.2723L106.186 67.9449L95.5659 71.5339Z" fill="white"/>
<path d="M103.776 70.354C103.875 70.649 103.678 70.9931 103.334 71.0915C102.99 71.1898 102.646 71.0423 102.547 70.7473C102.449 70.4523 102.646 70.1082 102.99 70.0098C103.334 69.9115 103.678 70.059 103.776 70.354Z" fill="#7A7A7A"/>
<path d="M103.088 71.8781C102.498 71.8781 101.957 71.5339 101.81 70.9931C101.712 70.6489 101.761 70.2556 101.957 69.9606C102.154 69.6656 102.4 69.4198 102.744 69.3215C103.481 69.0757 104.268 69.469 104.465 70.1573C104.661 70.8456 104.268 71.5831 103.531 71.8289C103.383 71.8781 103.236 71.8781 103.088 71.8781ZM103.088 70.4031C103.039 70.4031 103.039 70.5014 103.039 70.5998C103.088 70.6981 103.137 70.7473 103.186 70.6981C103.186 70.6981 103.236 70.5998 103.236 70.5014C103.186 70.4523 103.137 70.4031 103.088 70.4031Z" fill="#FAFAFA"/>
<path d="M103.531 70.4523C103.629 70.7473 103.432 71.0915 103.088 71.1898C102.744 71.2881 102.4 71.1406 102.301 70.8456C102.203 70.5506 102.4 70.2065 102.744 70.1082C103.088 70.0098 103.432 70.1573 103.531 70.4523Z" fill="#8A8A8A"/>
<path d="M102.842 72.0255C102.252 72.0255 101.712 71.6814 101.564 71.1405C101.367 70.4522 101.761 69.7148 102.498 69.4689C103.236 69.2231 104.022 69.6164 104.219 70.3047C104.317 70.6489 104.268 71.0422 104.071 71.3372C103.875 71.6322 103.629 71.878 103.285 71.9763C103.137 71.9763 102.99 72.0255 102.842 72.0255ZM102.842 70.5506C102.793 70.5506 102.793 70.6489 102.793 70.7472C102.842 70.8456 102.891 70.8947 102.941 70.8456C102.941 70.8456 102.99 70.7472 102.99 70.6489C102.941 70.5506 102.891 70.5506 102.842 70.5506Z" fill="white"/>
<path d="M85.0447 73.8446C85.0447 74.0904 85.3889 74.2871 85.7822 74.2871C86.1755 74.2871 86.5197 74.0904 86.5197 73.8446V74.3362C86.5197 74.582 86.1755 74.7787 85.7822 74.7787C85.3889 74.7787 85.0447 74.582 85.0447 74.3362V73.8446Z" fill="#8A8A8A"/>
<path d="M85.0448 73.8446C85.0448 73.5988 85.3889 73.4022 85.7822 73.4022C86.1755 73.4022 86.5197 73.5988 86.5197 73.8446C86.5197 74.0905 86.1755 74.2871 85.7822 74.2871C85.3889 74.2871 85.0448 74.0905 85.0448 73.8446Z" fill="#A4A4A4"/>
<path d="M86.2246 76.057C85.8804 76.2537 85.3888 76.2537 85.0446 76.057C84.7496 75.8604 84.7496 75.5654 85.0446 75.4179C85.1921 75.3196 85.3888 75.2704 85.5854 75.2704C85.8804 75.2704 86.1754 75.1721 86.4212 75.0737L86.5687 74.9754C86.8146 74.8279 86.9129 74.6804 86.9621 74.4838C86.9621 74.3854 87.0604 74.2379 87.2079 74.1396C87.5029 73.943 88.0437 73.943 88.3387 74.1396C88.6828 74.3363 88.6828 74.6313 88.3387 74.8279C88.1912 74.9262 87.9945 74.9754 87.7979 74.9754C87.4537 74.9754 87.1587 75.0737 86.9129 75.1721L86.7654 75.2704C86.5196 75.4179 86.4212 75.5654 86.3721 75.762C86.4704 75.8604 86.3721 75.9587 86.2246 76.057Z" fill="#CBCBCB"/>
<path d="M85.2905 73.304L86.0771 73.7464V74.1398L85.2905 73.6481V73.304Z" fill="#CBCBCB"/>
<path d="M86.077 73.7463L86.1754 73.6971V74.0413L86.077 74.1396V73.7463Z" fill="#A4A4A4"/>
<path d="M85.2904 73.3038L85.3888 73.2546L86.1754 73.6971L86.0771 73.7463L85.2904 73.3038Z" fill="#E0E0E0"/>
<path d="M125.848 123.438L127.711 124.454V125.555C127.711 126.063 127.372 126.232 127.033 126.063C126.695 125.893 126.356 125.47 126.271 125.047L125.848 123.438Z" fill="#5B5B5B"/>
<path d="M127.795 127.671L126.949 128.179L126.441 127.333C126.017 126.994 125.679 126.401 125.594 125.809L125.086 124.962C125.933 124.454 125.933 124.454 126.102 124.369C126.695 124.285 127.541 124.962 127.965 125.893C128.219 126.74 128.134 127.417 127.795 127.671Z" fill="black"/>
<path d="M127.118 126.486C127.457 127.417 127.287 128.179 126.695 128.264C126.102 128.349 125.255 127.671 124.832 126.74C124.493 125.809 124.663 125.047 125.255 124.962C125.933 124.877 126.695 125.555 127.118 126.486Z" fill="#1B1B1B"/>
<path d="M126.525 126.571C126.695 126.994 126.61 127.417 126.356 127.417C126.102 127.417 125.679 127.079 125.509 126.655C125.34 126.232 125.425 125.809 125.679 125.809C125.933 125.809 126.356 126.147 126.525 126.571Z" fill="#5B5B5B"/>
<path d="M124.578 124.2L126.441 125.216V126.317C126.441 126.825 126.102 126.994 125.763 126.825C125.425 126.655 125.086 126.232 125.001 125.809L124.578 124.2Z" fill="#181818"/>
<path d="M126.441 125.301L124.578 124.2L125.848 123.438L127.711 124.454L126.441 125.301Z" fill="#E8E8E8"/>
<path d="M117.297 119.628L119.16 120.644V121.745C119.16 122.253 118.821 122.422 118.482 122.253C118.144 122.083 117.805 121.66 117.72 121.237L117.297 119.628Z" fill="#5B5B5B"/>
<path d="M119.159 123.861L118.313 124.369L117.805 123.523C117.381 123.184 117.043 122.591 116.958 121.999L116.535 121.237C117.381 120.729 117.381 120.729 117.551 120.644C118.143 120.56 118.99 121.237 119.413 122.168C119.667 122.93 119.583 123.607 119.159 123.861Z" fill="black"/>
<path d="M118.567 122.676C118.906 123.607 118.736 124.369 118.144 124.454C117.551 124.539 116.704 123.861 116.281 122.93C115.942 121.999 116.112 121.237 116.704 121.152C117.382 121.068 118.144 121.745 118.567 122.676Z" fill="#1B1B1B"/>
<path d="M117.974 122.676C118.144 123.099 118.059 123.523 117.805 123.523C117.551 123.523 117.128 123.184 116.958 122.761C116.789 122.337 116.874 121.914 117.128 121.914C117.382 121.914 117.805 122.253 117.974 122.676Z" fill="#5B5B5B"/>
<path d="M116.027 120.39L117.89 121.406V122.507C117.89 123.015 117.551 123.184 117.212 123.015C116.874 122.845 116.535 122.422 116.45 121.914L116.027 120.39Z" fill="#181818"/>
<path d="M117.89 121.406L116.027 120.39L117.297 119.628L119.16 120.644L117.89 121.406Z" fill="#E8E8E8"/>
<path d="M134.484 119.12L136.346 120.136V121.237C136.346 121.745 136.008 121.914 135.669 121.745C135.33 121.575 134.992 121.152 134.907 120.729L134.484 119.12Z" fill="#5B5B5B"/>
<path d="M136.346 123.353L135.5 123.861L134.992 123.015C134.568 122.676 134.23 122.083 134.145 121.491L133.722 120.729C134.568 120.221 134.568 120.221 134.738 120.136C135.33 120.051 136.177 120.729 136.6 121.66C136.854 122.422 136.77 123.099 136.346 123.353Z" fill="black"/>
<path d="M135.754 122.168C136.092 123.099 135.923 123.861 135.33 123.946C134.738 124.031 133.891 123.353 133.468 122.422C133.129 121.491 133.299 120.729 133.891 120.644C134.569 120.56 135.33 121.237 135.754 122.168Z" fill="#1B1B1B"/>
<path d="M135.161 122.253C135.331 122.676 135.246 123.099 134.992 123.099C134.738 123.099 134.315 122.845 134.145 122.337C133.976 121.914 134.061 121.491 134.315 121.491C134.569 121.491 134.992 121.829 135.161 122.253Z" fill="#5B5B5B"/>
<path d="M133.214 119.882L135.076 120.898V121.999C135.076 122.507 134.738 122.676 134.399 122.507C134.06 122.337 133.722 121.914 133.637 121.491L133.214 119.882Z" fill="#181818"/>
<path d="M135.076 120.898L133.214 119.882L134.484 119.12L136.346 120.136L135.076 120.898Z" fill="#E8E8E8"/>
<path d="M125.933 115.31L127.795 116.326V117.427C127.795 117.935 127.457 118.104 127.118 117.935C126.779 117.766 126.441 117.342 126.356 116.919L125.933 115.31Z" fill="#5B5B5B"/>
<path d="M127.795 119.544L126.949 120.052L126.441 119.205C126.017 118.866 125.679 118.274 125.594 117.681L125.171 116.919C126.017 116.411 126.017 116.411 126.187 116.326C126.779 116.242 127.626 116.919 128.049 117.85C128.303 118.612 128.219 119.29 127.795 119.544Z" fill="#1D1D36"/>
<path d="M127.203 118.358C127.541 119.289 127.372 120.051 126.779 120.136C126.187 120.221 125.34 119.543 124.917 118.612C124.578 117.681 124.747 116.919 125.34 116.834C126.017 116.75 126.779 117.427 127.203 118.358Z" fill="#373737"/>
<path d="M126.61 118.358C126.779 118.782 126.695 119.205 126.441 119.205C126.187 119.205 125.763 118.866 125.594 118.443C125.425 118.02 125.509 117.596 125.763 117.596C126.017 117.596 126.356 117.935 126.61 118.358Z" fill="#5B5B5B"/>
<path d="M124.663 116.072L126.525 117.088V118.189C126.525 118.697 126.187 118.866 125.848 118.697C125.509 118.528 125.171 118.104 125.086 117.681L124.663 116.072Z" fill="#E8E8E8"/>
<path d="M126.525 117.088L124.663 116.072L125.933 115.31L127.795 116.326L126.525 117.088Z" fill="#E8E8E8"/>
<path d="M132.452 123.692C128.896 125.724 123.139 125.724 119.498 123.692C115.942 121.66 114.842 117.681 118.398 115.649C121.954 113.617 129.743 113.024 133.383 115.141C136.939 117.088 136.008 121.66 132.452 123.692Z" fill="#B4B4B4"/>
<path d="M132.367 121.745C128.811 123.777 123.054 123.777 119.414 121.745C115.858 119.713 115.858 116.326 119.414 114.294C122.969 112.262 128.727 112.262 132.367 114.294C135.923 116.411 135.923 119.713 132.367 121.745Z" fill="white"/>
<path d="M126.864 94.652C126.271 94.9907 125.425 94.9907 124.832 94.652C124.24 94.3134 124.24 93.8054 124.832 93.4667C125.425 93.1281 126.271 93.1281 126.864 93.4667C127.457 93.8054 127.457 94.3134 126.864 94.652Z" fill="#F1F1F1"/>
<path d="M127.287 94.0593V118.612C127.287 118.866 127.118 119.035 126.864 119.205C126.017 119.713 124.409 119.374 124.409 118.612V94.0593H127.287Z" fill="#D9D9D9"/>
<path d="M132.706 99.9012C128.981 102.018 123.054 102.018 119.329 99.9012C115.604 97.7846 114.757 93.2127 118.398 91.0961C122.123 88.9795 130.335 88.2175 133.637 90.9268C136.262 93.1281 136.431 97.7846 132.706 99.9012Z" fill="#181818"/>
<path d="M132.621 97.8693C128.896 99.9859 122.969 99.9859 119.244 97.8693C115.519 95.7527 115.519 92.2814 119.244 90.1648C122.969 88.0482 128.896 88.0482 132.621 90.1648C136.262 92.2814 136.262 95.7527 132.621 97.8693Z" fill="#222222"/>
<path d="M123.705 84.9234C123.705 85.1147 123.801 85.3059 123.896 85.3059H124.374C123.896 85.3059 123.705 84.9234 123.705 84.9234Z" fill="#303030"/>
<path d="M145.89 97.3546V98.9802C145.89 98.789 145.986 98.5977 146.272 98.4065V96.7809C146.081 96.9721 145.89 97.1634 145.89 97.3546Z" fill="#E0E0E0"/>
<path d="M145.507 97.3546V98.9802C145.507 99.2671 145.699 99.554 146.081 99.7452V98.1196C145.699 97.9283 145.507 97.6415 145.507 97.3546Z" fill="#E0E0E0"/>
<path d="M102.763 82.437C102.763 81.0027 115.195 76.6996 118.063 77.5602C120.932 78.4208 125.044 78.0383 126.383 85.2101C126.574 86.0708 122.845 97.2588 119.88 96.4938C114.525 95.1551 102.955 88.9395 102.763 82.437Z" fill="#B4B4B4"/>
<path d="M102.763 82.437C102.955 81.0983 113.091 74.6915 115.96 75.5521C118.828 76.4127 124.47 79.8552 124.757 80.5245C125.044 81.1939 122.175 93.4338 119.211 92.4776C116.246 91.617 102.572 83.8714 102.763 82.437Z" fill="white"/>
<path d="M79.1441 143.063C78.1879 142.489 76.7535 143.35 75.7972 144.975C74.841 146.601 74.841 148.322 75.7972 148.896L73.1198 147.366C72.1635 146.792 72.1635 145.071 73.1198 143.445C74.076 141.82 75.5104 140.959 76.4666 141.533L79.1441 143.063Z" fill="#161616"/>
<path d="M79.0776 146.899C80.0018 145.298 80.0095 143.573 79.0948 143.045C78.1801 142.516 76.6893 143.386 75.7651 144.987C74.8409 146.587 74.8332 148.313 75.7479 148.841C76.6626 149.369 78.1534 148.5 79.0776 146.899Z" fill="#2B2B2B"/>
<path d="M78.5704 144.019C79.1442 144.402 79.1442 145.549 78.5704 146.601C77.9967 147.653 76.9448 148.227 76.371 147.844C75.7973 147.462 75.7973 146.314 76.371 145.262C76.9448 144.21 77.901 143.637 78.5704 144.019Z" fill="#474747"/>
<path d="M101.807 129.867C100.851 129.293 99.4165 130.154 98.4603 131.779C97.504 133.405 97.504 135.126 98.4603 135.7L95.7828 134.17C94.8265 133.596 94.8265 131.875 95.7828 130.249C96.739 128.624 98.1734 127.763 99.1296 128.337L101.807 129.867Z" fill="#161616"/>
<path d="M101.807 129.867C102.763 130.441 102.763 132.162 101.807 133.787C100.851 135.413 99.4165 136.274 98.4603 135.7C97.504 135.126 97.504 133.405 98.4603 131.779C99.4165 130.249 100.946 129.389 101.807 129.867Z" fill="#2B2B2B"/>
<path d="M101.233 130.919C101.807 131.301 101.807 132.449 101.233 133.501C100.66 134.552 99.6078 135.126 99.0341 134.744C98.4603 134.361 98.4603 133.214 99.0341 132.162C99.7034 131.11 100.66 130.536 101.233 130.919Z" fill="#474747"/>
<path d="M83.9988 95.5876C83.9988 95.4916 83.9029 95.4916 83.9029 95.3957C83.9029 95.4916 83.9988 95.5876 83.9988 95.5876Z" fill="#848484"/>
<path d="M83.4249 91.5707L80.7474 90.0407C80.1737 89.6582 79.4087 89.5626 78.6437 89.5626C77.8787 89.5626 77.1137 89.7538 76.5399 90.0407L69.8462 93.8657C69.5594 93.9613 69.3681 94.1526 69.2725 94.3438L64.2044 100.273C64.0131 100.559 63.9175 100.751 63.9175 101.038V103.046C63.9175 103.524 64.2044 103.906 64.7781 104.289L64.9694 104.384C65.5431 104.767 66.3081 104.863 67.0731 104.863C67.8381 104.863 68.6031 104.671 69.1769 104.384L83.4249 95.9694C83.9986 95.5869 84.2855 95.2044 84.2855 94.7263V92.7182C84.2855 92.3357 83.9986 91.9532 83.4249 91.5707ZM83.903 95.4913C83.9986 95.5869 83.9986 95.5869 83.9986 95.6826C83.9986 95.5869 83.903 95.4913 83.903 95.4913Z" fill="#848484"/>
<path d="M83.9988 95.5875C83.9988 95.4916 83.9029 95.4916 83.9029 95.3957C83.9029 95.4916 83.9988 95.5875 83.9988 95.5875Z" fill="#848484"/>
<path d="M66.9774 102.759C67.7424 102.759 68.5073 102.568 69.0811 102.281L83.4248 94.057C84.5723 93.3876 84.5723 92.2401 83.4248 91.5707L80.7473 90.0407C80.1735 89.6582 79.4085 89.5626 78.6435 89.5626C77.8785 89.5626 77.1135 89.7539 76.5398 90.0407L69.8461 93.8657C69.5592 93.9613 69.368 94.1526 69.2723 94.3438L64.2042 100.273C63.6305 100.942 63.8217 101.707 64.778 102.281L64.9692 102.376C65.4474 102.663 66.2124 102.759 66.9774 102.759Z" fill="white"/>
<path d="M84.2869 88.9618C84 88.7706 83.7132 88.8662 83.3307 89.0574L82.5657 89.5356C81.8007 90.0137 81.2269 91.0655 81.2269 91.9262V92.0218C81.2269 92.8824 80.6532 93.9343 79.8882 94.4124L72.4295 98.7155C71.6645 99.1936 71.0907 100.245 71.0907 101.106V101.68C71.0907 102.54 70.517 103.592 69.752 104.07L68.7001 104.644C68.3176 104.835 67.9351 104.931 67.7439 104.74L66.5008 103.975C66.7876 104.166 67.0745 104.07 67.457 103.879L68.3176 103.401C69.0826 102.923 69.6564 101.871 69.6564 101.01V100.437C69.6564 99.5761 70.2301 98.5243 70.9951 98.0461L78.4538 93.743C79.2188 93.2649 79.7926 92.213 79.7926 91.3524V91.2568C79.7926 90.3962 80.3663 89.3443 81.1313 88.8662L81.8963 88.3881C82.2788 88.1968 82.6613 88.1012 82.8525 88.2924L84.2869 88.9618Z" fill="#EFEFEF"/>
<path d="M66.8833 99.0024C66.5965 98.8111 66.3096 98.9067 65.9271 99.098C65.1621 99.5761 64.5883 100.628 64.5883 101.489V115.354C64.5883 115.832 64.7796 116.119 64.9708 116.215L63.7277 115.45C63.4409 115.259 63.3452 114.972 63.3452 114.589V100.819C63.3452 99.9586 63.919 98.9067 64.684 98.4286C65.0665 98.2374 65.449 98.1417 65.6402 98.333L66.8833 99.0024Z" fill="#EFEFEF"/>
<path d="M84.287 88.9619C84.5739 89.1531 84.6695 89.44 84.6695 89.8225V103.688C84.6695 104.549 84.0958 105.601 83.3308 106.079L65.9271 116.119C65.5446 116.31 65.1621 116.406 64.9709 116.215C64.684 116.024 64.5884 115.737 64.5884 115.354V101.489C64.5884 100.628 65.1621 99.5762 65.9271 99.0981C66.3096 98.9068 66.6921 98.8112 66.8834 99.0024C67.1702 99.1937 67.2658 99.4806 67.2658 99.863V103.784C67.2658 104.262 67.4571 104.549 67.6483 104.644C67.9352 104.836 68.2221 104.74 68.6046 104.549L69.4652 104.071C70.2302 103.592 70.804 102.541 70.804 101.68V101.106C70.804 100.246 71.3777 99.1937 72.1427 98.7156L79.6014 94.4125C80.3664 93.9343 80.9401 92.8825 80.9401 92.0218V91.9262C80.9401 91.0656 81.5139 90.0137 82.2789 89.5356L83.0439 89.0575C83.7133 88.8662 84.0001 88.8662 84.287 88.9619Z" fill="#D9D9D9"/>
<path d="M102.285 120.591C101.998 120.4 101.52 120.4 101.042 120.687L76.2754 135.031C75.3191 135.604 74.5541 136.943 74.5541 138.091V138.473C74.5541 139.047 74.7454 143.828 75.0323 143.924L47.8749 128.146C47.5881 127.954 47.3012 127.572 47.3012 126.998V126.616C47.3012 125.468 48.0662 124.129 49.0224 123.556L73.7892 109.403C74.2673 109.116 74.7454 109.116 75.0323 109.308L102.285 120.591Z" fill="#181818"/>
<path d="M102.285 120.591C102.572 120.782 102.763 125.564 102.763 126.042V126.424C102.763 127.572 101.998 128.911 101.042 129.484L76.2754 143.732C75.7972 144.019 75.3191 144.019 75.0322 143.828C74.7454 143.637 74.5541 138.856 74.5541 138.377V137.995C74.5541 136.847 75.3191 135.509 76.2754 134.935L101.042 120.687C101.52 120.4 101.998 120.4 102.285 120.591Z" fill="#222222"/>
<path d="M119.211 97.6414L104.58 88.6527C103.911 86.4533 101.329 85.4014 99.3209 86.4533L87.3678 94.5814C85.8378 95.442 85.0728 97.2589 85.5509 98.9801L89.5672 111.985C90.2365 114.184 92.8184 115.236 94.8265 114.184L118.541 101.371C120.167 100.414 119.689 99.267 119.211 97.6414Z" fill="#CBCBCB"/>
<path d="M118.637 93.4339L105.441 86.6445C103.72 85.6883 100.755 85.5927 99.2252 86.5489L78.5704 96.972C77.4229 97.737 78.8572 100.797 80.196 101.562L95.4003 112.176C97.1215 113.133 100.277 109.977 101.807 109.021L119.02 98.8845C121.506 97.3545 121.41 95.0595 118.637 93.4339Z" fill="#B4B4B4"/>
<path d="M118.733 93.3382L105.154 85.3058C103.241 84.1583 99.799 84.1583 98.0777 85.2102L79.1441 96.3026C77.8054 97.1632 77.901 98.3107 79.3353 99.1713L92.914 107.204C94.8265 108.351 98.269 108.351 99.9902 107.299L118.828 96.207C120.263 95.3463 120.167 94.1988 118.733 93.3382Z" fill="white"/>
<path d="M100.086 107.299C102.285 105.769 111.465 100.032 113.856 98.5019C116.151 97.0676 118.255 96.3982 118.255 96.3982C118.541 96.207 118.828 96.0157 119.115 95.8245C119.593 95.442 119.88 94.9638 119.785 94.4857C119.689 94.0076 119.402 93.5295 118.733 93.147C120.071 93.912 120.358 95.0595 119.402 95.8245C119.115 96.0157 118.828 96.207 118.541 96.3982C118.541 96.5895 102.572 105.961 100.086 107.299Z" fill="#A4A4A4"/>
<path d="M56.3855 108.351C56.3855 108.638 56.5767 108.925 56.9592 109.212L75.3191 119.826C76.0841 120.304 77.4228 120.304 78.1878 119.826L96.1652 109.403C96.5477 109.212 96.739 108.829 96.739 108.542V112.081C96.739 112.367 96.5477 112.654 96.1652 112.941L78.1878 123.269C77.4228 123.747 76.0841 123.747 75.3191 123.269L56.9592 112.654C56.5767 112.463 56.3855 112.081 56.3855 111.794V108.351Z" fill="#B4B4B4"/>
<path d="M56.3855 108.351C56.3855 108.064 56.5767 107.777 56.9592 107.491L75.0322 99.2668C75.7972 98.7887 77.136 98.7887 77.901 99.2668L96.2609 109.881C96.6434 110.072 96.8346 110.455 96.8346 110.742C96.8346 111.029 96.6434 111.316 96.2609 111.602L78.1878 119.826C77.4228 120.304 76.0841 120.304 75.3191 119.826L56.9592 109.116C56.5767 108.925 56.3855 108.638 56.3855 108.351Z" fill="white"/>
<path d="M96.2608 111.507C93.2965 112.941 81.2478 118.487 78.2835 119.922C77.8053 120.209 77.3272 120.304 76.7535 120.304C76.1797 120.304 75.7016 120.209 75.2235 119.922L56.9592 109.116L75.4147 119.539C76.1797 120.017 77.3272 120.017 78.0922 119.539C78.0922 119.635 93.2009 112.845 96.2608 111.507Z" fill="#B4B4B4"/>
<path d="M36.7825 120.495C36.7825 120.782 36.9737 121.069 37.3562 121.356L51.6999 129.675C52.4649 130.154 72.3548 122.217 72.3548 122.217C72.7373 122.025 74.9366 121.547 74.9366 121.26L75.4147 123.364C75.4147 123.651 75.2235 123.938 74.841 124.225L59.3498 133.118C58.5848 133.596 52.5605 133.692 51.6999 133.214L37.3562 124.894C36.9737 124.607 36.7825 124.32 36.7825 124.034V120.495Z" fill="#B4B4B4"/>
<path d="M36.7825 120.496C36.7825 120.209 37.3562 117.914 37.7387 117.722L53.6124 110.455C54.3774 109.977 55.7161 109.977 56.4811 110.455L74.841 121.069C75.2235 121.261 74.3629 121.739 73.9804 122.026L59.1586 129.675C58.3936 130.154 52.3692 130.154 51.6042 129.675L37.2606 121.356C36.9737 121.069 36.7825 120.782 36.7825 120.496Z" fill="white"/>
<path d="M74.076 121.93C71.1116 123.364 62.2186 128.528 59.1586 129.962C58.6805 130.249 51.9868 130.058 51.5086 129.771L37.4518 121.26L51.7955 129.389C52.5605 129.867 58.2023 129.962 59.063 129.58C58.9673 129.58 71.016 123.269 74.076 121.93Z" fill="#A4A4A4"/>
<path d="M84.7859 119.635C84.8816 120.113 85.1684 120.4 85.5509 120.591C85.9334 120.782 86.3159 120.974 86.6984 121.069C87.5591 121.261 88.324 121.356 89.2803 121.356C88.5153 121.834 87.4634 121.834 86.6028 121.643C86.4116 121.547 86.1247 121.452 85.9334 121.356C85.7422 121.261 85.5509 121.165 85.3597 120.974C84.9772 120.591 84.6903 120.113 84.7859 119.635Z" fill="#A4A4A4"/>
<path d="M89.4156 111.825C89.1287 111.633 88.8419 111.729 88.4594 111.92C87.6944 112.398 87.1206 113.45 87.1206 114.311V124.83C87.1206 125.308 87.3119 125.595 87.5031 125.69L86.26 124.925C85.9731 124.734 85.8775 124.447 85.8775 124.065V113.546C85.8775 112.685 86.4513 111.633 87.2163 111.155C87.5988 110.964 87.9813 110.868 88.1725 111.06L89.4156 111.825Z" fill="#EFEFEF"/>
<path d="M106.819 101.784C106.532 101.593 106.246 101.688 105.863 101.88L105.098 102.358C104.333 102.836 103.759 103.888 103.759 104.748V104.844C103.759 105.705 103.186 106.756 102.421 107.235L94.9618 111.538C94.1968 112.016 93.6231 113.068 93.6231 113.928V114.502C93.6231 115.363 93.0494 116.415 92.2844 116.893L91.4237 117.371C91.0412 117.562 90.6587 117.658 90.4675 117.466L88.9375 116.797C89.2244 116.988 89.5112 116.893 89.8937 116.701L90.7544 116.223C91.5194 115.745 92.0931 114.693 92.0931 113.833V113.259C92.0931 112.398 92.6669 111.346 93.4318 110.868L100.891 106.565C101.656 106.087 102.229 105.035 102.229 104.175V104.079C102.229 103.218 102.803 102.167 103.568 101.688L104.333 101.21C104.716 101.019 105.098 100.923 105.289 101.115L106.819 101.784Z" fill="#EFEFEF"/>
<path d="M106.819 101.784C107.106 101.975 107.202 102.262 107.202 102.645V113.163C107.202 114.024 106.628 115.076 105.863 115.554L88.4594 125.69C88.0769 125.881 87.6944 125.977 87.5032 125.786C87.2163 125.594 87.1207 125.308 87.1207 124.925V114.406C87.1207 113.546 87.6944 112.494 88.4594 112.016C88.8419 111.825 89.2244 111.729 89.4157 111.92C89.7025 112.111 89.7982 112.398 89.7982 112.781V116.701C89.7982 117.18 89.9894 117.466 90.1807 117.562C90.4675 117.753 90.7544 117.658 91.1369 117.466L91.9975 116.988C92.7625 116.51 93.3363 115.458 93.3363 114.598V113.928C93.3363 113.068 93.91 112.016 94.675 111.538L102.229 107.235C102.994 106.756 103.568 105.705 103.568 104.844V104.748C103.568 103.888 104.142 102.836 104.907 102.358L105.672 101.88C106.15 101.688 106.532 101.593 106.819 101.784Z" fill="#D9D9D9"/>
<path d="M89.9894 115.554C89.9894 116.032 90.2763 116.415 90.85 116.797L91.0413 116.893C91.9019 117.371 93.3363 117.562 94.4837 117.18L104.716 114.311C105.002 114.215 105.289 114.12 105.576 113.928L112.174 110.008C112.748 109.625 113.035 109.243 113.035 108.765V110.773C113.035 111.251 112.748 111.633 112.174 112.016L105.576 115.936C105.385 116.032 105.098 116.223 104.716 116.319L94.4837 119.188C93.3363 119.475 91.9019 119.379 91.0413 118.901L90.85 118.805C90.2763 118.423 89.9894 118.04 89.9894 117.562V115.554Z" fill="#B4B4B4"/>
<path d="M94.4838 117.275C96.1094 116.701 97.735 116.223 99.4563 115.65C101.082 115.171 102.803 114.598 104.429 114.215C104.811 114.12 105.194 114.024 105.576 113.737C105.576 113.737 108.158 112.207 108.923 111.825C108.923 111.825 111.983 110.199 112.366 109.912C112.748 109.721 113.035 109.338 113.035 108.86C113.035 109.338 112.748 109.721 112.461 110.008C112.079 110.295 111.696 110.486 111.409 110.773L105.863 114.215C105.481 114.502 105.002 114.598 104.62 114.693C102.994 115.171 101.273 115.65 99.6475 116.032C97.8307 116.415 96.2051 116.893 94.4838 117.275Z" fill="#A4A4A4"/>
<path d="M89.9894 115.554C89.9894 115.076 90.2763 114.693 90.85 114.311L105.098 106.087C106.246 105.418 108.158 105.418 109.306 106.087L111.983 107.617C112.557 108 112.844 108.382 112.844 108.86C112.844 109.338 112.557 109.721 111.983 110.103L105.385 114.024C105.194 114.12 104.907 114.311 104.524 114.406L94.2925 117.275C93.145 117.562 91.7106 117.466 90.85 116.988V116.797C90.2763 116.415 89.9894 116.032 89.9894 115.554Z" fill="white"/>
<path d="M160.297 139.096H160.775C160.966 139.096 161.062 139 161.062 138.809V106.392C161.062 104.289 159.627 101.802 157.81 100.751L149.778 96.1606C148.822 95.5868 147.961 95.5868 147.196 95.9693C146.527 96.3518 146.049 97.2125 146.049 98.2643V130.777C146.049 130.968 146.144 131.064 146.336 131.064H146.814C147.005 131.064 147.101 130.968 147.101 130.777V98.2643C147.101 97.595 147.292 97.1168 147.674 96.9256C148.057 96.7343 148.535 96.83 149.109 97.1168L157.141 101.707C158.671 102.567 159.819 104.671 159.819 106.392V138.713C160.01 138.905 160.201 139.096 160.297 139.096Z" fill="#181818"/>
<path d="M160.679 132.498L144.04 141.965V140.626L160.679 131.064V132.498Z" fill="#D0D0D0"/>
<path d="M144.04 141.965V140.626L130.175 132.594V134.028L144.04 141.965Z" fill="#C5C5C5"/>
<path d="M160.679 131.159L144.04 140.626L130.175 132.593L146.718 123.031L160.679 131.063V131.159Z" fill="white"/>
<path d="M160.679 109.739L144.04 119.302V117.867L160.679 108.305V109.739Z" fill="#D0D0D0"/>
<path d="M144.04 119.302V117.867L130.175 109.93V111.269L144.04 119.302Z" fill="#C5C5C5"/>
<path d="M160.679 108.401L144.04 117.963L130.175 109.931L146.718 100.368L160.679 108.401Z" fill="white"/>
<path d="M143.658 148.658H144.136C144.327 148.658 144.423 148.563 144.423 148.372V116.05C144.423 113.947 142.989 111.461 141.172 110.409L133.139 105.819C132.183 105.245 131.322 105.245 130.557 105.627C129.888 106.01 129.41 106.871 129.41 107.922V140.435C129.41 140.626 129.506 140.722 129.697 140.722H130.175C130.366 140.722 130.462 140.626 130.462 140.435V107.922C130.462 107.253 130.653 106.775 131.036 106.584C131.418 106.392 131.896 106.488 132.47 106.775L140.502 111.365C142.032 112.226 143.18 114.329 143.18 116.05V148.372C143.275 148.563 143.467 148.658 143.658 148.658Z" fill="#181818"/>
<path d="M138.725 130.031V131.164C138.725 131.513 138.202 131.774 137.504 131.774C136.893 131.774 136.282 131.513 136.282 131.164V130.031H138.725Z" fill="#4A2151"/>
<path d="M136.631 130.031H137.068V131.774C136.893 131.774 136.719 131.687 136.631 131.6V130.031Z" fill="#2D3538"/>
<path d="M137.591 130.031H138.376V131.6C138.202 131.687 137.94 131.774 137.591 131.774V130.031Z" fill="#2D3538"/>
<path d="M137.504 130.641C136.829 130.641 136.282 130.368 136.282 130.031C136.282 129.694 136.829 129.421 137.504 129.421C138.178 129.421 138.725 129.694 138.725 130.031C138.725 130.368 138.178 130.641 137.504 130.641Z" fill="#344349"/>
<path d="M139.423 121.576L139.074 129.944C139.074 130.38 138.376 130.728 137.591 130.728C136.719 130.728 136.108 130.38 136.108 129.944L135.497 123.929L139.423 121.576Z" fill="#E28397"/>
<path d="M139.423 121.576L139.074 128.462C139.074 128.898 138.289 129.334 137.416 129.334C136.544 129.334 135.759 128.985 135.759 128.549L135.323 124.016L139.423 121.576Z" fill="#EADEDC"/>
<path d="M139.423 121.576L139.161 127.852C139.161 128.288 138.376 128.723 137.591 128.723C136.719 128.723 135.846 128.288 135.846 127.852L135.41 123.929L139.423 121.576Z" fill="#F2ECEB"/>
<path d="M139.161 122.273C139.161 122.273 138.376 122.796 137.417 123.319C136.544 123.842 135.584 124.365 135.584 124.365C135.584 124.365 136.719 123.929 137.504 123.493C138.376 122.97 139.161 122.273 139.161 122.273Z" fill="#F2ECEB"/>
<path d="M138.725 122.709C138.725 122.709 138.289 122.97 137.678 123.319C137.329 123.581 136.108 124.104 136.108 124.104V124.627C136.108 124.627 136.98 124.278 137.766 123.842C138.376 123.493 138.638 123.232 138.638 123.232V122.709H138.725Z" fill="white"/>
<path d="M153.908 130.365V131.499C153.908 131.847 153.384 132.109 152.686 132.109C152.076 132.109 151.465 131.847 151.465 131.499V130.365H153.908Z" fill="#4A2151"/>
<path d="M151.814 130.365H152.25V132.109C152.076 132.109 151.901 132.022 151.814 131.934V130.365Z" fill="#2D3538"/>
<path d="M152.861 130.365H153.646V131.934C153.472 132.022 153.21 132.109 152.861 132.109V130.365Z" fill="#2D3538"/>
<path d="M152.687 129.755C152.076 129.755 151.465 130.017 151.465 130.365C151.465 130.714 151.989 130.976 152.687 130.976C153.297 130.976 153.908 130.714 153.908 130.365C153.908 130.017 153.385 129.755 152.687 129.755Z" fill="#344349"/>
<path d="M154.606 121.91L154.257 130.278C154.257 130.714 153.559 131.063 152.774 131.063C151.901 131.063 151.291 130.714 151.291 130.278L150.68 124.264L154.606 121.91Z" fill="#CB89F7"/>
<path d="M154.606 121.91L154.257 128.797C154.257 129.232 153.472 129.668 152.599 129.668C151.727 129.668 150.942 129.32 150.942 128.884L150.505 124.351L154.606 121.91Z" fill="#EADEDC"/>
<path d="M154.606 121.91L154.344 128.186C154.344 128.622 153.559 129.058 152.774 129.058C151.901 129.058 151.029 128.622 151.029 128.186L150.593 124.264L154.606 121.91Z" fill="#F2ECEB"/>
<path d="M154.431 122.608C154.431 122.608 153.646 123.131 152.687 123.654C151.814 124.177 150.854 124.7 150.854 124.7C150.854 124.7 151.989 124.264 152.774 123.828C153.559 123.305 154.431 122.608 154.431 122.608Z" fill="#F2ECEB"/>
<path d="M153.908 123.043C153.908 123.043 153.472 123.305 152.861 123.654C152.512 123.915 151.291 124.438 151.291 124.438V124.874C151.291 124.874 152.163 124.525 152.948 124.089C153.559 123.741 153.821 123.479 153.821 123.479V123.043H153.908Z" fill="white"/>
<path d="M148.155 126.544V127.677C148.155 128.026 147.631 128.288 146.933 128.288C146.235 128.288 145.712 128.026 145.712 127.677V126.544H148.155Z" fill="#4A2151"/>
<path d="M146.061 126.544H146.497V128.288C146.323 128.288 146.148 128.2 146.061 128.113V126.544Z" fill="#2D3538"/>
<path d="M147.108 126.544H147.893V128.113C147.719 128.2 147.457 128.288 147.108 128.288V126.544Z" fill="#2D3538"/>
<path d="M146.933 125.934C146.323 125.934 145.712 126.196 145.712 126.544C145.712 126.893 146.235 127.154 146.933 127.154C147.544 127.154 148.155 126.893 148.155 126.544C148.155 126.196 147.631 125.934 146.933 125.934Z" fill="#344349"/>
<path d="M148.853 118.002L148.504 126.37C148.504 126.806 147.806 127.154 147.02 127.154C146.235 127.154 145.537 126.806 145.537 126.37L144.927 120.355L148.853 118.002Z" fill="#CB89F7"/>
<path d="M148.853 118.002L148.504 124.888C148.504 125.324 147.718 125.76 146.846 125.76C145.974 125.76 145.188 125.411 145.188 124.975L144.752 120.443L148.853 118.002Z" fill="#EADEDC"/>
<path d="M148.853 118.002L148.591 124.278C148.591 124.714 147.806 125.15 147.02 125.15C146.148 125.15 145.276 124.714 145.276 124.278L144.839 120.355L148.853 118.002Z" fill="#F2ECEB"/>
<path d="M148.678 118.786C148.678 118.786 147.893 119.309 146.933 119.832C146.061 120.355 145.101 120.878 145.101 120.878C145.101 120.878 146.235 120.443 147.02 120.007C147.806 119.397 148.678 118.786 148.678 118.786Z" fill="#F2ECEB"/>
<path d="M148.155 119.222C148.155 119.222 147.718 119.484 147.108 119.832C146.759 120.094 145.537 120.617 145.537 120.617V121.053C145.537 121.053 146.41 120.704 147.195 120.268C147.806 119.92 148.067 119.658 148.067 119.658V119.222H148.155Z" fill="white"/>
<path d="M148.503 134.812V135.945C148.503 136.294 147.98 136.555 147.282 136.555C146.584 136.555 146.061 136.294 146.061 135.945V134.812H148.503Z" fill="#4A2151"/>
<path d="M146.41 134.812H146.846V136.555C146.671 136.555 146.497 136.468 146.41 136.381V134.812Z" fill="#2D3538"/>
<path d="M147.457 134.812H148.242V136.381C148.067 136.468 147.806 136.555 147.457 136.555V134.812Z" fill="#2D3538"/>
<path d="M147.282 134.202C146.671 134.202 146.061 134.463 146.061 134.812C146.061 135.161 146.584 135.422 147.282 135.422C147.893 135.422 148.503 135.161 148.503 134.812C148.503 134.463 147.98 134.202 147.282 134.202Z" fill="#344349"/>
<path d="M149.201 126.27L148.852 134.638C148.852 135.073 148.155 135.422 147.369 135.422C146.584 135.422 145.886 135.073 145.886 134.638L145.275 128.623L149.201 126.27Z" fill="#E28397"/>
<path d="M149.201 126.27L148.852 133.156C148.852 133.592 148.067 134.027 147.195 134.027C146.322 134.027 145.537 133.679 145.537 133.243L145.101 128.71L149.201 126.27Z" fill="#EADEDC"/>
<path d="M149.201 126.27L148.94 132.546C148.94 132.981 148.155 133.417 147.369 133.417C146.497 133.417 145.624 132.981 145.624 132.546L145.188 128.623L149.201 126.27Z" fill="#F2ECEB"/>
<path d="M149.027 127.054C149.027 127.054 148.242 127.577 147.282 128.1C146.41 128.623 145.45 129.146 145.45 129.146C145.45 129.146 146.584 128.71 147.369 128.274C148.154 127.664 149.027 127.054 149.027 127.054Z" fill="#F2ECEB"/>
<path d="M148.503 127.49C148.503 127.49 148.067 127.751 147.457 128.1C147.108 128.362 145.886 128.885 145.886 128.885V129.32C145.886 129.32 146.759 128.972 147.544 128.536C148.154 128.187 148.416 127.926 148.416 127.926V127.49H148.503Z" fill="white"/>
<path d="M141.517 134.027V135.16C141.517 135.508 140.994 135.77 140.296 135.77C139.685 135.77 139.074 135.508 139.074 135.16V134.027H141.517Z" fill="#4A2151"/>
<path d="M139.423 134.027H139.859V135.77C139.685 135.77 139.51 135.683 139.423 135.596V134.027Z" fill="#2D3538"/>
<path d="M140.383 134.027H141.168V135.596C140.993 135.683 140.732 135.77 140.383 135.77V134.027Z" fill="#2D3538"/>
<path d="M140.296 133.416C139.685 133.416 139.074 133.678 139.074 134.027C139.074 134.375 139.598 134.637 140.296 134.637C140.906 134.637 141.517 134.375 141.517 134.027C141.517 133.678 140.994 133.416 140.296 133.416Z" fill="#344349"/>
<path d="M142.215 125.484L141.866 133.852C141.866 134.288 141.168 134.637 140.383 134.637C139.51 134.637 138.9 134.288 138.9 133.852L138.289 127.838L142.215 125.484Z" fill="#CB89F7"/>
<path d="M142.215 125.484L141.866 132.37C141.866 132.806 141.081 133.242 140.208 133.242C139.336 133.242 138.551 132.893 138.551 132.458L138.114 127.925L142.215 125.484Z" fill="#EADEDC"/>
<path d="M142.215 125.484L141.953 131.76C141.953 132.196 141.168 132.632 140.383 132.632C139.51 132.632 138.638 132.196 138.638 131.76L138.202 127.838L142.215 125.484Z" fill="#F2ECEB"/>
<path d="M141.953 126.269C141.953 126.269 141.168 126.792 140.208 127.315C139.336 127.838 138.376 128.361 138.376 128.361C138.376 128.361 139.51 127.925 140.296 127.489C141.168 126.879 141.953 126.269 141.953 126.269Z" fill="#F2ECEB"/>
<path d="M141.517 126.705C141.517 126.705 141.081 126.966 140.47 127.315C140.121 127.576 138.9 128.099 138.9 128.099V128.535C138.9 128.535 139.772 128.186 140.557 127.751C141.168 127.402 141.43 127.14 141.43 127.14V126.705H141.517Z" fill="white"/>
<path d="M140.208 104.902V107.48C140.208 107.48 140.208 107.48 140.208 107.569C140.208 108.547 141.543 109.258 143.234 109.258C144.924 109.258 146.259 108.458 146.259 107.569V104.902H140.208Z" fill="#E28397"/>
<path d="M143.234 107.124C141.632 107.124 140.297 106.413 140.208 105.524V107.035C140.208 107.035 140.208 107.035 140.208 107.124C140.208 108.102 141.543 108.813 143.234 108.813C144.924 108.813 146.259 108.013 146.259 107.124V105.435C146.259 106.324 144.924 107.124 143.234 107.124Z" fill="#F2ECEB"/>
<path d="M145.903 104.102C145.369 103.568 144.391 103.212 143.234 103.212C142.077 103.212 141.098 103.568 140.564 104.102H140.208V104.813C140.208 104.813 140.208 104.813 140.208 104.902C140.208 105.88 141.543 106.591 143.234 106.591C144.924 106.591 146.259 105.791 146.259 104.902V104.102H145.903Z" fill="#FFCAD5"/>
<path d="M146.259 104.101C146.259 105.079 144.924 105.791 143.234 105.791C141.543 105.791 140.208 104.99 140.208 104.101C140.208 103.212 141.543 102.412 143.234 102.412C144.924 102.412 146.259 103.212 146.259 104.101Z" fill="#FFDAE1"/>
<path d="M143.234 105.435C141.808 105.435 140.653 104.798 140.653 104.013C140.653 103.227 141.808 102.59 143.234 102.59C144.659 102.59 145.814 103.227 145.814 104.013C145.814 104.798 144.659 105.435 143.234 105.435Z" fill="#FFF3FF"/>
<path d="M147.893 105.835V108.458C147.893 108.458 147.893 108.458 147.893 108.549C147.893 109.544 149.251 110.268 150.972 110.268C152.692 110.268 154.05 109.454 154.05 108.549V105.835H147.893Z" fill="#4D8C9C"/>
<path d="M150.972 108.006C149.342 108.006 147.984 107.282 147.893 106.378V107.916C147.893 107.916 147.893 107.916 147.893 108.006C147.893 109.001 149.251 109.725 150.972 109.725C152.692 109.725 154.05 108.911 154.05 108.006V106.287C154.05 107.192 152.692 108.006 150.972 108.006Z" fill="#F2ECEB"/>
<path d="M153.688 105.021C153.145 104.478 152.149 104.116 150.972 104.116C149.795 104.116 148.799 104.478 148.255 105.021H147.893V105.745C147.893 105.745 147.893 105.745 147.893 105.835C147.893 106.83 149.251 107.554 150.972 107.554C152.692 107.554 154.05 106.74 154.05 105.835V105.021H153.688Z" fill="#8DC6D6"/>
<path d="M154.05 105.021C154.05 106.016 152.692 106.74 150.972 106.74C149.251 106.74 147.893 105.926 147.893 105.021C147.893 104.116 149.251 103.302 150.972 103.302C152.692 103.302 154.05 104.026 154.05 105.021Z" fill="#AFDDE9"/>
<path d="M150.971 106.287C149.521 106.287 148.346 105.639 148.346 104.84C148.346 104.041 149.521 103.393 150.971 103.393C152.422 103.393 153.597 104.041 153.597 104.84C153.597 105.639 152.422 106.287 150.971 106.287Z" fill="#E9F8FF"/>
<defs>
<linearGradient id="paint0_linear_285_76998" x1="158.566" y1="82.6991" x2="176.276" y2="52.0225" gradientUnits="userSpaceOnUse">
<stop stop-color="white"/>
<stop offset="1" stop-color="white" stop-opacity="0.1"/>
</linearGradient>
<linearGradient id="paint1_linear_285_76998" x1="199.675" y1="106.239" x2="217.385" y2="75.5623" gradientUnits="userSpaceOnUse">
<stop stop-color="white"/>
<stop offset="1" stop-color="white" stop-opacity="0.1"/>
</linearGradient>
<linearGradient id="paint2_linear_285_76998" x1="155.205" y1="79.8136" x2="172.915" y2="49.1369" gradientUnits="userSpaceOnUse">
<stop stop-color="white"/>
<stop offset="1" stop-color="white" stop-opacity="0.1"/>
</linearGradient>
<linearGradient id="paint3_linear_285_76998" x1="73.6607" y1="77.6986" x2="47.2293" y2="47.0097" gradientUnits="userSpaceOnUse">
<stop stop-color="white"/>
<stop offset="1" stop-color="white" stop-opacity="0.1"/>
</linearGradient>
</defs>
</svg>
